<?xml version="1.0" encoding="utf-8"?>
<!-- Generator: Adobe Illustrator 21.0.0, SVG Export Plug-In . SVG Version: 6.00 Build 0)  -->
<svg version="1.1" id="Layer_1" xmlns="http://www.w3.org/2000/svg" xmlns:xlink="http://www.w3.org/1999/xlink" x="0px" y="0px"
	 viewBox="0 0 784 92" style="enable-background:new 0 0 784 92;" xml:space="preserve">
<style type="text/css">
	.st0{fill:#FFFFFF;}
</style>
<title>Logos</title>
<desc>Created with Sketch.</desc>
<g id="Page-1">
	<g id="logos">
		<g id="Jamal-Benmiloud">
			<g id="Home">
				<g id="Topics">
					<g id="Logos" transform="translate(0.000000, 0.874118)">
						<g id="Monster" transform="translate(0.000000, 24.587838)">
							<polygon id="Fill-1" class="st0" points="30.747,-1.127 30.535,-1.09 30.345,-1.016 29.858,-0.634 29.138,-0.342 
								27.592,-0.068 27.232,0.041 26.894,0.205 26.597,0.405 26.322,0.643 26.047,0.716 25.793,0.716 25.538,0.624 25.305,0.497 
								25.178,0.497 25.052,0.516 24.925,0.551 24.818,0.624 24.755,0.825 24.649,1.008 24.522,1.172 24.352,1.299 24.077,1.391 
								23.823,1.537 23.612,1.719 23.421,1.937 23.548,2.229 23.548,2.339 23.569,2.467 23.633,2.576 23.717,2.649 23.823,2.722 
								23.95,2.74 24.077,2.74 24.183,2.704 24.586,2.831 24.67,2.941 24.755,3.032 24.861,3.105 24.988,3.159 25.115,3.178 
								25.242,3.178 25.369,3.159 25.496,3.124 25.877,2.941 26.724,3.561 27.021,3.816 27.275,4.126 27.36,4.272 27.381,4.436 
								27.381,4.747 27.444,5.057 27.571,5.622 27.635,6.205 27.613,6.461 27.55,6.716 27.423,6.953 27.253,7.153 27.148,7.318 
								27.063,7.482 27.063,7.592 27.084,7.701 27.126,7.81 27.169,7.901 27.36,8.157 27.592,8.394 27.825,8.613 28.037,8.868 
								28.143,9.069 28.185,9.178 28.185,9.287 28.164,9.853 28.079,10.419 28.015,10.783 27.973,11.13 27.952,11.495 
								27.973,11.859 28.037,12.224 28.185,12.552 28.249,12.734 28.27,12.917 28.27,13.1 28.227,13.3 28.015,14.084 27.973,14.321 
								27.952,14.559 27.973,14.668 28.015,14.777 28.058,14.868 28.122,14.96 28.418,15.361 28.524,15.599 28.609,15.817 
								28.672,16.054 28.714,16.309 28.735,16.547 28.735,16.802 28.651,17.678 28.588,18.115 28.482,18.553 28.439,18.917 
								28.418,19.282 28.418,19.647 28.461,20.012 28.524,20.377 28.609,20.723 28.714,21.07 28.863,21.416 29.011,21.781 
								29.159,22.164 29.265,22.547 29.35,22.948 29.371,23.24 29.329,23.514 29.265,23.805 29.138,24.061 28.99,24.426 
								28.863,24.809 28.778,25.191 28.735,25.593 28.714,26.031 28.63,26.468 28.524,26.888 28.397,27.307 28.164,27.945 
								27.888,28.584 27.613,29.186 27.19,29.988 27.148,30.207 27.169,30.426 27.232,30.626 27.444,31.046 27.72,31.447 
								27.846,31.648 27.952,31.848 28.037,32.067 28.079,32.304 28.1,32.633 28.058,33.326 27.994,33.673 27.952,34.019 
								27.931,34.365 27.931,34.73 27.973,35.077 28.037,35.314 28.249,35.788 28.333,36.007 28.418,36.244 28.461,36.499 
								28.482,36.736 28.503,36.992 28.503,37.228 28.461,37.484 28.354,38.305 28.291,39.126 28.312,39.673 28.397,40.22 
								28.524,40.749 28.693,41.278 28.714,41.387 28.693,41.515 28.609,41.752 28.461,41.953 28.27,42.226 28.122,42.518 
								28.1,42.646 28.1,42.755 28.122,42.883 28.185,42.992 28.439,43.321 28.693,43.667 28.904,44.031 29.074,44.397 
								29.244,44.798 29.35,45.199 29.434,45.618 29.498,46.02 29.561,46.476 29.561,46.913 29.434,47.497 29.35,48.08 
								29.265,48.591 29.181,48.846 29.074,49.102 28.99,49.284 28.947,49.503 28.926,49.704 28.947,49.923 29.011,50.087 
								29.095,50.233 29.307,50.068 29.477,49.886 30.112,48.755 30.26,48.519 30.387,48.263 30.493,48.008 30.578,47.734 
								30.62,47.461 30.641,47.169 30.641,46.895 30.599,46.622 30.599,46.056 30.747,45.6 30.896,45.509 30.959,45.455 
								31.001,45.363 31.001,45.217 30.98,45.071 30.874,44.597 30.874,44.451 30.917,44.324 31.023,44.086 31.086,43.831 
								31.128,43.393 31.149,43.065 31.191,42.755 31.255,42.427 31.34,42.116 31.425,41.88 31.467,41.642 31.509,41.387 
								31.488,41.114 31.425,40.876 31.297,40.639 31.107,40.366 30.959,40.056 30.832,39.745 30.747,39.417 30.684,39.089 
								30.641,38.761 30.641,38.414 30.684,38.086 30.789,37.429 30.853,36.755 30.832,36.098 30.726,35.442 30.959,34.986 
								31.234,34.566 31.255,34.056 31.234,33.526 31.17,32.998 31.044,32.487 30.98,32.104 30.938,31.721 30.938,31.319 
								30.959,30.937 31.001,30.609 31.001,30.262 30.959,29.934 30.896,29.605 30.832,29.295 30.811,28.985 30.874,28.511 
								30.98,28.055 31.149,27.599 31.36,27.179 31.679,26.541 31.975,25.884 32.039,25.483 32.102,25.064 32.123,24.881 
								32.187,24.699 32.25,24.535 32.356,24.389 32.822,23.842 33.245,23.258 33.33,23.112 33.457,22.784 33.5,22.62 
								33.521,22.456 33.521,22.273 33.5,22.109 33.457,21.927 33.097,20.814 32.717,19.72 32.568,19.319 32.441,18.917 
								32.399,18.48 32.42,18.042 32.462,17.605 32.547,17.167 32.653,16.747 32.738,16.309 32.759,15.872 32.759,15.434 
								32.779,15.307 32.822,15.179 33.034,14.978 33.394,14.668 33.457,14.577 33.521,14.467 33.542,14.358 33.542,14.249 
								33.436,13.647 33.309,13.027 33.14,12.425 32.97,11.841 32.906,11.604 32.885,11.349 32.906,11.093 32.949,10.838 
								33.076,10.437 33.161,10.018 33.182,9.762 33.118,9.525 32.992,9.306 32.801,9.124 32.589,8.959 32.504,8.905 32.462,8.813 
								32.441,8.723 32.441,8.631 32.483,8.503 32.547,8.376 32.779,7.975 32.822,7.829 32.822,7.683 32.759,7.501 32.674,7.336 
								32.568,7.099 32.483,6.844 32.462,6.68 32.504,6.534 32.632,6.279 32.738,6.041 32.822,5.841 32.928,5.658 33.034,5.494 
								33.161,5.33 33.563,4.893 33.69,4.728 33.796,4.545 33.838,4.345 33.859,4.145 33.881,3.999 33.923,3.834 33.986,3.707 
								34.093,3.579 34.474,3.215 34.876,2.904 35.257,2.868 35.595,2.759 35.638,2.576 35.659,2.394 35.532,2.266 35.384,2.156 
								34.855,2.12 34.664,2.102 34.474,2.029 34.368,1.937 34.304,1.81 34.262,1.446 34.262,1.227 34.22,1.008 34.135,0.862 
								33.986,0.771 33.14,0.369 32.314,-0.086 31.53,-0.579 							"/>
							<polygon id="Fill-2" class="st0" points="18.149,0.533 17.916,0.68 17.704,0.862 17.514,1.044 17.302,1.208 17.132,1.245 
								16.963,1.263 16.667,1.482 16.328,1.646 15.968,1.755 15.608,1.81 14.084,1.865 13.724,1.92 13.364,2.011 13.025,2.12 
								12.686,2.284 12.41,2.43 12.114,2.558 11.521,2.74 11.268,2.759 11.013,2.74 10.866,2.74 10.738,2.777 10.611,2.831 
								10.484,2.922 10.293,3.123 10.167,3.342 10.188,3.47 10.251,3.561 10.505,3.579 10.78,3.543 11.077,3.488 11.395,3.47 
								11.543,3.488 11.67,3.525 12.284,3.725 12.919,3.889 13.554,4.035 14.19,4.126 14.931,4.309 15.184,4.437 15.396,4.6 
								15.587,4.819 15.714,5.057 15.884,5.457 15.905,5.676 15.862,5.877 15.714,6.297 15.693,6.406 15.693,6.498 15.714,6.607 
								15.756,6.698 15.884,6.844 16.031,6.953 16.54,7.263 16.709,7.446 16.773,7.573 16.815,7.701 16.921,8.066 17.048,8.449 
								17.132,8.851 17.111,9.069 17.09,9.27 17.005,9.452 16.963,9.616 16.963,9.981 17.09,10.583 17.069,10.893 16.984,11.185 
								16.794,11.641 16.624,12.115 16.031,14.796 15.989,15.343 16.031,15.544 16.095,15.744 16.18,15.944 16.285,16.127 
								16.624,16.62 16.942,17.131 17.111,17.531 17.217,17.969 17.662,19.392 18.064,20.832 18.128,21.307 18.106,21.762 
								18.106,22.255 18.128,22.492 18.191,22.73 18.212,22.875 18.212,23.021 18.191,23.167 18.149,23.294 17.958,23.86 
								17.916,24.042 17.895,24.225 17.958,24.39 18.043,24.517 18.234,24.735 18.361,24.991 18.445,25.265 18.488,25.538 
								18.572,26.705 18.699,27.434 18.741,27.763 18.72,28.091 18.678,28.438 18.615,28.748 18.488,29.076 18.361,29.368 
								18.191,29.66 18.001,29.934 17.768,30.28 17.577,30.663 17.471,31.083 17.408,31.483 17.471,31.666 17.599,31.831 
								18.043,32.195 18.191,32.341 18.297,32.505 18.34,32.724 18.319,32.943 18.17,33.472 18.128,33.6 18.128,33.727 
								18.149,33.855 18.191,33.982 18.34,34.256 18.509,34.53 18.615,34.73 18.678,34.931 18.678,35.113 18.615,35.277 
								18.488,35.532 18.424,35.806 18.424,36.098 18.488,36.371 18.72,37.028 19.017,37.648 19.229,38.341 19.398,39.052 
								19.525,39.782 19.588,40.493 19.652,41.259 19.779,42.007 19.949,42.755 20.16,43.503 20.393,44.013 20.605,44.251 
								20.775,44.67 20.88,45.035 20.838,45.418 20.817,45.801 21.007,46.403 21.41,46.713 21.346,46.403 21.282,45.983 
								21.431,45.655 21.664,45.217 21.6,44.925 21.367,44.707 21.282,44.506 21.155,44.323 21.007,43.704 21.007,43.484 
								20.986,43.247 20.944,43.029 20.88,42.81 20.796,42.372 20.796,41.935 20.88,41.369 20.923,40.804 20.944,40.238 
								20.923,39.673 20.88,38.833 20.88,37.994 20.965,37.137 21.092,36.317 21.219,35.697 21.24,35.387 21.24,35.058 
								21.219,34.748 21.177,34.439 21.113,34.129 21.007,33.836 20.923,33.545 20.838,33.235 20.775,32.924 20.753,32.615 
								20.753,31.994 20.796,31.685 20.859,31.392 21.155,30.517 21.727,28.329 21.939,27.672 22.108,26.997 22.13,26.815 
								22.13,26.614 22.108,26.432 22.044,26.25 21.96,26.085 21.854,25.939 21.706,25.793 21.558,25.684 21.452,25.574 
								21.388,25.465 21.367,25.283 21.41,25.119 21.579,24.754 21.706,24.535 21.77,24.28 21.791,24.115 21.727,23.933 
								21.621,23.751 21.558,23.532 21.473,23.094 21.473,22.875 21.494,22.656 21.558,22.437 21.621,22.237 21.812,21.799 
								22.002,21.38 22.235,20.96 22.469,20.559 22.511,20.45 22.553,20.322 22.553,20.195 22.532,20.085 22.447,19.829 
								22.32,19.611 21.812,18.9 21.685,18.717 21.6,18.535 21.537,18.334 21.494,18.133 21.452,17.878 21.367,17.605 
								21.155,17.094 20.902,16.583 20.796,16.346 20.732,16.073 20.711,15.817 20.732,15.544 20.753,15.306 20.753,15.069 
								20.668,14.431 20.541,13.811 20.477,13.483 20.457,13.173 20.499,12.862 20.562,12.552 20.775,12.115 21.028,11.695 
								21.219,11.349 21.388,11.002 21.494,10.637 21.558,10.254 21.346,10.109 20.923,9.981 20.817,9.634 20.775,9.087 
								20.775,8.522 20.796,7.975 20.838,7.41 20.965,7.045 21.092,6.898 21.24,6.771 21.621,6.498 22.023,6.278 22.235,6.151 
								22.426,5.986 22.511,5.859 22.532,5.713 22.532,5.476 22.511,5.257 22.469,4.966 22.469,4.674 22.511,4.491 22.574,4.345 
								22.68,4.2 22.828,4.09 22.786,3.944 22.743,3.816 22.447,3.397 22.426,3.287 22.49,3.178 22.532,3.123 22.553,3.069 
								22.553,2.996 22.511,2.941 22.383,2.522 22.193,1.938 22.066,1.682 21.96,1.573 21.833,1.482 19.673,1.446 19.314,1.318 
								18.954,1.117 18.636,0.88 18.381,0.589 18.276,0.533 							"/>
							<polygon id="Fill-3" class="st0" points="40.91,0.607 40.614,0.826 40.317,0.898 39.957,1.044 39.598,1.263 39.513,1.482 
								39.407,1.683 39.28,1.883 39.132,2.065 38.771,2.376 38.56,2.503 38.348,2.612 37.756,2.85 37.162,3.069 36.549,3.233 
								35.914,3.36 35.723,3.397 35.511,3.469 35.321,3.561 35.151,3.67 35.003,3.798 34.855,3.944 34.727,4.108 34.643,4.291 
								34.579,4.546 34.685,4.619 34.791,4.674 35.68,4.674 35.998,4.747 36.104,4.784 36.21,4.856 36.464,5.038 36.739,5.166 
								37.057,5.257 37.374,5.275 38.624,5.294 38.984,5.312 39.344,5.421 39.661,5.567 39.957,5.786 40.169,6.041 40.317,6.351 
								40.402,6.68 40.444,7.008 40.444,7.428 40.423,7.865 40.381,8.285 40.296,8.704 40.296,8.887 40.317,9.069 40.466,9.597 
								40.466,9.78 40.402,9.981 40.317,10.163 40.254,10.364 40.212,10.565 40.212,10.893 40.296,11.112 40.466,11.294 
								40.508,11.385 40.529,11.494 40.529,11.604 40.444,11.786 40.339,11.969 39.64,12.735 39.407,13.027 39.365,13.136 
								39.386,13.264 39.47,13.392 39.576,13.501 39.851,13.811 39.915,13.92 39.957,14.03 39.979,14.358 39.979,14.687 
								39.936,15.033 39.851,15.343 39.767,15.671 39.725,15.981 39.682,16.31 39.661,16.619 39.725,17.039 39.83,17.44 
								39.979,17.823 40.19,18.188 40.571,18.863 40.932,19.538 40.995,19.738 41.037,19.957 41.037,20.158 40.995,20.377 
								40.677,21.38 40.614,21.599 40.593,21.817 40.571,22.055 40.593,22.274 40.614,22.51 40.656,22.73 40.72,22.948 
								40.804,23.149 41.016,23.641 41.186,24.134 41.312,24.626 41.397,25.156 41.461,25.849 41.44,26.559 41.376,27.271 
								41.249,27.964 41.207,28.365 41.207,29.149 41.249,29.55 41.291,29.934 41.291,30.335 41.27,30.736 41.207,31.137 
								41.037,31.593 40.826,32.049 40.698,32.304 40.614,32.578 40.571,32.87 40.571,33.162 40.635,33.49 40.889,34.147 
								40.932,34.511 40.91,34.694 40.889,34.858 40.847,35.04 40.783,35.205 40.466,35.843 40.127,36.463 40.042,36.664 
								40.021,36.9 40.042,37.119 40.085,37.338 40.275,37.794 40.487,38.232 40.571,38.469 40.635,38.706 40.677,38.962 
								40.698,39.199 40.677,39.381 40.635,39.545 40.466,40.494 40.466,40.822 40.423,41.15 40.423,41.314 40.402,41.479 
								40.423,41.642 40.466,41.788 40.571,42.336 40.656,42.883 40.72,43.43 40.741,43.977 40.932,43.776 41.122,43.612 
								41.249,43.339 41.44,43.102 41.291,42.846 41.207,42.591 41.186,42.299 41.207,42.025 41.461,41.368 41.757,40.712 
								42.117,40.092 42.498,39.49 42.689,38.851 42.88,38.597 43.028,38.341 43.154,38.05 43.239,37.758 42.88,36.572 
								42.837,36.244 42.837,35.587 42.859,35.259 42.922,34.931 43.006,34.602 43.091,34.292 43.218,33.982 43.261,33.745 
								43.261,33.508 43.218,33.271 43.154,33.052 42.774,32.086 42.731,31.94 42.71,31.794 42.71,31.648 42.752,31.502 
								42.901,31.156 43.112,30.827 43.366,30.426 43.578,30.007 43.621,29.769 43.642,29.514 43.6,29.259 43.536,29.003 
								43.049,27.8 42.964,27.508 42.943,27.216 42.964,26.906 43.028,26.614 43.218,26.395 43.557,25.884 43.705,25.611 
								43.853,25.319 43.959,25.046 44.086,24.626 44.15,24.207 44.213,23.86 44.277,23.496 44.277,23.112 44.256,22.748 
								44.192,22.401 44.107,22.036 43.98,21.69 43.811,21.361 43.133,20.322 42.985,20.048 42.88,19.757 42.859,19.446 
								42.859,19.136 42.943,18.717 43.07,18.297 43.197,17.841 43.324,17.367 43.451,16.419 43.409,16.31 43.324,16.219 
								43.028,15.981 42.88,15.854 42.774,15.708 42.795,15.288 42.859,14.778 42.901,14.267 42.88,13.757 42.837,13.227 
								42.816,13.045 42.816,12.862 42.88,12.607 42.964,12.37 43.07,12.133 43.43,11.513 43.6,11.093 43.853,10.054 44.15,9.033 
								44.235,8.832 44.34,8.668 44.785,8.176 44.891,8.048 44.955,7.902 44.976,7.737 44.976,7.355 45.018,7.135 45.081,6.935 
								45.187,6.753 45.695,5.859 45.568,5.695 45.42,5.531 45.294,5.421 45.187,5.275 45.209,5.057 45.251,4.838 45.336,4.473 
								45.357,4.108 45.357,3.999 45.336,3.889 45.272,3.78 45.209,3.688 45.081,3.579 44.933,3.488 44.721,3.378 44.531,3.233 
								44.489,3.105 44.489,2.959 44.595,2.74 44.658,2.558 44.7,2.376 44.552,2.321 44.446,2.266 44.319,2.175 44.213,2.065 
								44.065,1.865 43.769,1.427 43.684,1.318 43.6,1.245 43.493,1.19 43.366,1.154 42.816,1.062 42.286,0.935 42.011,0.844 
								41.757,0.698 41.545,0.516 41.376,0.296 							"/>
						</g>
						<g id="Red-Bull" transform="translate(79.136150, 38.114865)">
							<polygon id="Fill-1_1_" class="st0" points="101.546,23.11 106.764,23.11 106.764,-1.553 101.546,-1.553 							"/>
							<polygon id="Fill-2_1_" class="st0" points="109.588,23.11 114.807,23.11 114.807,-1.553 109.588,-1.553 							"/>
							<path id="Fill-3_1_" class="st0" d="M55.13,9.604c-1.216-1.253-2.864-1.997-4.668-1.997c-3.884,0-7.062,3.523-7.062,7.908
								c0,4.345,3.177,7.908,7.062,7.908c1.805,0,3.452-0.744,4.668-1.996v1.605h5.374V-1.592H55.13V9.604z M52.031,18.921
								c-1.688,0-3.061-1.527-3.061-3.367c0-1.878,1.373-3.404,3.061-3.404c1.687,0,3.06,1.526,3.06,3.404
								C55.091,17.394,53.719,18.921,52.031,18.921L52.031,18.921z"/>
							<path id="Fill-5" class="st0" d="M79.77,10.153C84.398,5.258,80.947-0.38,74.788-0.38h-3.375h-5.57v23.411h8.946
								C84.714,23.111,86.4,12.815,79.77,10.153 M74.748,18.332h-3.336V4.357h3.375c1.882,0,1.805,4.19-0.157,4.151h-2.314v4.579
								h2.314C78.946,13.087,79.143,18.332,74.748,18.332"/>
							<path id="Fill-7" class="st0" d="M34.376,7.45c-4.472,0-8.083,3.641-8.083,8.065c0,4.463,3.61,8.104,8.083,8.104
								c3.492,0,6.277-1.37,7.336-4.111l-4.08-2.153c-1.295,2.701-5.847,2.077-5.533-0.351l10.085-0.119
								C42.184,16.884,43.321,7.45,34.376,7.45L34.376,7.45z M31.983,13.675c0.196-1.293,0.94-2.348,2.549-2.348
								c1.57,0.038,2.118,0.977,2.353,2.348H31.983z"/>
							<path id="Fill-9" class="st0" d="M19.898-0.262h-9.731v23.254h5.61V4.278h2.825c2.824,0,2.708,5.287,0.117,5.287h-2.314
								v5.988l5.218,7.594l6.396-0.076l-6.748-9.709C29.353,10.7,26.842-0.262,19.898-0.262"/>
							<path id="Fill-11" class="st0" d="M94.365,17.276c0,2.31-4.433,2.271-4.433,0V8.234h-5.218v9.708
								c0,4.152,4.355,5.871,7.572,5.871c3.099,0,7.298-1.643,7.298-5.871V8.234h-5.219L94.365,17.276L94.365,17.276z"/>
						</g>
						<g id="Lego" transform="translate(228.820031, 35.040541)">
							<path id="Fill-1_2_" class="st0" d="M72.677-1.593c-0.919,0-1.663,0.751-1.663,1.684c0,0.931,0.743,1.68,1.663,1.68
								c0.925,0,1.669-0.749,1.669-1.68C74.346-0.842,73.602-1.593,72.677-1.593L72.677-1.593z M72.677-1.26
								c0.743,0,1.345,0.604,1.345,1.351c0,0.746-0.603,1.353-1.345,1.353c-0.738,0-1.333-0.608-1.333-1.353
								C71.343-0.657,71.939-1.26,72.677-1.26L72.677-1.26z M73.527,0.968l-0.2-0.351c-0.174-0.306-0.223-0.355-0.37-0.405V0.201
								c0.292-0.036,0.466-0.226,0.466-0.487c0-0.277-0.174-0.489-0.545-0.489h-0.861v1.743h0.357V0.254h0.065
								c0.153,0,0.214,0.017,0.283,0.087c0.069,0.069,0.174,0.219,0.235,0.344l0.139,0.283H73.527z M72.373-0.025v-0.476h0.322
								c0.236,0,0.356,0.083,0.356,0.238c0,0.122-0.078,0.239-0.317,0.239H72.373z"/>
							<path id="Fill-4" class="st0" d="M64.067,8.035c-0.07,1.793-2.675,8.967-3.601,10.55c-0.401,0.687-0.852,1.254-1.667,1.254
								c-0.71-0.002-1.028-0.51-1.047-1.092c-0.051-1.618,2.891-9.734,3.898-11.053c0.448-0.697,0.945-0.809,1.516-0.802
								C64.002,6.903,64.088,7.511,64.067,8.035 M68.812,10.964c-0.591,2.972-1.922,6.489-3.366,9.111
								c-2.356,4.277-5.219,4.875-7.717,4.845c-2.498-0.03-5.316-0.963-5.336-4.853c-0.015-2.792,1.179-6.738,2.191-9.32
								c1.767-4.686,3.572-8.507,9.278-8.438C70.517,2.389,69.33,8.362,68.812,10.964 M47.681,6.794c-0.963,0-1.592,0.617-2.06,1.28
								c-1.031,1.462-3.267,7.323-3.614,9.73c-0.239,1.65,0.467,1.987,1.237,1.987c1.237,0,2.623-1.321,3.096-3.502
								c0,0-2.354-0.058-1.704-2.166c0.631-2.045,1.826-2.489,3.809-2.569c3.906-0.163,3.521,2.754,3.208,4.305
								c-1.015,5.042-4.571,9.093-9.599,9.093c-3.444,0-5.582-1.922-5.582-5.467c0-2.526,1.242-6.491,2.226-8.812
								c2.094-4.936,4.29-8.394,9.885-8.394c3.357,0,6.005,1.218,5.618,4.393c-0.285,2.33-1.44,3.697-3.539,3.862
								c-0.587,0.047-2.989-0.014-2.191-2.308C48.747,7.424,48.862,6.794,47.681,6.794 M30.177,15.531
								c-0.231,0.628-0.667,1.946-1.018,3.343c1.142-0.287,1.998-0.489,3.467-0.453c1.672,0.04,2.741,0.741,2.741,2.14
								c0,3.382-3.705,4.376-6.276,4.376c-2.823,0-5.304-1.623-5.304-4.738c0-3.654,1.962-9.191,3.803-12.88
								c2.261-4.532,4.571-5.135,8.549-5.135c1.75,0,3.763,0.755,3.763,2.42c0,2.312-1.938,3.191-3.86,3.303
								c-0.821,0.046-2.083,0.093-2.841,0.04c0,0-0.639,0.984-1.319,2.736c3.558-0.505,5.069,0.309,4.468,2.389
								C35.539,15.878,33.127,16.063,30.177,15.531 M18.841,18.777c3.479-0.612,4.357,0.66,4.247,1.837
								c-0.327,3.521-3.53,4.309-6.308,4.242c-2.016-0.047-3.828-0.979-3.879-3.343C12.812,17.38,16.988,7.82,18.953,4.65
								c0.909-1.504,2.015-2.246,3.778-2.246c1.672,0,2.086,0.865,2.061,1.902C24.727,7.074,20.296,15.489,18.841,18.777
								 M63.606,0.212c-3.595,0-6.077,1.438-7.76,3.448c-0.285-0.601-0.5-0.865-0.803-1.213c-1.376-1.57-3.59-2.305-6.56-2.305
								c-2.901,0-5.32,0.915-6.999,2.357c-0.872-1.432-2.95-2.38-5.457-2.38c-3.276,0-6.845,0.468-8.961,3.912
								c-0.051-1.241-0.163-1.896-0.851-2.634c-0.84-0.897-2.198-1.13-3.521-1.13c-2.411,0-4.225,1.062-5.529,3.226
								c-1.894,3.053-6.485,13.099-6.382,17.965c0.068,3.142,2.156,5.409,5.895,5.497c2.92,0.069,5.211-0.718,6.67-2.204
								c1.308,1.434,3.303,2.276,5.69,2.276c2.658,0,5.335-0.807,6.914-2.567c1.331,1.651,3.426,2.61,6.119,2.598
								c3.52-0.017,6.613-1.702,8.633-4.286c1.109,3.045,3.92,4.256,6.99,4.256c6.728,0,9.684-4.67,12.146-12.055
								c0.554-1.664,1.294-4.441,1.417-6.774C71.459,4.317,69.833,0.212,63.606,0.212"/>
						</g>
						<g id="Xiaomi" transform="translate(341.402191, 39.736486)">
							<polygon id="Xaomi-path" class="st0" points="18.507,17.599 23.247,17.599 23.247,5.956 18.507,5.956 							"/>
							<path id="Xaomi-path_1_" class="st0" d="M26.979,17.722L26.896,5.413c-0.012-1.718-1.162-2.832-2.837-2.856
								C21.9,2.526,16.428,2.59,14.965,2.61v15.145H10.33V-1.458l4.635,0.053h11.54c2.933,0,4.92,2.621,4.92,5.367
								c0.004,4.382,0.053,13.74,0.053,13.74L26.979,17.722z"/>
							<polygon id="Xaomi-path_2_" class="st0" points="35.019,17.755 39.657,17.755 39.657,-1.458 35.019,-1.458 							"/>
						</g>
						<g id="Huel" transform="translate(418.992175, 30.736486)">
							<polygon id="Fill-10" class="st0" points="95.068,-1.33 96.48,2.826 96.496,2.826 97.829,-1.33 99.694,-1.33 99.694,4.713 
								98.454,4.713 98.454,0.431 98.437,0.431 96.96,4.713 95.939,4.713 94.462,0.474 94.446,0.474 94.446,4.713 93.205,4.713 
								93.205,-1.33 							"/>
							<polygon id="Fill-9_1_" class="st0" points="87.965,-0.212 87.965,-1.33 92.901,-1.33 92.901,-0.212 91.096,-0.212 
								91.096,4.713 89.771,4.713 89.771,-0.212 							"/>
							<polygon id="Fill-7_1_" class="st0" points="78.656,26.651 84.208,26.651 84.208,-1.352 78.656,-1.352 							"/>
							<path id="Fill-4_1_" class="st0" d="M70.073,11.121c-0.664-0.733-1.675-1.099-3.031-1.099c-0.887,0-1.622,0.15-2.21,0.451
								c-0.586,0.302-1.056,0.674-1.408,1.118c-0.351,0.444-0.601,0.915-0.742,1.412c-0.144,0.497-0.229,0.941-0.254,1.333h9.033
								C71.199,12.923,70.737,11.853,70.073,11.121 M63.796,21.787c0.835,0.81,2.034,1.216,3.597,1.216
								c1.122,0,2.086-0.281,2.894-0.844c0.808-0.562,1.304-1.157,1.486-1.785h4.888c-0.781,2.432-1.98,4.17-3.598,5.215
								c-1.615,1.047-3.572,1.569-5.864,1.569c-1.591,0-3.025-0.254-4.302-0.764c-1.278-0.51-2.36-1.237-3.246-2.177
								c-0.888-0.941-1.572-2.064-2.053-3.371c-0.483-1.307-0.723-2.747-0.723-4.316c0-1.514,0.249-2.927,0.743-4.234
								c0.494-1.307,1.199-2.438,2.111-3.392c0.913-0.955,2-1.707,3.267-2.256c1.263-0.548,2.664-0.823,4.203-0.823
								c1.719,0,3.218,0.332,4.495,0.998c1.277,0.666,2.327,1.564,3.148,2.687c0.82,1.125,1.415,2.406,1.779,3.844
								c0.365,1.438,0.495,2.94,0.391,4.509H62.428C62.507,19.669,62.962,20.976,63.796,21.787"/>
							<path id="Fill-2_2_" class="st0" d="M50.15,26.651v-2.825h-0.116c-0.704,1.177-1.615,2.027-2.738,2.55
								c-1.121,0.523-2.269,0.783-3.441,0.783c-1.486,0-2.705-0.195-3.658-0.588c-0.95-0.392-1.699-0.946-2.248-1.667
								c-0.547-0.717-0.931-1.594-1.153-2.627c-0.221-1.034-0.333-2.178-0.333-3.432V6.374h5.553v11.451
								c0,1.674,0.261,2.922,0.782,3.747c0.522,0.823,1.447,1.235,2.778,1.235c1.511,0,2.605-0.451,3.284-1.353
								c0.679-0.901,1.016-2.385,1.016-4.451V6.374h5.554v20.276H50.15L50.15,26.651z"/>
							<polygon id="Fill-1_3_" class="st0" points="27.608,-1.352 27.608,9.394 16.306,9.394 16.306,-1.352 10.167,-1.352 
								10.167,26.651 16.306,26.651 16.306,14.571 27.608,14.571 27.608,26.651 33.746,26.651 33.746,-1.352 							"/>
						</g>
						<g id="Castrol" transform="translate(549.658842, 28.891892)">
							<path id="Fill-4_2_" class="st0" d="M24.624,14.806h0.827c0.277,0,0.521-0.203,0.546-0.452l0.005-0.052
								c0.02-0.254-0.181-0.452-0.462-0.452h-0.626l0.26-0.81h0.861c0.277,0,0.525-0.202,0.546-0.451l0.004-0.052
								c0.025-0.245-0.168-0.461-0.449-0.461l12.236-0.005c0.567,2.623,0.109,4.575,0.109,4.575H24.922
								c0.276,0,0.525-0.203,0.55-0.457l0.005-0.052c0.025-0.254-0.181-0.452-0.462-0.452h-0.68l0.282-0.874L24.624,14.806z
								 M26.282,14.991c-0.155,0-0.294,0.103-0.306,0.237l-0.004,0.026c-0.013,0.134,0.105,0.238,0.26,0.238h0.785
								c0.156,0,0.294-0.104,0.306-0.238l0.004-0.026c0.013-0.134-0.105-0.237-0.26-0.237H26.282z M26.832,13.165
								c-0.155,0-0.294,0.103-0.307,0.233l-0.004,0.03c-0.013,0.133,0.105,0.237,0.26,0.237h0.781c0.155,0,0.294-0.104,0.306-0.237
								l0.004-0.03c0.013-0.13-0.105-0.233-0.26-0.233H26.832z M28.129,14.126c-0.105,0-0.197,0.082-0.205,0.181l-0.005,0.022
								c-0.008,0.099,0.067,0.181,0.172,0.181h0.521c0.104,0,0.197-0.081,0.205-0.181l0.005-0.022
								c0.008-0.099-0.067-0.181-0.173-0.181H28.129L28.129,14.126z M27.638,15.934c-0.105,0-0.193,0.078-0.206,0.181l-0.004,0.021
								c-0.008,0.099,0.066,0.177,0.172,0.177h0.516c0.105,0,0.193-0.077,0.206-0.177l0.004-0.021
								c0.008-0.103-0.067-0.181-0.168-0.181H27.638z M28.649,12.373c-0.105,0-0.192,0.077-0.205,0.176v0.022
								c-0.008,0.103,0.067,0.181,0.172,0.181h0.516c0.105,0,0.197-0.077,0.205-0.181v-0.022c0.008-0.099-0.067-0.176-0.172-0.176
								H28.649z M29.304,15.091c-0.105,0-0.197,0.082-0.206,0.181v0.022c-0.008,0.099,0.067,0.181,0.168,0.181h0.52
								c0.105,0,0.197-0.082,0.206-0.181l0.004-0.022c0.008-0.099-0.067-0.181-0.172-0.181H29.304z M29.808,13.242
								c-0.105,0-0.193,0.082-0.206,0.177v0.026c-0.008,0.1,0.067,0.181,0.168,0.181h0.517c0.105,0,0.197-0.078,0.205-0.181
								l0.005-0.026c0.008-0.095-0.067-0.177-0.172-0.177H29.808z M30.946,14.148c-0.106,0-0.193,0.081-0.202,0.181l-0.004,0.021
								c-0.008,0.099,0.067,0.181,0.172,0.181h0.521c0.104,0,0.193-0.082,0.205-0.181l0.005-0.021
								c0.008-0.099-0.067-0.181-0.172-0.181L30.946,14.148L30.946,14.148z M30.454,15.957c-0.105,0-0.197,0.082-0.205,0.181v0.022
								c-0.008,0.099,0.067,0.181,0.168,0.181h0.52c0.105,0,0.193-0.082,0.206-0.181l0.005-0.022
								c0.007-0.099-0.068-0.181-0.172-0.181H30.454z M31.471,12.394c-0.106,0-0.198,0.077-0.206,0.181v0.027
								c-0.008,0.099,0.067,0.176,0.172,0.176h0.516c0.105,0,0.193-0.077,0.205-0.176l0.005-0.027
								c0.008-0.099-0.067-0.181-0.172-0.181H31.471z M25.505,12.049h-0.764c-0.277,0-0.52,0.203-0.55,0.452l-0.004,0.052
								c-0.026,0.254,0.18,0.457,0.461,0.457h0.529l0.332-0.961L25.505,12.049L25.505,12.049z M24.343,15.681h-0.71
								c-0.276,0-0.52,0.203-0.545,0.452l-0.005,0.052c-0.025,0.254,0.18,0.457,0.462,0.457h0.529l0.273-0.961L24.343,15.681
								L24.343,15.681z M24.918,13.841h-0.769c-0.276,0-0.52,0.203-0.55,0.452l-0.004,0.052c-0.026,0.25,0.18,0.452,0.461,0.452
								h0.562l0.298-0.961L24.918,13.841z M18.823,16.426c0.109,0,0.205-0.108,0.214-0.246l0.004-0.03
								c0.008-0.134-0.075-0.241-0.18-0.241h-0.55c-0.109,0-0.206,0.108-0.218,0.241l-0.005,0.03
								c-0.008,0.138,0.071,0.246,0.18,0.246H18.823L18.823,16.426z M19.864,12.765c0.109,0,0.206-0.108,0.218-0.246l0.005-0.026
								c0.008-0.137-0.072-0.245-0.18-0.245h-0.55c-0.109,0-0.205,0.108-0.218,0.245v0.026c-0.012,0.138,0.067,0.246,0.18,0.246
								h0.55H19.864z M19.339,14.578c0.109,0,0.206-0.108,0.218-0.241v-0.03c0.008-0.134-0.071-0.245-0.18-0.245h-0.55
								c-0.109,0-0.205,0.111-0.218,0.245v0.03c-0.008,0.134,0.071,0.241,0.18,0.241H19.339z M20.3,15.517
								c0.109,0,0.205-0.108,0.218-0.241l0.005-0.026c0.008-0.134-0.072-0.245-0.18-0.245h-0.55c-0.109,0-0.205,0.111-0.218,0.245
								v0.026c-0.008,0.134,0.072,0.241,0.18,0.241h0.55H20.3z M20.817,13.669c0.109,0,0.205-0.108,0.218-0.241l0.004-0.03
								c0.009-0.134-0.071-0.241-0.18-0.241h-0.55c-0.109,0-0.205,0.108-0.218,0.241v0.03c-0.008,0.134,0.072,0.241,0.18,0.241h0.55
								H20.817z M21.295,16.43c0.109,0,0.206-0.108,0.218-0.241l0.005-0.03c0.008-0.134-0.072-0.241-0.18-0.241h-0.55
								c-0.109,0-0.205,0.107-0.218,0.241v0.03c-0.008,0.134,0.072,0.241,0.18,0.241h0.55H21.295L21.295,16.43z M22.336,12.769
								c0.109,0,0.205-0.112,0.218-0.246l0.005-0.03c0.008-0.134-0.072-0.241-0.181-0.241h-0.55c-0.109,0-0.205,0.108-0.218,0.241
								l-0.004,0.03c-0.009,0.134,0.075,0.246,0.18,0.246H22.336z M21.816,14.587c0.109,0,0.206-0.108,0.218-0.246v-0.026
								c0.008-0.137-0.072-0.245-0.18-0.245h-0.55c-0.109,0-0.206,0.108-0.218,0.245v0.026c-0.009,0.138,0.071,0.246,0.18,0.246
								H21.816z M22.962,15.569c0.164,0,0.31-0.138,0.328-0.314l0.004-0.039c0.013-0.171-0.109-0.319-0.277-0.319h-0.831
								c-0.163,0-0.31,0.147-0.327,0.319l-0.005,0.039c-0.013,0.172,0.109,0.314,0.277,0.314H22.962z M23.487,13.729
								c0.164,0,0.31-0.142,0.328-0.314l0.004-0.039c0.013-0.172-0.109-0.315-0.277-0.315H22.71c-0.163,0-0.31,0.143-0.327,0.315
								l-0.005,0.039c-0.013,0.172,0.109,0.314,0.277,0.314H23.487z M69.455,8.987c1.117,1.417,0.747,3.752,0.306,5.389
								l-2.884,10.596c-1.204,0.538-2.669,0.628-4.05,0.874c-2.671,0.272-5.646,0.159-7.132-2.374
								c-0.769-1.775-0.462-4.156,0.68-5.66c2.279-2.783,5.579-3.231,8.816-3.77c0.264-0.857,0.591-1.886,0.264-2.808
								c-0.982-1.301-2.93-0.672-4.286-0.538c-0.768,0.134-1.44,0.404-2.165,0.607c0.033,0.021,0.68-2.955,0.68-2.968
								c2.863-1.081,7.309-1.844,9.776,0.646L69.455,8.987z M64.359,17.081c-1.402,0.224-3.127,0.684-3.938,2.192
								c-0.42,0.917-0.613,2.314,0.151,3.119c0.566,0.564,1.532,0.267,2.255,0.267l1.528-5.578H64.359z M113.983,9.685
								c1.352,2.851,0.193,6.224-0.638,8.938c-0.966,2.74-2.893,5.88-5.822,6.85c-2.052,0.581-4.638,0.672-6.368-0.694
								c-2.338-2.197-1.469-6.177-0.633-8.736c1.179-3.635,4-8.149,8.139-8.619c2.098-0.048,4.243,0.224,5.318,2.266L113.983,9.685z
								 M108.996,10.537c-0.419,0.112-0.789,0.379-1.12,0.767c-1.965,3.187-3.346,7.507-3.454,10.618
								c0.042,0.495,0.306,0.801,0.789,0.806c0.705,0.008,1.007-0.336,1.423-0.763c1.822-3.011,3.22-6.918,3.35-10.735
								c0.021-0.62-0.525-0.737-0.982-0.694L108.996,10.537L108.996,10.537L108.996,10.537z M103.59,7.841l-1.751,2.761
								c-1.078-0.112-2.233-0.064-3.198,0.267L94.7,25.463h-4.508l4.462-16.752c2.258-1.077,4.84-1.551,7.618-1.258l1.318,0.383
								L103.59,7.841L103.59,7.841z"/>
							<path id="Fill-1_4_" class="st0" d="M82.409,7.957c0.03,0.021-0.781,2.735-0.789,2.735c-1.725-0.138-4.244-0.608-5.294,1.257
								c-0.697,2.826,3.283,3.791,3.719,6.285c0.525,2.179,0,4.471-1.771,5.888c-2.493,2.283-6.632,1.813-9.671,1.03
								c0.02,0.008,0.751-2.874,0.743-2.874c1.813,0.362,4.945,1.168,6.237-0.895c0.877-2.52-2.233-3.459-3.303-5.346
								c-1.18-1.568-0.944-3.994,0-5.613C74.53,7.19,78.95,6.807,82.409,7.957L82.409,7.957z M18.668,4.408
								c-1.028,3.455-1.948,6.961-2.934,10.442c-0.185,0.939-0.282,2.068,0.415,2.76c0.525,0.543,1.138,0.857,1.881,0.879h20.01
								c-0.969,3.859-4.197,6.986-7.711,8.322c-3.958,1.503-8.668,0.711-11.816-1.873c-3.895-3.21-5.729-7.956-4.638-13.026
								c0.592-2.851,2.25-5.656,4.79-7.499L18.668,4.408z M119.281,20.617c0.021,0.517-0.285,1.124,0.063,1.577
								c0.697,0.715,1.838,0.401,2.825,0.465c0,0.043-0.575,2.808-0.575,2.808s-1.662-0.039-2.527-0.005
								c-1.838,0.061-3.631-0.004-4.402-1.925c-0.504-3.033,0.961-5.746,1.578-8.577c0.899-3.613,2.934-10.941,2.934-10.941
								l4.79-0.964l-4.681,17.557L119.281,20.617z M91.077,3.06l-1.205,4.897h3.219l-0.701,2.796h-3.236
								c0,0-1.256,4.441-1.838,6.582c-0.449,1.641-0.982,3.618-1.003,4.893c0.722,0.789,1.968,0.293,2.934,0.426
								c-0.067,0.922-0.441,1.839-0.68,2.761c-2.342-0.203-5.557,0.9-6.871-1.568c-0.395-0.788-0.152-1.822,0-2.644
								c0.852-3.416,2.779-10.45,2.779-10.45h-1.579l0.676-2.796h1.641C85.629,6.583,86.418,3.8,86.418,3.8l4.663-0.741L91.077,3.06
								L91.077,3.06z M56.959,4.946c0.94,2.068,0.029,4.596-0.516,6.551l-4.797,0.819c0.239-1.844,1.268-3.635,0.94-5.66
								c-0.109-0.246-0.353-0.474-0.613-0.539c-1.314-0.155-2.166,1.21-2.737,2.154c-1.62,3.523-2.846,7.409-3.413,11.389
								c-0.02,1.102-0.348,2.645,0.831,3.114c0.592,0.091,1.028-0.111,1.423-0.491c1.049-1.349,2.145-4.742,2.145-4.742
								c1.662-0.246,3.257-0.581,4.902-0.917c-0.965,3.661-2.342,8.753-6.825,9.498c-2.276,0.267-4.727,0.203-6.259-1.572
								c-1.947-2.472-1.225-6.379-0.633-9.274c1.335-4.915,3.941-11.815,9.978-12.44c2.14-0.181,4.462,0.022,5.578,2.111H56.959
								L56.959,4.946z M37.805,10.133H19.763l1.99-7.478c4.361-1.65,9.147-0.685,12.434,2.223
								C36.814,7.204,37.721,9.866,37.805,10.133L37.805,10.133z M134.451,30.951H25.963c-5.851-0.263-11.606-3.373-14.23-9.097
								c-2.56-5.213-1.994-12.712,1.792-17.247c3.698-4.51,8.773-6.061,14.335-6.199h115.427l-8.832,32.539L134.451,30.951
								L134.451,30.951z M142.225-0.826H28.536C22.391-0.761,16.33,0.923,13.001,6.652c-2.909,4.626-2.737,11.94,0.265,16.441
								c2.997,4.937,8.071,6.932,13.323,7.09h107.228l8.404-31.009L142.225-0.826L142.225-0.826L142.225-0.826z"/>
						</g>
						<g id="EE" transform="translate(731.856025, 0.000000)">
							<path id="Fill-1_5_" class="st0" d="M28.662,13.431c-9.788,0-17.376,7.951-17.376,17.25c0,8.238,5.378,12.674,5.378,12.674
								c0.532,0.468,0.398,0.712,0.019,1.095c0,0-5.397,4.909-5.397,12.5c0,10.406,8.327,17.433,17.376,17.433
								c10.119,0,17.315-8.226,17.315-17.311c0-7.819-5.182-12.434-5.182-12.434c-0.73-0.704-0.728-0.82,0-1.463
								c0,0,5.182-4.355,5.182-12.495C45.978,21.482,38.586,13.431,28.662,13.431 M24.795,22.379c0.494,0,0.929,0.255,1.181,0.64
								c0.252-0.385,0.688-0.64,1.183-0.64c0.569,0,1.058,0.335,1.282,0.819c0.225-0.483,0.713-0.819,1.281-0.819
								c0.567,0,1.057,0.335,1.282,0.817c0.225-0.483,0.715-0.817,1.282-0.817c0.78,0,1.412,0.631,1.412,1.412
								c0,0.78-0.632,1.413-1.412,1.413c-0.567,0-1.057-0.335-1.282-0.817c-0.225,0.482-0.715,0.817-1.282,0.817
								c-0.568,0-1.056-0.335-1.281-0.819c-0.224,0.483-0.713,0.819-1.282,0.819c-0.495,0-0.931-0.254-1.183-0.64
								c-0.101,0.154-0.228,0.286-0.379,0.39c0.369,0.255,0.611,0.68,0.611,1.162c0,0.479-0.239,0.903-0.603,1.158
								c0.365,0.255,0.603,0.679,0.603,1.159c0,0.479-0.239,0.903-0.603,1.158c0.111,0.078,0.21,0.173,0.295,0.28
								c0.259-0.325,0.657-0.534,1.105-0.534c0.518,0,0.97,0.28,1.216,0.696c0.245-0.416,0.699-0.696,1.218-0.696
								c0.511,0,0.96,0.273,1.208,0.68c0.247-0.407,0.696-0.68,1.208-0.68c0.781,0,1.414,0.632,1.414,1.412
								c0,0.78-0.633,1.414-1.414,1.414c-0.512,0-0.96-0.272-1.208-0.68c-0.247,0.408-0.696,0.68-1.208,0.68
								c-0.519,0-0.972-0.279-1.218-0.695c-0.246,0.415-0.698,0.695-1.216,0.695c-0.447,0-0.846-0.209-1.105-0.534
								c-0.087,0.109-0.189,0.203-0.303,0.282c0.369,0.254,0.611,0.68,0.611,1.162s-0.242,0.909-0.611,1.164
								c0.369,0.255,0.611,0.68,0.611,1.162s-0.242,0.907-0.611,1.162c0.15,0.103,0.277,0.233,0.377,0.385
								c0.252-0.387,0.689-0.644,1.185-0.644c0.569,0,1.058,0.335,1.282,0.819c0.225-0.483,0.713-0.819,1.281-0.819
								c0.567,0,1.057,0.335,1.282,0.817c0.225-0.483,0.715-0.817,1.282-0.817c0.78,0,1.412,0.633,1.412,1.414
								c0,0.78-0.632,1.411-1.412,1.411c-0.567,0-1.057-0.334-1.282-0.817c-0.225,0.483-0.715,0.817-1.282,0.817
								c-0.568,0-1.056-0.335-1.281-0.819c-0.224,0.484-0.713,0.819-1.282,0.819c-0.493,0-0.927-0.253-1.179-0.636
								c-0.252,0.387-0.689,0.644-1.185,0.644c-0.78,0-1.412-0.631-1.412-1.412c0-0.482,0.242-0.907,0.611-1.161
								c-0.369-0.255-0.611-0.68-0.611-1.162c0-0.483,0.242-0.907,0.611-1.162c-0.369-0.254-0.611-0.681-0.611-1.164
								c0-0.483,0.242-0.908,0.611-1.162c-0.369-0.255-0.611-0.68-0.611-1.162c0-0.479,0.239-0.903,0.604-1.158
								c-0.365-0.255-0.604-0.679-0.604-1.158c0-0.48,0.239-0.903,0.604-1.159c-0.365-0.255-0.604-0.679-0.604-1.158
								c0-0.483,0.242-0.907,0.611-1.162c-0.369-0.254-0.611-0.681-0.611-1.164C23.383,23.011,24.015,22.379,24.795,22.379
								 M24.795,48.686c0.494,0,0.929,0.254,1.181,0.64c0.252-0.385,0.688-0.64,1.183-0.64c0.569,0,1.058,0.335,1.282,0.819
								c0.225-0.483,0.713-0.819,1.281-0.819c0.567,0,1.057,0.334,1.282,0.817c0.225-0.483,0.715-0.817,1.282-0.817
								c0.78,0,1.412,0.633,1.412,1.413c0,0.78-0.632,1.412-1.412,1.412c-0.567,0-1.057-0.335-1.282-0.817
								c-0.225,0.483-0.715,0.817-1.282,0.817c-0.568,0-1.056-0.336-1.281-0.82c-0.224,0.484-0.713,0.82-1.282,0.82
								c-0.495,0-0.931-0.254-1.183-0.64c-0.101,0.153-0.228,0.287-0.377,0.391c0.368,0.254,0.609,0.68,0.609,1.161
								c0,0.48-0.24,0.903-0.606,1.159c0.366,0.255,0.606,0.678,0.606,1.158c0,0.48-0.24,0.903-0.606,1.159
								c0.113,0.078,0.212,0.173,0.297,0.279c0.259-0.324,0.657-0.533,1.105-0.533c0.518,0,0.97,0.279,1.216,0.695
								c0.245-0.416,0.699-0.695,1.218-0.695c0.511,0,0.96,0.272,1.208,0.68c0.247-0.408,0.696-0.68,1.208-0.68
								c0.781,0,1.414,0.633,1.414,1.414c0,0.78-0.633,1.411-1.414,1.411c-0.512,0-0.96-0.272-1.208-0.679
								c-0.247,0.407-0.696,0.679-1.208,0.679c-0.519,0-0.972-0.278-1.218-0.695c-0.246,0.416-0.698,0.695-1.216,0.695
								c-0.447,0-0.846-0.208-1.105-0.533c-0.087,0.109-0.188,0.204-0.303,0.284c0.369,0.255,0.611,0.68,0.611,1.162
								c0,0.482-0.241,0.907-0.609,1.162c0.368,0.254,0.609,0.68,0.609,1.161c0,0.483-0.242,0.908-0.611,1.162
								c0.15,0.103,0.277,0.235,0.377,0.387c0.252-0.387,0.689-0.644,1.185-0.644c0.569,0,1.058,0.335,1.282,0.82
								c0.225-0.483,0.713-0.82,1.281-0.82c0.567,0,1.057,0.335,1.282,0.817c0.225-0.483,0.715-0.817,1.282-0.817
								c0.78,0,1.412,0.632,1.412,1.412c0,0.78-0.632,1.414-1.412,1.414c-0.567,0-1.057-0.335-1.282-0.817
								c-0.225,0.482-0.715,0.817-1.282,0.817c-0.568,0-1.056-0.336-1.281-0.819c-0.224,0.484-0.713,0.819-1.282,0.819
								c-0.493,0-0.927-0.254-1.179-0.636c-0.252,0.387-0.689,0.643-1.185,0.643c-0.78,0-1.412-0.633-1.412-1.413
								c0-0.483,0.242-0.907,0.611-1.162c-0.369-0.254-0.611-0.68-0.611-1.162c0-0.481,0.242-0.907,0.61-1.161
								c-0.368-0.255-0.61-0.68-0.61-1.162c0-0.482,0.242-0.907,0.611-1.162c-0.369-0.254-0.611-0.68-0.611-1.161
								c0-0.48,0.24-0.905,0.606-1.16c-0.365-0.256-0.606-0.679-0.606-1.159c0-0.48,0.24-0.903,0.606-1.158
								c-0.365-0.255-0.606-0.679-0.606-1.159c0-0.481,0.242-0.907,0.61-1.161c-0.368-0.255-0.61-0.68-0.61-1.162
								C23.383,49.32,24.015,48.686,24.795,48.686"/>
						</g>
					</g>
				</g>
			</g>
		</g>
	</g>
</g>
</svg>
