<?xml version="1.0" encoding="UTF-8"?>
<svg width="784px" height="92px" viewBox="0 0 784 92" version="1.1" xmlns="http://www.w3.org/2000/svg" xmlns:xlink="http://www.w3.org/1999/xlink">
    <!-- Generator: Sketch 42 (36781) - http://www.bohemiancoding.com/sketch -->
    <title>Logos</title>
    <desc>Created with Sketch.</desc>
    <defs></defs>
    <g id="Page-1" stroke="none" stroke-width="1" fill="none" fill-rule="evenodd">
        <g id="logos" fill="#FFFFFF">
            <g id="Jamal-Benmiloud">
                <g id="Home">
                    <g id="Topics">
                        <g id="Logos" transform="translate(0.000000, 0.874118)">
                            <g id="Monster" transform="translate(0.000000, 24.587838)" fill-rule="nonzero">
                                <polygon id="Fill-1" points="20.58 0.4663 20.3683 0.5027 20.1778 0.5764 19.6909 0.959 18.9713 1.2507 17.4255 1.5246 17.0654 1.6338 16.727 1.7981 16.4301 1.9982 16.1549 2.2362 15.88 2.3086 15.6258 2.3086 15.3716 2.2171 15.1385 2.0897 15.0116 2.0897 14.8852 2.1084 14.7578 2.1443 14.6516 2.2171 14.5879 2.4182 14.4826 2.6007 14.3552 2.7645 14.1857 2.8919 13.9105 2.9838 13.6563 3.1298 13.4451 3.3118 13.2546 3.5302 13.3814 3.8223 13.3814 3.932 13.4025 4.0594 13.4662 4.169 13.5504 4.2418 13.6563 4.3151 13.7836 4.3328 13.9105 4.3328 14.0167 4.2964 14.4189 4.4243 14.5036 4.534 14.5879 4.6249 14.6942 4.6977 14.8215 4.7523 14.9484 4.771 15.0753 4.771 15.2021 4.7523 15.329 4.7164 15.7106 4.534 16.5575 5.1536 16.8538 5.4089 17.108 5.7192 17.1928 5.8653 17.2138 6.0291 17.2138 6.3398 17.2775 6.6497 17.4044 7.2148 17.4681 7.7981 17.4465 8.0538 17.3829 8.3091 17.2564 8.5461 17.0865 8.7463 16.9812 8.911 16.896 9.0748 16.896 9.1845 16.9175 9.2937 16.9596 9.4033 17.0018 9.4943 17.1928 9.75 17.4255 9.9871 17.6586 10.2059 17.8702 10.4612 17.976 10.6618 18.0186 10.771 18.0186 10.8802 17.9971 11.4463 17.9123 12.0118 17.8487 12.3763 17.8065 12.7225 17.785 13.0874 17.8065 13.4523 17.8702 13.8173 18.0186 14.1453 18.0818 14.3273 18.1029 14.5102 18.1029 14.6927 18.0603 14.8933 17.8487 15.6773 17.8065 15.9143 17.785 16.1514 17.8065 16.261 17.8487 16.3702 17.8913 16.4612 17.955 16.5527 18.2513 16.954 18.3576 17.1915 18.4418 17.4099 18.505 17.647 18.5476 17.9022 18.5687 18.1397 18.5687 18.3945 18.484 19.2709 18.4208 19.7076 18.315 20.1458 18.2724 20.5103 18.2513 20.8752 18.2513 21.2401 18.2939 21.6045 18.3576 21.9699 18.4418 22.3157 18.5476 22.6629 18.6961 23.0091 18.844 23.3736 18.9924 23.7567 19.0987 24.1398 19.1829 24.5411 19.204 24.8327 19.1619 25.1066 19.0987 25.3983 18.9713 25.6535 18.8229 26.0185 18.6961 26.4016 18.6113 26.7842 18.5687 27.1855 18.5476 27.6237 18.4629 28.0609 18.3576 28.4809 18.2302 28.9 17.9971 29.5383 17.7213 30.1771 17.4465 30.7786 17.0228 31.5813 16.9812 31.8001 17.0018 32.019 17.0654 32.2192 17.2775 32.6387 17.5528 33.04 17.6797 33.2411 17.785 33.4413 17.8702 33.6601 17.9123 33.8972 17.9334 34.2262 17.8913 34.9187 17.8276 35.2654 17.785 35.6116 17.7639 35.9583 17.7639 36.3228 17.8065 36.6699 17.8702 36.9065 18.0818 37.3811 18.1666 37.5995 18.2513 37.837 18.2939 38.0923 18.315 38.3293 18.336 38.5846 18.336 38.8212 18.2939 39.0769 18.1876 39.8977 18.124 40.7185 18.1455 41.2659 18.2302 41.8128 18.3576 42.3415 18.5261 42.8706 18.5476 42.9803 18.5261 43.1077 18.4418 43.3447 18.2939 43.5454 18.1029 43.8189 17.955 44.111 17.9334 44.2384 17.9334 44.3475 17.955 44.4754 18.0186 44.5851 18.2724 44.9136 18.5261 45.2594 18.7377 45.6243 18.9077 45.9897 19.0771 46.3905 19.1829 46.7918 19.2677 47.2113 19.3309 47.6126 19.3946 48.0685 19.3946 48.5062 19.2677 49.0895 19.1829 49.6733 19.0987 50.1843 19.0139 50.439 18.9077 50.6948 18.8229 50.8772 18.7803 51.0961 18.7593 51.2967 18.7803 51.5156 18.844 51.6798 18.9287 51.8259 19.1403 51.6612 19.3098 51.4787 19.9451 50.3481 20.0935 50.1115 20.2199 49.8558 20.3262 49.601 20.4109 49.327 20.4536 49.0536 20.4746 48.7615 20.4746 48.488 20.432 48.2146 20.432 47.6486 20.58 47.1931 20.7288 47.1021 20.7925 47.0475 20.8346 46.9561 20.8346 46.81 20.8136 46.6639 20.7073 46.1903 20.7073 46.0443 20.7499 45.9164 20.8562 45.6793 20.9194 45.4236 20.9615 44.9859 20.9826 44.6579 21.0247 44.3475 21.0884 44.02 21.1731 43.7092 21.2579 43.4726 21.3 43.2351 21.3426 42.9803 21.3211 42.7064 21.2579 42.4693 21.1305 42.2323 20.9404 41.9584 20.7925 41.6485 20.6652 41.3382 20.58 41.0102 20.5172 40.6816 20.4746 40.3536 20.4746 40.0073 20.5172 39.6784 20.6226 39.0223 20.6862 38.3475 20.6652 37.6905 20.5589 37.0344 20.7925 36.5785 21.0673 36.1585 21.0884 35.6485 21.0673 35.1193 21.0036 34.5906 20.8768 34.0796 20.8136 33.697 20.771 33.3139 20.771 32.9121 20.7925 32.5295 20.8346 32.2014 20.8346 31.8547 20.7925 31.5267 20.7288 31.1977 20.6652 30.8878 20.6441 30.578 20.7073 30.1039 20.8136 29.648 20.9826 29.1921 21.1937 28.7721 21.5121 28.1337 21.8084 27.4772 21.8721 27.0763 21.9348 26.6573 21.9564 26.4739 22.02 26.2919 22.0832 26.1281 22.1895 25.9821 22.6553 25.4347 23.0786 24.8509 23.1633 24.7049 23.2906 24.3773 23.3328 24.213 23.3538 24.0488 23.3538 23.8663 23.3328 23.7021 23.2906 23.5201 22.9306 22.4071 22.55 21.3129 22.4011 20.9116 22.2738 20.5103 22.2321 20.073 22.2532 19.6353 22.2953 19.1976 22.3801 18.7594 22.4863 18.3399 22.5711 17.9022 22.5921 17.465 22.5921 17.0273 22.6127 16.8994 22.6553 16.7715 22.8669 16.5709 23.227 16.261 23.2906 16.1701 23.3538 16.0599 23.3754 15.9507 23.3754 15.8415 23.2696 15.2396 23.1422 14.6194 22.9728 14.0174 22.8033 13.4337 22.7396 13.1971 22.7185 12.9414 22.7396 12.6861 22.7822 12.4309 22.9095 12.03 22.9938 11.6105 23.0149 11.3548 22.9512 11.1178 22.8248 10.8989 22.6343 10.7164 22.4227 10.5522 22.3375 10.4976 22.2953 10.4061 22.2738 10.3156 22.2738 10.2241 22.3164 10.0963 22.3801 9.9684 22.6127 9.5676 22.6553 9.4215 22.6553 9.2755 22.5921 9.0935 22.5074 8.9292 22.4011 8.6922 22.3164 8.4365 22.2953 8.2727 22.3375 8.1266 22.4648 7.8714 22.5711 7.6338 22.6553 7.4336 22.7611 7.2512 22.8669 7.0869 22.9938 6.9231 23.3964 6.4854 23.5233 6.3212 23.6291 6.1383 23.6713 5.9381 23.6923 5.7374 23.7139 5.5918 23.756 5.4271 23.8197 5.2997 23.9259 5.1723 24.307 4.8074 24.7092 4.4971 25.0903 4.4607 25.4287 4.3515 25.4709 4.169 25.4924 3.9871 25.3655 3.8587 25.2171 3.7491 24.6881 3.7127 24.4971 3.6945 24.307 3.6217 24.2012 3.5302 24.1375 3.4033 24.0949 3.0384 24.0949 2.8195 24.0528 2.6007 23.9681 2.4551 23.8197 2.3636 22.9728 1.9623 22.1474 1.5064 21.3637 1.0141"></polygon>
                                <polygon id="Fill-2" points="7.982 2.126 7.7494 2.2725 7.5373 2.455 7.3472 2.637 7.1356 2.8008 6.9657 2.8376 6.7966 2.8554 6.4998 3.0747 6.1609 3.2389 5.8013 3.3481 5.4413 3.4032 3.917 3.4578 3.5569 3.5124 3.1974 3.6034 2.858 3.7126 2.519 3.8773 2.2437 4.0229 1.9474 4.1507 1.3547 4.3327 1.1009 4.3514 0.8463 4.3327 0.6988 4.3327 0.5714 4.3696 0.4446 4.4242 0.3172 4.5152 0.1262 4.7163 -0.0002 4.9352 0.0209 5.0626 0.0846 5.1536 0.3383 5.1722 0.6136 5.1354 0.9099 5.0808 1.2278 5.0626 1.3762 5.0808 1.5036 5.1176 2.1173 5.3178 2.7522 5.4821 3.3875 5.6281 4.0228 5.7191 4.7639 5.9016 5.0176 6.0294 5.2297 6.1932 5.4198 6.4121 5.5471 6.6496 5.7171 7.05 5.7381 7.2693 5.6955 7.4699 5.5471 7.8899 5.526 7.9991 5.526 8.0906 5.5471 8.1998 5.5897 8.2908 5.7171 8.4364 5.8645 8.546 6.373 8.8563 6.5424 9.0388 6.6061 9.1662 6.6482 9.2936 6.754 9.6585 6.8809 10.0416 6.9657 10.4434 6.9446 10.6618 6.923 10.8624 6.8383 11.0444 6.7966 11.2091 6.7966 11.5736 6.923 12.1755 6.902 12.4854 6.8172 12.778 6.6272 13.2334 6.4572 13.7075 5.8645 16.3888 5.8224 16.9362 5.8645 17.1364 5.9282 17.337 6.0129 17.5372 6.1187 17.7197 6.4572 18.2124 6.7751 18.7234 6.9446 19.1242 7.0504 19.562 7.4951 20.9847 7.8973 22.4252 7.961 22.8998 7.9394 23.3553 7.9394 23.848 7.961 24.0846 8.0246 24.3226 8.0457 24.4682 8.0457 24.6138 8.0246 24.7598 7.982 24.8872 7.7915 25.4533 7.7494 25.6353 7.7278 25.8177 7.7915 25.9824 7.8758 26.1094 8.0668 26.3282 8.1941 26.5835 8.2784 26.8574 8.321 27.1308 8.4053 28.2979 8.5326 29.0272 8.5747 29.3558 8.5532 29.6843 8.5115 30.031 8.4479 30.3408 8.321 30.6693 8.1941 30.961 8.0246 31.2531 7.8341 31.5266 7.601 31.8728 7.4104 32.2559 7.3046 32.6754 7.2409 33.0763 7.3046 33.2592 7.4319 33.4235 7.8758 33.7879 8.0246 33.9335 8.1304 34.0982 8.173 34.3171 8.152 34.5354 8.0031 35.0646 7.961 35.1925 7.961 35.3199 7.982 35.4477 8.0246 35.5747 8.173 35.849 8.3421 36.1225 8.4479 36.3227 8.5115 36.5238 8.5115 36.7063 8.4479 36.87 8.321 37.1253 8.2573 37.3992 8.2573 37.6909 8.321 37.9643 8.5532 38.6209 8.8505 39.241 9.0621 39.934 9.2311 40.6451 9.358 41.375 9.4216 42.0861 9.4853 42.8523 9.6127 43.5999 9.7821 44.3479 9.9937 45.0955 10.2264 45.606 10.438 45.8435 10.608 46.263 10.7133 46.6279 10.6716 47.0106 10.6501 47.3937 10.8407 47.9956 11.2428 48.3055 11.1791 47.9956 11.1155 47.5761 11.2639 47.2476 11.497 46.8099 11.4334 46.5183 11.2002 46.2994 11.1155 46.0992 10.9886 45.9163 10.8407 45.2966 10.8407 45.0773 10.8196 44.8402 10.777 44.6214 10.7133 44.4025 10.629 43.9653 10.629 43.5276 10.7133 42.9615 10.7559 42.3964 10.777 41.8309 10.7559 41.2658 10.7133 40.4263 10.7133 39.5873 10.7981 38.7301 10.9249 37.9097 11.0518 37.29 11.0729 36.9797 11.0729 36.6512 11.0518 36.3409 11.0101 36.0315 10.946 35.7216 10.8407 35.4291 10.7559 35.1379 10.6716 34.8276 10.608 34.5173 10.5864 34.2074 10.5864 33.5872 10.629 33.2774 10.6922 32.9853 10.9886 32.1099 11.5607 29.9218 11.7718 29.2648 11.9413 28.59 11.9629 28.4076 11.9629 28.2069 11.9413 28.0244 11.8776 27.8425 11.7929 27.6782 11.6876 27.5321 11.5392 27.3861 11.3908 27.2764 11.2854 27.1672 11.2217 27.0576 11.2002 26.8756 11.2428 26.7118 11.4123 26.3469 11.5392 26.128 11.6028 25.8728 11.6244 25.708 11.5607 25.5256 11.4544 25.3436 11.3908 25.1252 11.3065 24.687 11.3065 24.4682 11.3276 24.2493 11.3908 24.03 11.4544 23.8298 11.6454 23.3917 11.8355 22.9726 12.0687 22.5526 12.3018 22.1523 12.3439 22.0426 12.3865 21.9147 12.3865 21.7874 12.3655 21.6777 12.2803 21.422 12.1529 21.2036 11.6454 20.4924 11.5181 20.31 11.4334 20.128 11.3702 19.9264 11.3276 19.7262 11.2854 19.471 11.2002 19.1975 10.9886 18.687 10.7349 18.1756 10.629 17.939 10.5654 17.6655 10.5443 17.4098 10.5654 17.1364 10.5864 16.8993 10.5864 16.6623 10.5017 16.0239 10.3744 15.4037 10.3107 15.0757 10.2901 14.7654 10.3322 14.4551 10.3954 14.1452 10.608 13.7075 10.8617 13.288 11.0518 12.9418 11.2217 12.595 11.3276 12.2301 11.3908 11.847 11.1791 11.7014 10.7559 11.5736 10.6501 11.2273 10.608 10.68 10.608 10.1144 10.629 9.5675 10.6716 9.0024 10.7981 8.6375 10.9249 8.491 11.0729 8.364 11.4544 8.0906 11.8566 7.8713 12.0687 7.7434 12.2592 7.5791 12.3439 7.4517 12.3655 7.3062 12.3655 7.0686 12.3439 6.8498 12.3018 6.5586 12.3018 6.2665 12.3439 6.084 12.4076 5.938 12.5134 5.7924 12.6614 5.6827 12.6188 5.5371 12.5766 5.4088 12.2803 4.9898 12.2592 4.8801 12.3229 4.7709 12.3655 4.7163 12.3865 4.6617 12.3865 4.5889 12.3439 4.5339 12.2166 4.1144 12.0261 3.5306 11.8992 3.2753 11.7929 3.1657 11.6665 3.0747 9.5064 3.0387 9.1468 2.9109 8.7868 2.7098 8.4689 2.4727 8.2147 2.1815 8.1094 2.126"></polygon>
                                <polygon id="Fill-3" points="30.7433 2.1995 30.447 2.4184 30.1506 2.4911 29.7906 2.6372 29.4311 2.8556 29.3458 3.0749 29.2405 3.2756 29.1132 3.4758 28.9648 3.6582 28.6047 3.9685 28.3936 4.0959 28.1815 4.2051 27.5888 4.4426 26.9957 4.662 26.3819 4.8257 25.7471 4.9531 25.556 4.99 25.344 5.0623 25.1539 5.1538 24.9844 5.263 24.836 5.3908 24.6881 5.5369 24.5607 5.7012 24.476 5.8836 24.4123 6.1384 24.5181 6.2117 24.6244 6.2667 25.5134 6.2667 25.8313 6.3395 25.9376 6.3764 26.0429 6.4487 26.2971 6.6312 26.5724 6.7586 26.8903 6.85 27.2073 6.8678 28.4568 6.8864 28.8168 6.9046 29.1768 7.0143 29.4943 7.1603 29.7906 7.3792 30.0022 7.634 30.1506 7.9438 30.2354 8.2728 30.2775 8.6008 30.2775 9.0204 30.2564 9.4581 30.2143 9.8776 30.1296 10.2971 30.1296 10.4795 30.1506 10.662 30.299 11.1902 30.299 11.3731 30.2354 11.5738 30.1506 11.7558 30.0874 11.9569 30.0448 12.1576 30.0448 12.4856 30.1296 12.7045 30.299 12.8869 30.3412 12.9779 30.3622 13.0871 30.3622 13.1968 30.2775 13.3792 30.1722 13.5617 29.4732 14.3274 29.2405 14.6196 29.1979 14.7292 29.2194 14.8566 29.3037 14.9845 29.4095 15.0937 29.6843 15.404 29.7485 15.5132 29.7906 15.6228 29.8121 15.9509 29.8121 16.2794 29.7695 16.6256 29.6843 16.9359 29.6001 17.264 29.5579 17.5738 29.5153 17.9024 29.4943 18.2122 29.5579 18.6322 29.6633 19.033 29.8121 19.4161 30.0233 19.781 30.4044 20.4558 30.7649 21.1306 30.8281 21.3312 30.8707 21.5496 30.8707 21.7507 30.8281 21.9696 30.5106 22.9728 30.447 23.1917 30.4259 23.4101 30.4044 23.6476 30.4259 23.8665 30.447 24.103 30.4891 24.3224 30.5528 24.5412 30.6375 24.7414 30.8496 25.2342 31.0191 25.7265 31.1455 26.2193 31.2302 26.7484 31.2939 27.4414 31.2728 28.1521 31.2091 28.8637 31.0823 29.5567 31.0406 29.9575 31.0406 30.7419 31.0823 31.1432 31.1244 31.5268 31.1244 31.9276 31.1033 32.3285 31.0406 32.7298 30.8707 33.1862 30.659 33.6421 30.5317 33.8969 30.447 34.1708 30.4044 34.4629 30.4044 34.7545 30.468 35.083 30.7223 35.7396 30.7649 36.1041 30.7433 36.2865 30.7223 36.4508 30.6801 36.6332 30.6164 36.7975 30.299 37.4358 29.9605 38.056 29.8753 38.2567 29.8543 38.4932 29.8753 38.7121 29.9179 38.931 30.1085 39.3869 30.3201 39.8246 30.4044 40.0621 30.468 40.2987 30.5106 40.5544 30.5317 40.7914 30.5106 40.9734 30.468 41.1377 30.299 42.0864 30.299 42.4144 30.2564 42.7425 30.2564 42.9067 30.2354 43.0714 30.2564 43.2352 30.299 43.3813 30.4044 43.9286 30.4891 44.4756 30.5528 45.0224 30.5743 45.5698 30.7649 45.3692 30.9554 45.2049 31.0823 44.9315 31.2728 44.6944 31.1244 44.4392 31.0406 44.1834 31.0191 43.8923 31.0406 43.6183 31.2939 42.9613 31.5907 42.3052 31.9507 41.6851 32.3313 41.0831 32.5219 40.4443 32.7129 40.1895 32.8608 39.9338 32.9877 39.6426 33.0724 39.3505 32.7129 38.1647 32.6703 37.8367 32.6703 37.1801 32.6918 36.8521 32.7555 36.524 32.8393 36.195 32.924 35.8852 33.0514 35.5749 33.094 35.3378 33.094 35.1012 33.0514 34.8642 32.9877 34.6449 32.6071 33.6785 32.5645 33.5324 32.5434 33.3868 32.5434 33.2412 32.5856 33.0947 32.7344 32.7485 32.9451 32.4199 33.1993 32.0191 33.4114 31.5996 33.454 31.3621 33.4751 31.1068 33.4329 30.852 33.3693 30.5963 32.8819 29.3924 32.7972 29.1007 32.7761 28.8086 32.7972 28.4988 32.8608 28.2067 33.0514 27.9878 33.3903 27.4773 33.5383 27.2039 33.6862 26.9122 33.7925 26.6388 33.9194 26.2193 33.983 25.7997 34.0467 25.453 34.1104 25.0886 34.1104 24.705 34.0888 24.3406 34.0252 23.9939 33.9404 23.6289 33.8135 23.2827 33.6445 22.9542 32.9666 21.915 32.8182 21.6411 32.7129 21.3494 32.6918 21.0391 32.6918 20.7292 32.7761 20.3102 32.903 19.8902 33.0303 19.4343 33.1576 18.9602 33.2845 18.012 33.2419 17.9024 33.1576 17.8114 32.8608 17.5738 32.7129 17.4464 32.6071 17.3004 32.6282 16.8813 32.6918 16.3704 32.7344 15.8594 32.7129 15.3494 32.6703 14.8202 32.6492 14.6378 32.6492 14.4553 32.7129 14.2 32.7972 13.963 32.903 13.7259 33.263 13.1058 33.4329 12.6863 33.6862 11.6466 33.983 10.6256 34.0678 10.4245 34.1736 10.2607 34.6179 9.7684 34.7241 9.6405 34.7878 9.4945 34.8089 9.3302 34.8089 8.9476 34.8515 8.7282 34.9142 8.5276 35.0205 8.3456 35.5284 7.4515 35.4016 7.2877 35.2532 7.1235 35.1268 7.0143 35.0205 6.8678 35.042 6.6494 35.0842 6.4305 35.1689 6.0656 35.1904 5.7012 35.1904 5.5915 35.1689 5.4818 35.1052 5.3726 35.042 5.2812 34.9142 5.172 34.7667 5.081 34.5547 4.9713 34.3641 4.8257 34.322 4.6979 34.322 4.5518 34.4278 4.333 34.491 4.1505 34.5336 3.9685 34.3856 3.9139 34.2794 3.8589 34.1525 3.7679 34.0467 3.6582 33.8978 3.4576 33.6019 3.0199 33.5172 2.9111 33.4329 2.8374 33.3267 2.7828 33.1993 2.7464 32.6492 2.6549 32.1193 2.5275 31.8444 2.4366 31.5907 2.2905 31.3786 2.1085 31.2091 1.8892"></polygon>
                            </g>
                            <g id="Red-Bull" transform="translate(79.136150, 38.114865)" fill-rule="nonzero">
                                <polygon id="Fill-1_1_" points="91.3789 24.7027 96.5969 24.7027 96.5969 0.0394 91.3789 0.0394"></polygon>
                                <polygon id="Fill-2_1_" points="99.4209 24.7027 104.6399 24.7027 104.6399 0.0394 99.4209 0.0394"></polygon>
                                <path d="M44.9633,11.1967 C43.7469,9.9442 42.0995,9.1993 40.2948,9.1993 C36.4107,9.1993 33.2333,12.7223 33.2333,17.1075 C33.2333,21.4529 36.4107,25.0157 40.2948,25.0157 C42.0995,25.0157 43.7469,24.2718 44.9633,23.0193 L44.9633,24.6244 L50.3376,24.6244 L50.3376,0.0009 L44.9633,0.0009 L44.9633,11.1967 Z M41.8645,20.5134 C40.1763,20.5134 38.8036,18.9868 38.8036,17.1463 C38.8036,15.2681 40.1763,13.7425 41.8645,13.7425 C43.5517,13.7425 44.9244,15.2681 44.9244,17.1463 C44.9244,18.9867 43.5518,20.5134 41.8645,20.5134 L41.8645,20.5134 Z" id="Fill-3_1_"></path>
                                <path d="M69.6029,11.7457 C74.2316,6.851 70.7805,1.2133 64.6208,1.2133 L61.2453,1.2133 L55.6749,1.2133 L55.6749,24.624 L64.6208,24.624 C74.5471,24.7035 76.2334,14.4076 69.6029,11.7457 M64.581,19.9251 L61.2453,19.9251 L61.2453,5.9501 L64.6208,5.9501 C66.5031,5.9501 66.4255,10.1396 64.4635,10.1009 L62.1491,10.1009 L62.1491,14.6798 L64.4635,14.6798 C68.7797,14.6797 68.9758,19.9251 64.581,19.9251" id="Fill-5"></path>
                                <path d="M24.2091,9.0424 C19.7367,9.0424 16.1263,12.6836 16.1263,17.1075 C16.1263,21.5701 19.7367,25.2114 24.2091,25.2114 C27.701,25.2114 30.4862,23.8417 31.5454,21.1004 L27.4652,18.947 C26.1702,21.6476 21.6181,21.0239 21.9326,18.5964 L32.0172,18.4772 C32.0172,18.4772 33.154,9.0424 24.2091,9.0424 L24.2091,9.0424 Z M21.8161,15.268 C22.0122,13.9748 22.7558,12.92 24.3654,12.92 C25.9352,12.9577 26.4837,13.8974 26.7186,15.268 L21.8161,15.268 Z" id="Fill-7"></path>
                                <path d="M9.7317,1.3311 L0.0004,1.3311 L0.0004,24.585 L5.6106,24.585 L5.6106,5.8713 L8.4356,5.8713 C11.2596,5.8713 11.1432,11.1583 8.5531,11.1583 L6.2387,11.1583 L6.2387,17.1466 L11.4567,24.7409 L17.8523,24.6644 L11.1043,14.9554 C19.1862,12.2926 16.6757,1.3311 9.7317,1.3311" id="Fill-9"></path>
                                <path d="M84.1979,18.8691 C84.1979,21.1794 79.7653,21.1406 79.7653,18.8691 L79.7653,9.8267 L74.5473,9.8267 L74.5473,19.5347 C74.5473,23.6865 78.9023,25.4058 82.1195,25.4058 C85.2183,25.4058 89.417,23.763 89.417,19.5347 L89.417,9.8267 L84.198,9.8267 L84.198,18.8691 L84.1979,18.8691 Z" id="Fill-11"></path>
                            </g>
                            <g id="Lego" transform="translate(228.820031, 35.040541)" fill-rule="nonzero">
                                <path d="M62.5098,0 C61.5904,0 60.8469,0.7505 60.8469,1.6836 C60.8469,2.615 61.5904,3.3639 62.5098,3.3639 C63.4349,3.3639 64.1792,2.615 64.1792,1.6836 C64.1792,0.7505 63.4349,0 62.5098,0 L62.5098,0 Z M62.5098,0.3327 C63.2525,0.3327 63.8553,0.9363 63.8553,1.6835 C63.8553,2.4291 63.2525,3.0368 62.5098,3.0368 C61.772,3.0368 61.1765,2.4291 61.1765,1.6835 C61.1765,0.9363 61.772,0.3327 62.5098,0.3327 L62.5098,0.3327 Z M63.3605,2.5612 L63.1601,2.2103 C62.9859,1.904 62.9368,1.8553 62.7896,1.8057 L62.7896,1.7941 C63.0816,1.7586 63.2558,1.5679 63.2558,1.307 C63.2558,1.0296 63.0816,0.8182 62.711,0.8182 L61.8497,0.8182 L61.8497,2.5612 L62.2063,2.5612 L62.2063,1.847 L62.2717,1.847 C62.4247,1.847 62.486,1.8643 62.5547,1.9345 C62.6242,2.0039 62.7289,2.1533 62.7894,2.278 L62.9285,2.5612 L63.3605,2.5612 Z M62.2063,1.568 L62.2063,1.0916 L62.5286,1.0916 C62.7642,1.0916 62.8844,1.175 62.8844,1.3294 C62.8844,1.4516 62.8067,1.568 62.567,1.568 L62.2063,1.568 Z" id="Fill-1_2_"></path>
                                <path d="M53.9006,9.6283 C53.8303,11.4217 51.2251,18.5951 50.2992,20.178 C49.8984,20.865 49.4469,21.4322 48.6322,21.4322 C47.9222,21.4305 47.604,20.9219 47.5852,20.3398 C47.5345,18.7223 50.4758,10.6059 51.4835,9.2865 C51.9317,8.5896 52.429,8.4773 52.9992,8.4848 C53.8352,8.4963 53.921,9.104 53.9006,9.6283 M58.6455,12.557 C58.0541,15.5286 56.7233,19.046 55.2797,21.6683 C52.9232,25.9453 50.0604,26.5431 47.5624,26.5134 C45.0644,26.4837 42.2466,25.5507 42.2261,21.6601 C42.2114,18.8685 43.4048,14.9226 44.4174,12.3399 C46.1842,7.6542 47.9894,3.833 53.6953,3.9015 C60.3501,3.9815 59.1632,9.9553 58.6455,12.557 M37.5139,8.3873 C36.5512,8.3873 35.9222,9.0041 35.4535,9.6671 C34.4221,11.1294 32.1866,16.99 31.8398,19.3969 C31.601,21.0466 32.3068,21.3835 33.0765,21.3835 C34.3132,21.3835 35.6996,20.0624 36.1724,17.8818 C36.1724,17.8818 33.8184,17.824 34.4686,15.7161 C35.0992,13.6709 36.2951,13.2275 38.2778,13.1466 C42.1843,12.9839 41.7991,15.9002 41.4858,17.4517 C40.4707,22.4933 36.9151,26.5449 31.8864,26.5449 C28.442,26.5449 26.3047,24.6227 26.3047,21.0781 C26.3047,18.5524 27.5463,14.5875 28.5303,12.2665 C30.6242,7.3306 32.8204,3.8727 38.4152,3.8727 C41.772,3.8727 44.4205,5.0906 44.0328,8.2661 C43.7473,10.5962 42.5924,11.9635 40.4936,12.1278 C39.9063,12.1749 37.5048,12.1138 38.3023,9.82 C38.5805,9.0173 38.695,8.3873 37.5139,8.3873 M20.0099,17.1238 C19.7792,17.7513 19.3425,19.0699 18.9916,20.467 C20.1334,20.1797 20.9898,19.9782 22.4589,20.0137 C24.1308,20.0542 25.1998,20.7552 25.1998,22.1539 C25.1998,25.5359 21.4945,26.53 18.9237,26.53 C16.1002,26.53 13.6201,24.9075 13.6201,21.7923 C13.6201,18.1387 15.5823,12.6009 17.4235,8.9118 C19.6843,4.3797 21.995,3.7769 25.9727,3.7769 C27.7223,3.7769 29.7352,4.5316 29.7352,6.197 C29.7352,8.5089 27.7967,9.3882 25.8753,9.4997 C25.0541,9.5459 23.792,9.5922 23.0346,9.5393 C23.0346,9.5393 22.3958,10.5235 21.7153,12.2756 C25.2734,11.7703 26.7841,12.5844 26.1837,14.6643 C25.3723,17.4706 22.9602,17.6563 20.0099,17.1238 M8.674,20.3695 C12.1535,19.7577 13.0312,21.0292 12.9208,22.2066 C12.5936,25.7273 9.3906,26.5158 6.6128,26.4489 C4.5966,26.4018 2.7848,25.4696 2.7341,23.1057 C2.6457,18.9733 6.8213,9.4128 8.786,6.243 C9.6947,4.7386 10.8006,3.9972 12.5641,3.9972 C14.236,3.9972 14.6499,4.8617 14.6253,5.8987 C14.5599,8.6672 10.1291,17.0817 8.674,20.3695 M53.4393,1.805 C49.8444,1.805 47.362,3.2433 45.6795,5.253 C45.3949,4.6519 45.1797,4.3877 44.8763,4.0401 C43.5005,2.4697 41.2863,1.7356 38.3164,1.7356 C35.4152,1.7356 32.9965,2.6504 31.3172,4.0921 C30.4453,2.6604 28.3669,1.7117 25.8599,1.7117 C22.584,1.7117 19.0153,2.1799 16.8985,5.6238 C16.8478,4.3828 16.7357,3.728 16.047,2.9899 C15.207,2.0924 13.8492,1.8595 12.5257,1.8595 C10.1144,1.8595 8.301,2.9213 6.9964,5.0854 C5.102,8.1388 0.5117,18.1848 0.6148,23.0505 C0.6827,26.193 2.7709,28.4595 6.5097,28.5478 C9.4298,28.6172 11.7208,27.8303 13.1792,26.3441 C14.4871,27.7783 16.4821,28.6205 18.8696,28.6205 C21.5279,28.6205 24.2042,27.8138 25.7837,26.0535 C27.1145,27.7049 29.2093,28.6635 31.9027,28.6511 C35.4231,28.6338 38.5158,26.9486 40.5353,24.365 C41.6444,27.4101 44.4557,28.6205 47.5255,28.6205 C54.2539,28.6205 57.2091,23.9505 59.6712,16.5656 C60.2249,14.9019 60.9652,12.1243 61.0879,9.7918 C61.2924,5.9103 59.6663,1.805 53.4393,1.805" id="Fill-4"></path>
                            </g>
                            <g id="Xiaomi" transform="translate(341.402191, 39.736486)">
                                <polygon id="Xaomi-path" points="8.3398 19.1916 13.0803 19.1916 13.0803 7.5487 8.3398 7.5487"></polygon>
                                <path d="M16.8126,19.3148 L16.7288,7.0054 C16.7171,5.2874 15.5666,4.1733 13.8915,4.1499 C11.7328,4.1186 6.2611,4.1831 4.7985,4.2027 L4.7985,19.348 L0.1633,19.348 L0.1633,0.1353 L4.7985,0.1881 L16.3387,0.1881 C19.2715,0.1881 21.2586,2.8091 21.2586,5.5551 C21.2625,9.9371 21.3113,19.2952 21.3113,19.2952 L16.8126,19.3148 Z" id="Xaomi-path"></path>
                                <polygon id="Xaomi-path" points="24.8526 19.348 29.4898 19.348 29.4898 0.1353 24.8526 0.1353 24.8526 19.348"></polygon>
                            </g>
                            <g id="Huel" transform="translate(418.992175, 30.736486)" fill-rule="nonzero">
                                <polygon id="Fill-10" points="84.9017 0.2632 86.3134 4.4186 86.329 4.4186 87.6626 0.2632 89.5274 0.2632 89.5274 6.3057 88.2872 6.3057 88.2872 2.0238 88.2704 2.0238 86.7936 6.3057 85.7724 6.3057 84.295 2.067 84.2789 2.067 84.2789 6.3057 83.0379 6.3057 83.0379 0.2632"></polygon>
                                <polygon id="Fill-9_1_" points="77.7982 1.3813 77.7982 0.2632 82.7346 0.2632 82.7346 1.3813 80.9297 1.3813 80.9297 6.3057 79.6042 6.3057 79.6042 1.3813"></polygon>
                                <polygon id="Fill-7_1_" points="68.4893 28.2436 74.0412 28.2436 74.0412 0.2406 68.4893 0.2406"></polygon>
                                <path d="M59.906,12.714 C59.2423,11.9807 58.2309,11.6149 56.8754,11.6149 C55.9889,11.6149 55.2534,11.7649 54.6658,12.0655 C54.0794,12.3675 53.6102,12.7396 53.2582,13.1839 C52.9076,13.628 52.6574,14.0993 52.516,14.5961 C52.3724,15.0932 52.2867,15.5372 52.2617,15.9288 L61.2943,15.9288 C61.0321,14.5163 60.5704,13.4458 59.906,12.714 M53.6292,23.3802 C54.4641,24.1903 55.6628,24.5961 57.2264,24.5961 C58.348,24.5961 59.3126,24.3148 60.1203,23.7525 C60.9278,23.1902 61.4239,22.5956 61.6066,21.968 L66.4945,21.968 C65.7134,24.3996 64.5145,26.1378 62.8968,27.1828 C61.2815,28.2294 59.3252,28.7518 57.0328,28.7518 C55.4413,28.7518 54.0082,28.498 52.7308,27.9882 C51.4531,27.4786 50.3707,26.7516 49.4851,25.8107 C48.5976,24.8696 47.9135,23.7464 47.4323,22.4394 C46.9497,21.1325 46.7091,19.6928 46.7091,18.1239 C46.7091,16.6094 46.9576,15.1972 47.4516,13.89 C47.946,12.5831 48.6503,11.4519 49.563,10.498 C50.4759,9.5427 51.5632,8.7915 52.8296,8.2422 C54.0922,7.6941 55.494,7.4193 57.0329,7.4193 C58.7524,7.4193 60.251,7.7516 61.5284,8.4177 C62.8051,9.0841 63.8552,9.9818 64.6764,11.105 C65.4967,12.2299 66.0912,13.5113 66.4557,14.949 C66.8207,16.3872 66.9503,17.889 66.8469,19.4579 L52.2617,19.4579 C52.3398,21.2617 52.7955,22.5687 53.6292,23.3802" id="Fill-4_1_"></path>
                                <path d="M39.9833,28.2437 L39.9833,25.4191 L39.867,25.4191 C39.163,26.5965 38.2517,27.4463 37.1294,27.9687 C36.0088,28.4913 34.8607,28.7516 33.6885,28.7516 C32.2029,28.7516 30.9833,28.557 30.0307,28.164 C29.0805,27.7724 28.3316,27.2178 27.7829,26.4975 C27.2357,25.7801 26.8524,24.903 26.6303,23.8709 C26.4089,22.8371 26.2973,21.6931 26.2973,20.4389 L26.2973,7.9672 L31.8506,7.9672 L31.8506,19.418 C31.8506,21.0924 32.1111,22.3401 32.6322,23.1645 C33.154,23.9874 34.0794,24.3997 35.4097,24.3997 C36.9205,24.3997 38.015,23.9491 38.6938,23.0463 C39.3724,22.1454 39.71,20.661 39.71,18.5952 L39.71,7.9672 L45.2635,7.9672 L45.2635,28.2437 L39.9833,28.2437 L39.9833,28.2437 Z" id="Fill-2_2_"></path>
                                <polygon id="Fill-1_3_" points="17.4408 0.2407 17.4408 10.9869 6.1388 10.9869 6.1388 0.2407 0 0.2407 0 28.2437 6.1388 28.2437 6.1388 16.1634 17.4408 16.1634 17.4408 28.2437 23.5795 28.2437 23.5795 0.2407"></polygon>
                            </g>
                            <g id="Castrol" transform="translate(549.658842, 28.891892)" fill-rule="nonzero">
                                <path d="M14.4573,16.3991 L15.284,16.3991 C15.5612,16.3991 15.805,16.1965 15.83,15.9468 L15.8346,15.8952 C15.8549,15.641 15.6534,15.4429 15.3724,15.4429 L14.7464,15.4429 L15.0068,14.6325 L15.8675,14.6325 C16.1447,14.6325 16.3923,14.4306 16.4135,14.1811 L16.4173,14.1288 C16.4422,13.8837 16.2497,13.6683 15.9681,13.6683 L28.2043,13.6637 C28.7713,16.2868 28.3137,18.2383 28.3137,18.2383 L14.7554,18.2383 C15.0317,18.2383 15.2802,18.0357 15.3051,17.7816 L15.3097,17.73 C15.3346,17.4758 15.1285,17.2777 14.8475,17.2777 L14.1672,17.2777 L14.4488,16.4037 L14.4573,16.3991 Z M16.1153,16.5842 C15.9598,16.5842 15.8216,16.6875 15.8088,16.8209 L15.805,16.8466 C15.7922,16.9802 15.91,17.0841 16.0648,17.0841 L16.85,17.0841 C17.0055,17.0841 17.1437,16.9802 17.1565,16.8466 L17.1603,16.8209 C17.1731,16.6873 17.0553,16.5842 16.8999,16.5842 L16.1153,16.5842 Z M16.665,14.7579 C16.5102,14.7579 16.3713,14.8612 16.3585,14.9908 L16.3547,15.0212 C16.3419,15.154 16.4597,15.2579 16.6145,15.2579 L17.396,15.2579 C17.5508,15.2579 17.6897,15.154 17.7025,15.0212 L17.7063,14.9908 C17.7191,14.861 17.6013,14.7579 17.4459,14.7579 L16.665,14.7579 Z M17.9621,15.7185 C17.8571,15.7185 17.765,15.8005 17.7568,15.8991 L17.7522,15.9211 C17.7438,16.0206 17.8194,16.1017 17.9244,16.1017 L18.4454,16.1017 C18.5497,16.1017 18.6425,16.0206 18.6507,15.9211 L18.6553,15.8991 C18.6637,15.8005 18.5881,15.7185 18.4824,15.7185 L17.9621,15.7185 L17.9621,15.7185 Z M17.4713,17.5273 C17.3663,17.5273 17.2779,17.6055 17.2651,17.7086 L17.2613,17.7299 C17.2529,17.8294 17.3277,17.9067 17.4335,17.9067 L17.9493,17.9067 C18.0543,17.9067 18.1427,17.8293 18.1555,17.7299 L18.1593,17.7086 C18.1677,17.6053 18.0921,17.5273 17.9917,17.5273 L17.4713,17.5273 Z M18.4823,13.9656 C18.3773,13.9656 18.2898,14.043 18.277,14.1416 L18.277,14.1636 C18.2686,14.2669 18.3442,14.3442 18.4492,14.3442 L18.9656,14.3442 C19.0706,14.3442 19.1627,14.2668 19.1709,14.1636 L19.1709,14.1416 C19.1793,14.043 19.1037,13.9656 18.9987,13.9656 L18.4823,13.9656 Z M19.1377,16.6836 C19.0327,16.6836 18.9406,16.7656 18.9315,16.8642 L18.9315,16.8862 C18.9231,16.9848 18.9987,17.0668 19.0999,17.0668 L19.6201,17.0668 C19.7251,17.0668 19.8172,16.9848 19.8263,16.8862 L19.8301,16.8642 C19.8385,16.7656 19.7629,16.6836 19.6579,16.6836 L19.1377,16.6836 Z M19.6413,14.8352 C19.5363,14.8352 19.4479,14.9172 19.4351,15.012 L19.4351,15.0377 C19.4267,15.1372 19.5023,15.219 19.6035,15.219 L20.12,15.219 C20.225,15.219 20.3171,15.1408 20.3253,15.0377 L20.3299,15.012 C20.3383,14.9172 20.2627,14.8352 20.1577,14.8352 L19.6413,14.8352 Z M20.7791,15.7405 C20.6735,15.7405 20.5857,15.8216 20.5775,15.9211 L20.573,15.9423 C20.5646,16.0418 20.6402,16.1236 20.7452,16.1236 L21.2662,16.1236 C21.3705,16.1236 21.4587,16.0416 21.4715,15.9423 L21.4761,15.921 C21.4845,15.8215 21.4089,15.7404 21.3039,15.7404 L20.7791,15.7404 L20.7791,15.7405 Z M20.2876,17.5494 C20.1826,17.5494 20.0905,17.6314 20.0823,17.73 L20.0823,17.752 C20.0739,17.8506 20.1495,17.9326 20.2499,17.9326 L20.7701,17.9326 C20.8751,17.9326 20.9635,17.8506 20.9763,17.752 L20.9809,17.73 C20.9884,17.6314 20.913,17.5494 20.8087,17.5494 L20.2876,17.5494 Z M21.3039,13.9869 C21.1983,13.9869 21.1061,14.0643 21.0977,14.1675 L21.0977,14.1941 C21.0893,14.2927 21.1649,14.3701 21.2699,14.3701 L21.7863,14.3701 C21.8913,14.3701 21.9797,14.2927 21.9916,14.1941 L21.9962,14.1675 C22.0046,14.0689 21.929,13.9869 21.824,13.9869 L21.3039,13.9869 Z M15.3386,13.6423 L14.5745,13.6423 C14.2973,13.6423 14.0543,13.8449 14.0248,14.0946 L14.021,14.1462 C13.9954,14.4004 14.2007,14.6029 14.4823,14.6029 L15.0109,14.6029 L15.3432,13.6422 L15.3386,13.6422 L15.3386,13.6423 Z M14.176,17.2735 L13.4662,17.2735 C13.1899,17.2735 12.946,17.4761 12.9211,17.7258 L12.9165,17.7774 C12.8916,18.0316 13.0969,18.2341 13.3785,18.2341 L13.9071,18.2341 L14.1797,17.2734 L14.176,17.2734 L14.176,17.2735 Z M14.7512,15.4341 L13.9825,15.4341 C13.7062,15.4341 13.4623,15.6367 13.4328,15.8864 L13.429,15.9381 C13.4034,16.1883 13.6094,16.3904 13.8903,16.3904 L14.4528,16.3904 L14.751,15.4297 L14.7512,15.4341 Z M8.6561,18.0187 C8.7655,18.0187 8.8614,17.911 8.8705,17.7729 L8.8743,17.7432 C8.8827,17.6096 8.7989,17.5019 8.6939,17.5019 L8.1441,17.5019 C8.0347,17.5019 7.9379,17.6096 7.9258,17.7432 L7.9212,17.7729 C7.9128,17.911 7.9922,18.0187 8.1016,18.0187 L8.6561,18.0187 L8.6561,18.0187 Z M9.697,14.3574 C9.8064,14.3574 9.9032,14.2497 9.9153,14.1116 L9.9199,14.0859 C9.9283,13.9485 9.8482,13.8408 9.7395,13.8408 L9.1891,13.8408 C9.0804,13.8408 8.9838,13.9485 8.9708,14.0859 L8.9708,14.1116 C8.9587,14.2497 9.0381,14.3574 9.1512,14.3574 L9.7016,14.3574 L9.697,14.3574 Z M9.1722,16.1708 C9.2816,16.1708 9.3784,16.0631 9.3905,15.9295 L9.3905,15.8991 C9.3989,15.7655 9.3195,15.654 9.2101,15.654 L8.6604,15.654 C8.551,15.654 8.4551,15.7655 8.4421,15.8991 L8.4421,15.9295 C8.4337,16.0631 8.5131,16.1708 8.6225,16.1708 L9.1722,16.1708 Z M10.1336,17.1098 C10.243,17.1098 10.3389,17.0021 10.3519,16.8685 L10.3565,16.8428 C10.3649,16.7092 10.2848,16.5977 10.1761,16.5977 L9.6257,16.5977 C9.517,16.5977 9.4204,16.7092 9.4074,16.8428 L9.4074,16.8685 C9.399,17.0021 9.4791,17.1098 9.5878,17.1098 L10.1382,17.1098 L10.1336,17.1098 Z M10.6502,15.2619 C10.7589,15.2619 10.8555,15.1542 10.8685,15.0206 L10.8723,14.9902 C10.8813,14.8566 10.8013,14.7489 10.6919,14.7489 L10.1422,14.7489 C10.0335,14.7489 9.9369,14.8566 9.9239,14.9902 L9.9239,15.0206 C9.9155,15.1542 9.9956,15.2619 10.1043,15.2619 L10.654,15.2619 L10.6502,15.2619 Z M11.1284,18.023 C11.2378,18.023 11.3346,17.9153 11.3467,17.7817 L11.3513,17.7513 C11.3597,17.6177 11.2796,17.51 11.1709,17.51 L10.6205,17.51 C10.5118,17.51 10.4152,17.6175 10.4022,17.7513 L10.4022,17.7817 C10.3938,17.9153 10.4739,18.023 10.5826,18.023 L11.133,18.023 L11.1284,18.023 L11.1284,18.023 Z M12.1697,14.3617 C12.2784,14.3617 12.375,14.2494 12.388,14.1157 L12.3926,14.0862 C12.401,13.9526 12.3209,13.8449 12.2114,13.8449 L11.6617,13.8449 C11.553,13.8449 11.4564,13.9526 11.4434,14.0862 L11.4396,14.1157 C11.4306,14.2495 11.515,14.3617 11.6193,14.3617 L12.1697,14.3617 Z M11.6491,16.1794 C11.7585,16.1794 11.8553,16.0717 11.8674,15.9336 L11.8674,15.9079 C11.8758,15.7705 11.7957,15.6628 11.687,15.6628 L11.1373,15.6628 C11.0279,15.6628 10.9311,15.7705 10.919,15.9079 L10.919,15.9336 C10.91,16.0717 10.99,16.1794 11.0994,16.1794 L11.6491,16.1794 Z M12.795,17.1615 C12.9588,17.1615 13.1053,17.0234 13.1227,16.8473 L13.1265,16.8079 C13.1393,16.6364 13.0178,16.4892 12.8493,16.4892 L12.018,16.4892 C11.8548,16.4892 11.7077,16.6364 11.691,16.8079 L11.6864,16.8473 C11.6736,17.0195 11.7958,17.1615 11.9636,17.1615 L12.795,17.1615 Z M13.3198,15.3221 C13.4836,15.3221 13.6301,15.1803 13.6475,15.0079 L13.6513,14.9691 C13.6641,14.7969 13.5426,14.6542 13.3741,14.6542 L12.5428,14.6542 C12.3796,14.6542 12.2325,14.7969 12.2158,14.9691 L12.2112,15.0079 C12.1984,15.1801 12.3206,15.3221 12.4884,15.3221 L13.3198,15.3221 Z M59.2882,10.5798 C60.4049,11.9972 60.0349,14.332 59.5947,15.9686 L56.7104,26.565 C55.5062,27.103 54.0413,27.1933 52.6605,27.439 C49.9899,27.7107 47.0143,27.5983 45.5285,25.0654 C44.7598,23.2907 45.0665,20.9089 46.2081,19.4056 C48.4875,16.6226 51.787,16.1749 55.0239,15.636 C55.2881,14.7793 55.6151,13.7497 55.2881,12.8278 C54.3057,11.5272 52.3577,12.1563 51.0018,12.2898 C50.234,12.4234 49.5619,12.6942 48.8364,12.8968 C48.8697,12.9181 49.516,9.9421 49.516,9.9292 C52.3791,8.848 56.8248,8.0854 59.2922,10.575 L59.2882,10.5798 Z M54.1924,18.6737 C52.7904,18.8974 51.0651,19.358 50.2549,20.8658 C49.8351,21.7832 49.6419,23.1794 50.4059,23.9845 C50.9722,24.549 51.9378,24.2515 52.6604,24.2515 L54.1879,18.6737 L54.1924,18.6737 Z M103.8166,11.2775 C105.1681,14.1289 104.01,17.5018 103.1788,20.2153 C102.213,22.9553 100.2862,26.0952 97.3565,27.0649 C95.3044,27.6462 92.7184,27.7364 90.9886,26.3713 C88.6511,24.1745 89.5193,20.194 90.3551,17.6354 C91.5344,14.0001 94.3552,9.486 98.4944,9.0164 C100.5926,8.9685 102.7377,9.2402 103.8129,11.2821 L103.8166,11.2775 Z M98.8296,12.1303 C98.4106,12.2426 98.0406,12.5097 97.7092,12.8975 C95.7446,16.0844 94.3636,20.4047 94.2549,23.5151 C94.2964,24.0106 94.5607,24.3164 95.0439,24.3209 C95.7491,24.3291 96.0512,23.9847 96.4664,23.5583 C98.2883,20.5474 99.6866,16.6404 99.8164,12.8237 C99.8376,12.2038 99.2916,12.0869 98.8342,12.1301 L98.8296,12.1301 L98.8296,12.1303 L98.8296,12.1303 Z M93.4233,9.4339 L91.6724,12.1951 C90.5941,12.0828 89.4397,12.1306 88.4741,12.4621 L84.5329,27.0558 L80.0247,27.0558 L84.4868,10.3041 C86.7452,9.2273 89.3266,8.7531 92.105,9.046 L93.4232,9.4292 L93.4232,9.4339 L93.4233,9.4339 Z" id="Fill-4_2_"></path>
                                <path d="M72.242,9.5501 C72.2715,9.5714 71.4614,12.2856 71.453,12.2856 C69.7277,12.1475 67.209,11.6778 66.1594,13.543 C65.4626,16.3687 69.4424,17.3338 69.8788,19.828 C70.4036,22.0073 69.8788,24.2987 68.1074,25.7161 C65.6143,27.9993 61.4751,27.5295 58.4362,26.7457 C58.4565,26.7541 59.1875,23.8721 59.1791,23.8721 C60.9926,24.234 64.1238,25.0399 65.4165,22.9768 C66.2939,20.4569 63.1832,19.5175 62.1132,17.6312 C60.933,16.0629 61.1687,13.6376 62.1132,12.0185 C64.3633,8.7831 68.7833,8.3998 72.242,9.5501 L72.242,9.5501 Z M8.5008,6.0008 C7.4724,9.4556 6.5528,12.9619 5.5667,16.4425 C5.3817,17.3812 5.2851,18.5101 5.9819,19.203 C6.5067,19.7464 7.1197,20.0604 7.8627,20.0824 L27.8726,20.0824 C26.9032,23.9417 23.6754,27.0685 20.1613,28.404 C16.2034,29.9072 11.4934,29.1149 8.345,26.5305 C4.4497,23.3208 2.6159,18.5746 3.7068,13.5045 C4.2987,10.6531 5.9569,7.8485 8.4967,6.0054 L8.5008,6.0008 Z M109.114,22.2098 C109.1352,22.7266 108.8286,23.3343 109.1766,23.7865 C109.8734,24.5012 111.015,24.1872 112.002,24.2516 C112.002,24.2948 111.4267,27.0598 111.4267,27.0598 C111.4267,27.0598 109.7649,27.021 108.8996,27.0552 C107.0612,27.1159 105.2686,27.0514 104.4971,25.1301 C103.9935,22.0972 105.4583,19.3837 106.0751,16.5535 C106.9737,12.9402 109.0092,5.6126 109.0092,5.6126 L113.7991,4.6482 L109.1179,22.205 L109.114,22.2098 Z M80.9102,4.6525 L79.7051,9.5498 L82.9246,9.5498 L82.224,12.346 L78.988,12.346 C78.988,12.346 77.7324,16.7872 77.1496,18.9277 C76.7004,20.5689 76.1672,22.5456 76.1461,23.821 C76.8678,24.6095 78.1144,24.1139 79.0802,24.2474 C79.013,25.1693 78.6392,26.0867 78.3999,27.0086 C76.0578,26.806 72.8428,27.9085 71.529,25.4403 C71.1341,24.6518 71.3773,23.6185 71.529,22.7959 C72.3806,19.3798 74.3075,12.3458 74.3075,12.3458 L72.7287,12.3458 L73.4045,9.5496 L75.046,9.5496 C75.462,8.1763 76.251,5.393 76.251,5.393 L80.9141,4.6524 L80.9102,4.6524 L80.9102,4.6525 Z M46.7918,6.5392 C47.7318,8.6068 46.8213,11.1351 46.2754,13.0906 L41.4779,13.9094 C41.7165,12.0656 42.7456,10.2741 42.4179,8.2496 C42.3085,8.0038 42.0653,7.7754 41.8049,7.7109 C40.4911,7.556 39.6386,8.9211 39.0679,9.8651 C37.4476,13.3882 36.2222,17.2739 35.6551,21.2537 C35.6348,22.3562 35.3071,23.8988 36.4864,24.3677 C37.0783,24.4588 37.5148,24.2562 37.9096,23.8768 C38.959,22.5283 40.0547,19.1344 40.0547,19.1344 C41.7165,18.8886 43.3119,18.5531 44.9571,18.217 C43.9921,21.8782 42.615,26.9696 38.1323,27.7146 C35.8566,27.9816 33.4058,27.9172 31.8731,26.1423 C29.9258,23.6703 30.6477,19.7631 31.2396,16.8685 C32.5746,11.9539 35.1808,5.0535 41.2173,4.4282 C43.3578,4.2476 45.6796,4.4502 46.7956,6.5392 L46.7918,6.5392 L46.7918,6.5392 Z M27.6379,11.7255 L9.5963,11.7255 L11.5858,4.2476 C15.9469,2.598 20.7324,3.5624 24.0198,6.4701 C26.6474,8.7965 27.5541,11.4584 27.6379,11.7255 L27.6379,11.7255 Z M124.2844,32.5436 L15.7964,32.5436 C9.9449,32.281 4.19,29.1708 1.5661,23.4465 C-0.9942,18.2336 -0.428,10.7346 3.3586,6.1993 C7.0568,1.6891 12.1314,0.1381 17.6937,0 L133.1206,0 L124.2882,32.539 L124.2846,32.5436 L124.2844,32.5436 Z M132.0582,0.7672 L18.3695,0.7672 C12.2243,0.8317 6.1629,2.5161 2.8338,8.2451 C-0.0754,12.8714 0.0968,20.1853 3.0988,24.6863 C6.0955,29.6232 11.1702,31.6179 16.4221,31.7766 L123.6502,31.7766 L132.0545,0.7674 L132.0581,0.7674 L132.0581,0.7672 L132.0582,0.7672 Z" id="Fill-1_4_"></path>
                            </g>
                            <g id="EE" transform="translate(731.856025, 0.000000)" fill-rule="nonzero">
                                <path d="M25.942,0 C11.3294,0 0.0002,11.8712 0.0002,25.753 C0.0002,38.0518 8.0295,44.6755 8.0295,44.6755 C8.8245,45.3747 8.6234,45.7378 8.058,46.3106 C8.058,46.3106 -1.77635684e-15,53.639 -1.77635684e-15,64.9731 C-1.77635684e-15,80.5091 12.4316,90.9999 25.9418,90.9999 C41.0486,90.9999 51.7927,78.7181 51.7927,65.1556 C51.7927,53.482 44.0556,46.5919 44.0556,46.5919 C42.9652,45.5414 42.9684,45.3674 44.0556,44.4082 C44.0556,44.4082 51.7927,37.9066 51.7927,25.7532 C51.7929,12.0206 40.758,0 25.942,0 M20.1678,13.36 C20.9056,13.36 21.5547,13.741 21.9316,14.3149 C22.3074,13.7398 22.9585,13.36 23.6975,13.36 C24.5465,13.36 25.2772,13.8608 25.6116,14.5825 C25.9472,13.8609 26.6755,13.36 27.5237,13.36 C28.3707,13.36 29.1022,13.8599 29.4378,14.5804 C29.7734,13.8599 30.5049,13.36 31.3519,13.36 C32.5164,13.36 33.4599,14.3023 33.4599,15.4674 C33.4599,16.6314 32.5166,17.5771 31.3519,17.5771 C30.5049,17.5771 29.7734,17.0772 29.4378,16.3578 C29.1022,17.0772 28.3707,17.5771 27.5237,17.5771 C26.6756,17.5771 25.9472,17.0763 25.6116,16.3546 C25.2771,17.0762 24.5465,17.5771 23.6975,17.5771 C22.9585,17.5771 22.3075,17.1972 21.9316,16.6222 C21.7813,16.8514 21.5906,17.0498 21.3653,17.2048 C21.9158,17.5858 22.2778,18.2193 22.2778,18.9398 C22.2778,19.6551 21.921,20.2875 21.3768,20.6685 C21.921,21.0495 22.2778,21.6819 22.2778,22.3981 C22.2778,23.1134 21.921,23.7458 21.3768,24.1268 C21.5431,24.2435 21.6902,24.3857 21.8173,24.5449 C22.2037,24.06 22.7988,23.7481 23.4668,23.7481 C24.2408,23.7481 24.9152,24.1662 25.2826,24.7869 C25.6489,24.1651 26.3255,23.7481 27.1004,23.7481 C27.8638,23.7481 28.5338,24.1556 28.9033,24.7635 C29.2728,24.1556 29.9419,23.7481 30.7062,23.7481 C31.8718,23.7481 32.8174,24.6915 32.8174,25.8555 C32.8174,27.0206 31.8719,27.9661 30.7062,27.9661 C29.9419,27.9661 29.2728,27.5597 28.9033,26.9507 C28.5338,27.5598 27.8635,27.9661 27.1004,27.9661 C26.3255,27.9661 25.6489,27.5491 25.2826,26.9283 C24.9151,27.548 24.2408,27.9661 23.4668,27.9661 C22.7988,27.9661 22.2038,27.6542 21.8173,27.1693 C21.688,27.3317 21.5357,27.4728 21.3653,27.5906 C21.9169,27.9705 22.2778,28.6051 22.2778,29.3256 C22.2778,30.0461 21.9167,30.6828 21.3653,31.0627 C21.9158,31.4437 22.2778,32.0772 22.2778,32.7977 C22.2778,33.5182 21.9167,34.1517 21.3653,34.5327 C21.5886,34.6865 21.7793,34.8808 21.9285,35.1069 C22.3043,34.5286 22.9565,34.1454 23.6975,34.1454 C24.5465,34.1454 25.2772,34.6462 25.6116,35.3679 C25.9472,34.6463 26.6755,34.1454 27.5237,34.1454 C28.3707,34.1454 29.1022,34.6453 29.4378,35.3658 C29.7734,34.6453 30.5049,34.1454 31.3519,34.1454 C32.5164,34.1454 33.4599,35.0908 33.4599,36.256 C33.4599,37.42 32.5166,38.3623 31.3519,38.3623 C30.5049,38.3623 29.7734,37.8635 29.4378,37.143 C29.1022,37.8635 28.3707,38.3623 27.5237,38.3623 C26.6756,38.3623 25.9472,37.8615 25.6116,37.1398 C25.2771,37.8624 24.5465,38.3623 23.6975,38.3623 C22.9617,38.3623 22.3138,37.9845 21.9368,37.4126 C21.561,37.9909 20.9088,38.3739 20.1678,38.3739 C19.0033,38.3739 18.0598,37.4316 18.0598,36.2665 C18.0598,35.5471 18.4218,34.9125 18.9723,34.5326 C18.4218,34.1516 18.0598,33.5181 18.0598,32.7976 C18.0598,32.0771 18.4218,31.4436 18.9723,31.0626 C18.4218,30.6828 18.0598,30.046 18.0598,29.3255 C18.0598,28.605 18.4218,27.9703 18.9723,27.5905 C18.4218,27.2095 18.0598,26.576 18.0598,25.8555 C18.0598,25.1402 18.4166,24.5078 18.9619,24.1268 C18.4166,23.7458 18.0598,23.1134 18.0598,22.3981 C18.0598,21.6819 18.4166,21.0495 18.9619,20.6685 C18.4166,20.2875 18.0598,19.6551 18.0598,18.9398 C18.0598,18.2193 18.4218,17.5857 18.9723,17.2048 C18.4218,16.8249 18.0598,16.1882 18.0598,15.4677 C18.06,14.3022 19.0033,13.36 20.1678,13.36 M20.1678,52.6351 C20.9056,52.6351 21.5547,53.0149 21.9316,53.59 C22.3074,53.0149 22.9585,52.6351 23.6975,52.6351 C24.5465,52.6351 25.2772,53.135 25.6116,53.8575 C25.9472,53.1359 26.6755,52.6351 27.5237,52.6351 C28.3707,52.6351 29.1022,53.1339 29.4378,53.8544 C29.7734,53.1339 30.5049,52.6351 31.3519,52.6351 C32.5164,52.6351 33.4599,53.5805 33.4599,54.7448 C33.4599,55.9088 32.5166,56.8522 31.3519,56.8522 C30.5049,56.8522 29.7734,56.3523 29.4378,55.6318 C29.1022,56.3523 28.3707,56.8522 27.5237,56.8522 C26.6756,56.8522 25.9472,56.3503 25.6116,55.6286 C25.2771,56.3511 24.5465,56.8522 23.6975,56.8522 C22.9585,56.8522 22.3075,56.4723 21.9316,55.8961 C21.7813,56.1242 21.5917,56.3249 21.3684,56.4798 C21.9178,56.8596 22.2778,57.4952 22.2778,58.2137 C22.2778,58.9299 21.9201,59.5623 21.3736,59.9433 C21.9198,60.3243 22.2778,60.9556 22.2778,61.672 C22.2778,62.388 21.9201,63.0197 21.3736,63.4016 C21.542,63.5182 21.6902,63.6594 21.8172,63.8186 C22.2036,63.3348 22.7987,63.0227 23.4667,63.0227 C24.2407,63.0227 24.9151,63.4397 25.2825,64.0605 C25.6488,63.4396 26.3254,63.0227 27.1003,63.0227 C27.8637,63.0227 28.5337,63.4291 28.9032,64.0381 C29.2727,63.429 29.9418,63.0227 30.7061,63.0227 C31.8717,63.0227 32.8173,63.9681 32.8173,65.1333 C32.8173,66.2973 31.8718,67.2393 30.7061,67.2393 C29.9418,67.2393 29.2727,66.8332 28.9032,66.225 C28.5337,66.8329 27.8634,67.2393 27.1003,67.2393 C26.3254,67.2393 25.6488,66.8237 25.2825,66.2015 C24.915,66.8226 24.2407,67.2393 23.4667,67.2393 C22.7987,67.2393 22.2037,66.9283 21.8172,66.4436 C21.6879,66.606 21.5367,66.7489 21.3652,66.8669 C21.9157,67.2479 22.2777,67.8823 22.2777,68.6019 C22.2777,69.3213 21.9177,69.9559 21.3683,70.3369 C21.9177,70.7168 22.2777,71.3523 22.2777,72.0708 C22.2777,72.7913 21.9157,73.426 21.3652,73.8058 C21.5885,73.9594 21.7792,74.156 21.9284,74.3832 C22.3042,73.8049 22.9564,73.4219 23.6974,73.4219 C24.5464,73.4219 25.2771,73.9227 25.6115,74.6455 C25.9471,73.9239 26.6754,73.4219 27.5236,73.4219 C28.3706,73.4219 29.1021,73.9216 29.4377,74.6423 C29.7733,73.9216 30.5048,73.4219 31.3518,73.4219 C32.5163,73.4219 33.4598,74.3651 33.4598,75.5293 C33.4598,76.6944 32.5165,77.6397 31.3518,77.6397 C30.5048,77.6397 29.7733,77.1398 29.4377,76.4195 C29.1021,77.1398 28.3706,77.6397 27.5236,77.6397 C26.6755,77.6397 25.9471,77.138 25.6115,76.4163 C25.277,77.1389 24.5464,77.6397 23.6974,77.6397 C22.9616,77.6397 22.3137,77.2612 21.9367,76.6902 C21.5609,77.2676 20.9087,77.6506 20.1677,77.6506 C19.0032,77.6506 18.0597,76.7052 18.0597,75.5409 C18.0597,74.8204 18.4217,74.1869 18.9722,73.8059 C18.4217,73.426 18.0597,72.7914 18.0597,72.0709 C18.0597,71.3524 18.4208,70.7169 18.9702,70.337 C18.4208,69.956 18.0597,69.3216 18.0597,68.602 C18.0597,67.8826 18.4217,67.248 18.9722,66.867 C18.4217,66.4871 18.0597,65.8523 18.0597,65.1331 C18.0597,64.4158 18.4174,63.7822 18.9639,63.4012 C18.4186,63.0191 18.0597,62.3878 18.0597,61.6714 C18.0597,60.9554 18.4174,60.3239 18.9639,59.9429 C18.4186,59.5619 18.0597,58.9295 18.0597,58.2133 C18.0597,57.4948 18.4208,56.8593 18.9702,56.4794 C18.4208,56.0984 18.0597,55.464 18.0597,54.7441 C18.06,53.5806 19.0033,52.6351 20.1678,52.6351" id="Fill-1_5_"></path>
                            </g>
                        </g>
                    </g>
                </g>
            </g>
        </g>
    </g>
</svg>