<?xml version="1.0" encoding="UTF-8"?>
<svg width="125px" height="63px" viewBox="0 0 125 63" version="1.1" xmlns="http://www.w3.org/2000/svg" xmlns:xlink="http://www.w3.org/1999/xlink">
    <!-- Generator: Sketch 42 (36781) - http://www.bohemiancoding.com/sketch -->
    <title>Stars</title>
    <desc>Created with Sketch.</desc>
    <defs></defs>
    <g id="Symbols" stroke="none" stroke-width="1" fill="none" fill-rule="evenodd">
        <g id="Review" transform="translate(-79.000000, 1.000000)" stroke="#305EF3">
            <g id="Stars">
                <g transform="translate(80.000000, 0.000000)">
                    <path d="M5.06762295,58.2285667 C4.73155738,59.0622333 5.06762295,60.0707667 5.7397541,60.5709667 C6.41188525,61.0711667 7.42827869,61.0711667 8.26844262,60.5709667 L15.6967213,55.3758 L23.125,60.5709667 C23.4631148,60.9044333 23.9672131,60.9044333 24.3114754,60.9044333 C24.8155738,60.9044333 25.1516393,60.7377 25.4959016,60.5709667 C26.1680328,60.0707667 26.5122951,59.0622333 26.1680328,58.2285667 L23.4631148,49.8492 L30.3852459,44.9875 C31.0594262,44.4873 31.4016393,43.4787667 31.227459,42.6451 C30.8893443,41.8094 30.2090164,41.1343333 29.2008197,41.1343333 L20.7561475,41.1343333 L17.7151639,32.0880333 C17.3790984,31.2543667 16.6987705,30.5793 15.6905738,30.5793 C14.6721311,30.5793 14,31.0795 13.6639344,32.0880333 L10.6229508,41.1343333 L2.17827869,41.1343333 C1.33811475,41.1343333 0.489754098,41.8033 0.151639344,42.6451 C-0.18442623,43.4787667 0.151639344,44.4873 0.993852459,44.9875 L7.91803279,49.8492 L5.06762295,58.2285667 Z" id="Fill-1"></path>
                    <path d="M45.9385246,42.4783667 C45.602459,43.3120333 45.9385246,44.3205667 46.7786885,44.8207667 L53.7028689,49.6824667 L50.9979508,58.0618333 C50.6618852,58.8955 50.9979508,59.9040333 51.670082,60.4042333 C52.3422131,60.9044333 53.3586066,60.9044333 54.2008197,60.4042333 L61.6270492,55.2090667 L69.057377,60.4042333 C69.3934426,60.7377 69.897541,60.7377 70.2418033,60.7377 C70.7459016,60.7377 71.0819672,60.5709667 71.4262295,60.4042333 C72.0983607,59.9040333 72.442623,58.8955 72.0983607,58.0618333 L69.3934426,49.6824667 L76.3155738,44.8207667 C76.9897541,44.3205667 77.3340164,43.3120333 77.1577869,42.4783667 C76.8217213,41.6426667 76.1413934,40.9676 75.1311475,40.9676 L66.6864754,40.9676 L63.6454918,31.9213 C63.3094262,31.0876333 62.6290984,30.4125667 61.6209016,30.4125667 C60.602459,30.4125667 59.9303279,30.9127667 59.5942623,31.9213 L56.5532787,40.9676 L48.1086066,40.9676 C47.1229508,41.1343333 46.2745902,41.6365667 45.9385246,42.4783667 Z" id="Fill-2"></path>
                    <path d="M91.8770492,42.4783667 C91.5409836,43.3120333 91.8770492,44.3205667 92.7172131,44.8207667 L99.6413934,49.6824667 L96.9364754,58.0618333 C96.6004098,58.8955 96.9364754,59.9040333 97.6086066,60.4042333 C97.9446721,60.7377 98.4487705,60.7377 98.7930328,60.7377 C99.2971311,60.7377 99.6331967,60.5709667 99.977459,60.4042333 L107.405738,55.2090667 L114.834016,60.4042333 C115.506148,60.9044333 116.52459,60.9044333 117.364754,60.4042333 C118.036885,59.9040333 118.381148,58.8955 118.036885,58.0618333 L115.331967,49.6824667 L122.254098,44.8207667 C122.928279,44.3205667 123.272541,43.3120333 123.096311,42.4783667 C122.760246,41.6426667 122.077869,40.9676 121.069672,40.9676 L112.625,40.9676 L109.270492,32.0880333 C108.934426,31.2543667 108.254098,30.5793 107.245902,30.5793 C106.229508,30.5793 105.557377,31.0795 105.221311,32.0880333 L102.180328,41.1343333 L93.7336066,41.1343333 C92.8934426,41.1343333 92.045082,41.6365667 91.8770492,42.4783667 Z" id="Fill-3"></path>
                    <path d="M23.8135246,14.4875 L30.7377049,19.3492 L28.0327869,27.7285667 C27.6967213,28.5622333 28.0327869,29.5707667 28.704918,30.0709667 C29.3770492,30.5711667 30.3934426,30.5711667 31.2336066,30.0709667 L38.6618852,24.8758 L46.0901639,30.0709667 C46.4282787,30.4044333 46.932377,30.4044333 47.2766393,30.4044333 C47.7807377,30.4044333 48.1168033,30.2377 48.4610656,30.0709667 C49.1331967,29.5707667 49.477459,28.5622333 49.1331967,27.7285667 L46.4282787,19.3492 L53.3504098,14.4875 C54.0245902,13.9873 54.3688525,12.9787667 54.192623,12.1451 C53.8565574,11.3094 53.1762295,10.6343333 52.1659836,10.6343333 L43.7213115,10.6343333 L40.6803279,1.58803333 C40.3442623,0.754366667 39.6639344,0.0793 38.6557377,0.0793 C37.6372951,0.0793 36.9651639,0.5795 36.6290984,1.58803333 L33.5881148,10.6343333 L25.1434426,10.6343333 C24.3032787,10.6343333 23.454918,11.3033 23.1188525,12.1451 C22.8053279,12.9787667 23.1413934,13.9873 23.8135246,14.4875 Z" id="Fill-4"></path>
                    <path d="M69.7520492,14.4875 L76.6762295,19.3492 L73.9713115,27.7285667 C73.6352459,28.5622333 73.9713115,29.5707667 74.6434426,30.0709667 C74.9795082,30.4044333 75.4836066,30.4044333 75.8278689,30.4044333 C76.3319672,30.4044333 76.6680328,30.2377 77.0122951,30.0709667 L84.4405738,24.8758 L91.8688525,30.0709667 C92.5409836,30.5711667 93.5594262,30.5711667 94.3995902,30.0709667 C95.0717213,29.5707667 95.4159836,28.5622333 95.0717213,27.7285667 L92.3647541,19.3492 L99.2889344,14.4875 C99.9631148,13.9873 100.307377,12.9787667 100.131148,12.1451 C99.795082,11.3094 99.1127049,10.6343333 98.1045082,10.6343333 L89.6598361,10.6343333 L86.6188525,1.58803333 C86.2827869,0.754366667 85.602459,0.0793 84.5942623,0.0793 C83.5758197,0.0793 82.9036885,0.5795 82.567623,1.58803333 L79.5266393,10.6343333 L71.0819672,10.6343333 C70.2418033,10.6343333 69.3934426,11.3033 69.057377,12.1451 C68.567623,12.9787667 68.9118852,13.9873 69.7520492,14.4875 Z" id="Fill-5"></path>
                </g>
            </g>
        </g>
    </g>
</svg>