<?xml version="1.0" encoding="utf-8"?>
<!-- Generator: Adobe Illustrator 21.0.0, SVG Export Plug-In . SVG Version: 6.00 Build 0)  -->
<svg version="1.1" id="Layer_1" xmlns="http://www.w3.org/2000/svg" xmlns:xlink="http://www.w3.org/1999/xlink" x="0px" y="0px"
	 viewBox="0 0 32 32" style="enable-background:new 0 0 32 32;" xml:space="preserve">
<g>
	<g>
		<path d="M9.718,12.2426h0.7341v2.953c0,0.5244-0.3257,0.8941-0.85,0.8941c-0.2153,0-0.3753-0.0442-0.414-0.0606v-0.6127
			c0.0497,0.0111,0.1214,0.0277,0.2263,0.0277c0.2208,0,0.3036-0.1214,0.3036-0.3202V12.2426z M10.0823,10.8903
			c0.254,0,0.4526,0.2041,0.4526,0.4581c0,0.2484-0.1986,0.4471-0.4526,0.4471c-0.2484,0-0.4525-0.1987-0.4525-0.4471
			C9.6297,11.0944,9.8339,10.8903,10.0823,10.8903z"/>
		<path d="M11.8819,13.3962l0.6679-0.0994c0.1545-0.022,0.2043-0.0993,0.2043-0.1932c0-0.1932-0.1491-0.3533-0.4582-0.3533
			c-0.3202,0-0.4968,0.2043-0.5189,0.4416l-0.6513-0.1379c0.0441-0.4251,0.436-0.8943,1.1646-0.8943
			c0.8611,0,1.1812,0.4858,1.1812,1.0322v1.3358c0,0.1435,0.0165,0.3366,0.0331,0.4305h-0.6733
			c-0.0165-0.0717-0.0276-0.2207-0.0276-0.3257c-0.138,0.2153-0.3974,0.403-0.8003,0.403c-0.5796,0-0.9329-0.3919-0.9329-0.8169
			C11.0705,13.7329,11.4293,13.4624,11.8819,13.3962z M12.754,13.8598v-0.1214l-0.6127,0.0939
			c-0.1877,0.0276-0.3367,0.1324-0.3367,0.3422c0,0.1601,0.1159,0.3146,0.3533,0.3146
			C12.4669,14.4891,12.754,14.3401,12.754,13.8598z"/>
		<path d="M14.2114,14.9583v-2.7157h0.701v0.3312c0.1491-0.2649,0.4968-0.4085,0.7949-0.4085c0.3698,0,0.6679,0.1601,0.8059,0.4527
			c0.2153-0.3312,0.5023-0.4527,0.8611-0.4527c0.5023,0,0.9825,0.3035,0.9825,1.0322v1.7607h-0.7121v-1.6117
			c0-0.2925-0.1435-0.5133-0.4802-0.5133c-0.3146,0-0.5023,0.2429-0.5023,0.5354v1.5897h-0.7286v-1.6117
			c0-0.2925-0.149-0.5133-0.4802-0.5133c-0.3202,0-0.5078,0.2374-0.5078,0.5354v1.5897H14.2114z"/>
		<path d="M19.7482,13.3962l0.6679-0.0994c0.1545-0.022,0.2043-0.0993,0.2043-0.1932c0-0.1932-0.1491-0.3533-0.4582-0.3533
			c-0.3202,0-0.4968,0.2043-0.5189,0.4416L18.992,13.054c0.0441-0.4251,0.436-0.8943,1.1646-0.8943
			c0.8611,0,1.1812,0.4858,1.1812,1.0322v1.3358c0,0.1435,0.0165,0.3366,0.0331,0.4305h-0.6733
			c-0.0165-0.0717-0.0276-0.2207-0.0276-0.3257c-0.138,0.2153-0.3974,0.403-0.8003,0.403c-0.5796,0-0.9329-0.3919-0.9329-0.8169
			C18.9368,13.7329,19.2956,13.4624,19.7482,13.3962z M20.6203,13.8598v-0.1214l-0.6127,0.0939
			c-0.1877,0.0276-0.3367,0.1324-0.3367,0.3422c0,0.1601,0.1159,0.3146,0.3533,0.3146
			C20.3332,14.4891,20.6203,14.3401,20.6203,13.8598z"/>
		<path d="M22.0777,14.9583v-3.9962h0.7341v3.9962H22.0777z"/>
	</g>
	<g>
		<path d="M2.6797,20.4785v-3.9962h0.7231v1.5787c0.1214-0.1932,0.4195-0.3699,0.8224-0.3699c0.7949,0,1.2529,0.6126,1.2529,1.4186
			c0,0.8224-0.5078,1.435-1.2805,1.435c-0.3753,0-0.6624-0.1655-0.8059-0.3974v0.3312H2.6797z M4.0706,18.3479
			c-0.3698,0-0.6789,0.2704-0.6789,0.7673c0,0.4912,0.3091,0.7727,0.6789,0.7727c0.3753,0,0.6734-0.276,0.6734-0.7727
			C4.7441,18.6183,4.446,18.3479,4.0706,18.3479z"/>
		<path d="M8.4923,19.7003c-0.138,0.4692-0.5685,0.8611-1.2364,0.8611c-0.7452,0-1.402-0.5354-1.402-1.4517
			c0-0.8666,0.6403-1.4297,1.3358-1.4297c0.839,0,1.3413,0.5355,1.3413,1.4075c0,0.105-0.011,0.2153-0.011,0.2264H6.577
			c0.0165,0.3588,0.3201,0.6182,0.6844,0.6182c0.3422,0,0.5299-0.1712,0.6182-0.4141L8.4923,19.7003z M7.8078,18.8115
			c-0.0111-0.2704-0.1877-0.5354-0.6072-0.5354c-0.3809,0-0.5906,0.2871-0.6072,0.5354H7.8078z"/>
		<path d="M9.845,20.4785H9.1109v-2.7157h0.7121v0.3368c0.1655-0.2815,0.4913-0.4085,0.7838-0.4085
			c0.6734,0,0.9825,0.4802,0.9825,1.0764v1.711h-0.7341v-1.5842c0-0.3035-0.149-0.5409-0.5023-0.5409
			c-0.3202,0-0.5078,0.2484-0.5078,0.5631V20.4785z"/>
		<path d="M12.3347,20.4785v-2.7157h0.701v0.3312c0.1491-0.2649,0.4968-0.4085,0.7949-0.4085c0.3698,0,0.6679,0.1601,0.8059,0.4527
			c0.2153-0.3312,0.5023-0.4527,0.8611-0.4527c0.5023,0,0.9825,0.3035,0.9825,1.0322v1.7607H15.768v-1.6117
			c0-0.2925-0.1435-0.5133-0.4802-0.5133c-0.3146,0-0.5023,0.2429-0.5023,0.5354v1.5897h-0.7286v-1.6117
			c0-0.2925-0.149-0.5133-0.4802-0.5133c-0.3202,0-0.5078,0.2374-0.5078,0.5354v1.5897H12.3347z"/>
		<path d="M17.59,16.4161c0.254,0,0.4526,0.2041,0.4526,0.4581c0,0.2429-0.1986,0.447-0.4526,0.447
			c-0.2484,0-0.4525-0.2041-0.4525-0.447C17.1374,16.6202,17.3416,16.4161,17.59,16.4161z M17.2257,20.4785v-2.7157h0.7341v2.7157
			H17.2257z"/>
		<path d="M18.7438,20.4785v-3.9962h0.7341v3.9962H18.7438z"/>
		<path d="M22.9057,19.1207c0,0.8334-0.6126,1.4406-1.424,1.4406s-1.4241-0.6072-1.4241-1.4406c0-0.839,0.6127-1.4407,1.4241-1.4407
			S22.9057,18.2817,22.9057,19.1207z M22.1716,19.1207c0-0.5133-0.3312-0.7729-0.69-0.7729c-0.3588,0-0.69,0.2595-0.69,0.7729
			c0,0.5078,0.3312,0.7727,0.69,0.7727C21.8404,19.8935,22.1716,19.6341,22.1716,19.1207z"/>
		<path d="M25.2355,20.1859c-0.1491,0.254-0.4637,0.3643-0.7507,0.3643c-0.6569,0-1.0322-0.4802-1.0322-1.0709v-1.7166h0.7341
			v1.5676c0,0.3037,0.1545,0.5464,0.4968,0.5464c0.3256,0,0.5133-0.2207,0.5133-0.5354v-1.5787h0.7341v2.2245
			c0,0.2096,0.0165,0.3973,0.0276,0.4912h-0.701C25.2465,20.4233,25.2355,20.2964,25.2355,20.1859z"/>
		<path d="M29.2982,19.9873c0,0.1821,0.0111,0.3808,0.0221,0.4912h-0.701c-0.0111-0.0553-0.0276-0.1876-0.0276-0.3146
			c-0.1214,0.2153-0.3974,0.3808-0.7617,0.3808c-0.7728,0-1.3248-0.6071-1.3248-1.4295c0-0.7949,0.5354-1.4186,1.3027-1.4186
			c0.4692,0,0.69,0.1932,0.7672,0.3366v-1.5509h0.7231V19.9873z M27.9183,19.8879c0.3753,0,0.6679-0.2871,0.6679-0.7782
			c0-0.4858-0.2925-0.7562-0.6679-0.7562c-0.3753,0-0.6733,0.276-0.6733,0.7618C27.2449,19.6008,27.5319,19.8879,27.9183,19.8879z"
			/>
	</g>
</g>
</svg>
