<?xml version="1.0" encoding="UTF-8"?>
<svg width="784px" height="92px" viewBox="0 0 784 92" version="1.1" xmlns="http://www.w3.org/2000/svg" xmlns:xlink="http://www.w3.org/1999/xlink">
    <!-- Generator: Sketch 42 (36781) - http://www.bohemiancoding.com/sketch -->
    <title>Logos</title>
    <desc>Created with Sketch.</desc>
    <defs></defs>
    <g id="Jamal-Benmiloud" stroke="none" stroke-width="1" fill="none" fill-rule="evenodd">
        <g id="Home" transform="translate(-328.000000, -2391.000000)" fill="#FFFFFF">
            <g id="Topics" transform="translate(0.000000, 1539.000000)">
                <g id="Logos" transform="translate(328.000000, 852.874118)">
                    <g id="Monster" transform="translate(0.000000, 32.587838)">
                        <polygon id="Fill-1" points="20.5799564 0.466265203 20.3683455 0.502663007 20.1778021 0.576391892 19.6909097 0.959035473 18.971339 1.25068454 17.4254558 1.52460135 17.0654364 1.63379476 16.7269525 1.79805152 16.4301355 1.99823944 16.154854 2.23622508 15.8800408 2.30855405 15.6258268 2.30855405 15.3716128 2.21709291 15.1384663 2.08970059 15.0115933 2.08970059 14.8851886 2.10836613 14.7578475 2.1442973 14.6515739 2.21709291 14.5879034 2.4182141 14.4825661 2.60066976 14.355225 2.76445988 14.185749 2.8918522 13.9104676 2.98377998 13.6562536 3.12983784 13.4451108 3.31182686 13.2545674 3.53021368 13.3814403 3.82232939 13.3814403 3.93198944 13.4025078 4.05938176 13.4661783 4.16904181 13.5504481 4.24183742 13.6562536 4.31509966 13.7835947 4.33283193 13.9104676 4.33283193 14.0167412 4.29643412 14.4188955 4.42429307 14.5036335 4.53395313 14.5879034 4.62494764 14.694177 4.69774324 14.8215181 4.75233995 14.948391 4.77100549 15.0752639 4.77100549 15.2021368 4.75233995 15.3290097 4.71640878 15.7105648 4.53395313 16.5574766 5.15364907 16.8538255 5.40890034 17.1080394 5.71921495 17.1927774 5.8652728 17.2138449 6.02906292 17.2138449 6.33984417 17.2775154 6.64969215 17.4043883 7.21479139 17.4680589 7.79808953 17.4465233 8.05380743 17.3828527 8.3090587 17.256448 8.54611106 17.0865038 8.74629899 16.9811665 8.91102238 16.8959604 9.0748125 16.8959604 9.18447255 16.917496 9.29366596 16.9596309 9.40332601 17.0017658 9.49432052 17.1927774 9.75003843 17.4254558 9.98709079 17.6586023 10.2059443 17.8702132 10.4611955 17.9760187 10.6618501 18.0186218 10.7710435 18.0186218 10.8802369 17.9970861 11.4462694 17.9123481 12.0118353 17.8486776 12.37628 17.8065427 12.7225258 17.7850071 13.0874371 17.8065427 13.4523484 17.8702132 13.8172597 18.0186218 14.1453066 18.0818241 14.3272956 18.1028916 14.5102179 18.1028916 14.6926736 18.0602885 14.8933281 17.8486776 15.6772808 17.8065427 15.9143332 17.7850071 16.1513856 17.8065427 16.2610456 17.8486776 16.370239 17.8912807 16.4612335 17.9549512 16.5526947 18.2513001 16.9540038 18.3575737 17.1915228 18.4418436 17.4099096 18.5050459 17.646962 18.547649 17.9022133 18.5687165 18.1397323 18.5687165 18.3945169 18.4839785 19.270864 18.4207761 19.7076377 18.3149707 20.1458112 18.2723676 20.5102559 18.2513001 20.8751672 18.2513001 21.2400785 18.2939032 21.6045232 18.3575737 21.9699012 18.4418436 22.3156803 18.547649 22.6628594 18.6960576 23.0091052 18.8439979 23.3735498 18.9924065 23.7566601 19.0986801 24.1397703 19.1829499 24.5410794 19.2040174 24.8327285 19.1618824 25.1066453 19.0986801 25.3982943 18.971339 25.6535456 18.8229305 26.0184569 18.6960576 26.4015671 18.6113196 26.7842107 18.5687165 27.1855198 18.547649 27.6236934 18.462911 28.0609337 18.3575737 28.4809084 18.2302327 28.8999497 17.9970861 29.5383112 17.7213365 30.1771394 17.4465233 30.7786364 17.0228333 31.5812546 16.9811665 31.8001081 17.0017658 32.0189616 17.0654364 32.2191495 17.2775154 32.6386575 17.5527969 33.0399666 17.6796698 33.2410878 17.7850071 33.4412758 17.8702132 33.6601292 17.9123481 33.8971816 17.9334156 34.2261617 17.8912807 34.9186533 17.8276101 35.2653657 17.7850071 35.6116115 17.7639396 35.9583239 17.7639396 36.3227686 17.8065427 36.6699476 17.8702132 36.9065334 18.0818241 37.3811047 18.1665621 37.5994916 18.2513001 37.8370106 18.2939032 38.0922618 18.3149707 38.3293142 18.3360381 38.5845655 18.3360381 38.8211512 18.2939032 39.0768691 18.1876296 39.8976862 18.123959 40.7185034 18.1454947 41.2658704 18.2302327 41.8127707 18.3575737 42.3414721 18.5261134 42.8706402 18.547649 42.9803003 18.5261134 43.1076926 18.4418436 43.3447449 18.2939032 43.5453995 18.1028916 43.8188497 17.9549512 44.1109654 17.9334156 44.2383577 17.9334156 44.3475511 17.9549512 44.4754101 18.0186218 44.5850701 18.2723676 44.9135836 18.5261134 45.2593628 18.7377243 45.6242741 18.9076685 45.989652 19.0771445 46.3904945 19.1829499 46.7918036 19.2676879 47.2113117 19.3308903 47.6126208 19.3945608 48.0685266 19.3945608 48.5062335 19.2676879 49.0895317 19.1829499 49.6732965 19.0986801 50.1842656 19.0139421 50.4390503 18.9076685 50.6947682 18.8229305 50.8772238 18.7803274 51.0960773 18.7592599 51.2967318 18.7803274 51.5155853 18.8439979 51.6798421 18.9287359 51.8258999 19.1403468 51.6611765 19.3098228 51.4787209 19.9451237 50.3480557 20.0935322 50.11147 20.219937 49.8557521 20.3262106 49.6009675 20.4109486 49.3270507 20.4535517 49.0536005 20.4746191 48.7614848 20.4746191 48.4880346 20.432016 48.2145845 20.432016 47.6485519 20.5799564 47.1931128 20.7288331 47.1021182 20.7925036 47.0475215 20.8346386 46.9560604 20.8346386 46.8100025 20.8135711 46.6639447 20.7072975 46.1903066 20.7072975 46.0442487 20.7499006 45.9163898 20.8561742 45.6793374 20.9193766 45.4236195 20.9615115 44.9859126 20.9825789 44.6578657 21.0247138 44.3475511 21.0883844 44.0199709 21.1731224 43.7091896 21.2578604 43.4726039 21.2999953 43.2350849 21.3425984 42.9803003 21.3210627 42.7063834 21.2578604 42.4693311 21.1305193 42.2322787 20.940444 41.9583619 20.7925036 41.6485139 20.6651626 41.3381993 20.5799564 41.0101524 20.5172222 40.6816389 20.4746191 40.3535921 20.4746191 40.0073463 20.5172222 39.6783661 20.6225595 39.0222724 20.68623 38.3475131 20.6651626 37.6904861 20.558889 37.0343923 20.7925036 36.5784865 21.0673169 36.1585118 21.0883844 35.6484759 21.0673169 35.1193079 21.0036464 34.5906064 20.8767735 34.0796372 20.8135711 33.6969937 20.770968 33.3138834 20.770968 32.9121077 20.7925036 32.5294641 20.8346386 32.2014172 20.8346386 31.8547048 20.7925036 31.5266579 20.7288331 31.1976778 20.6651626 30.8878298 20.6440951 30.5779818 20.7072975 30.1038771 20.8135711 29.6479713 20.9825789 29.1920655 21.1937217 28.7720908 21.5120744 28.1337293 21.8084233 27.4771689 21.8720938 27.0763264 21.934828 26.6572851 21.9563636 26.4738961 22.0200342 26.2919071 22.0832365 26.128117 22.1895102 25.9820591 22.655335 25.4346921 23.0785569 24.8509274 23.1632949 24.7048695 23.2906359 24.3772893 23.3327708 24.2130325 23.3538383 24.0487758 23.3538383 23.8663201 23.3327708 23.7020633 23.2906359 23.5200743 22.9306165 22.4071415 22.5499978 21.3128742 22.4011211 20.911565 22.27378 20.5102559 22.2321132 20.0730156 22.2531807 19.6353087 22.2953156 19.1976018 22.3800536 18.7594282 22.4863272 18.3399202 22.5710652 17.9022133 22.5921327 17.464973 22.5921327 17.027266 22.612732 16.8994071 22.655335 16.7715481 22.866946 16.5708936 23.2269654 16.2610456 23.2906359 16.1700511 23.3538383 16.0599244 23.3753739 15.950731 23.3753739 15.8415376 23.2695685 15.2395739 23.1422274 14.6194113 22.9727514 14.0174476 22.8032754 13.4336829 22.7396049 13.1970971 22.7185374 12.9413792 22.7396049 12.686128 22.782208 12.4308767 22.909549 12.0300342 22.9938189 11.6105262 23.0148863 11.3548083 22.9512158 11.1177559 22.824811 10.8989024 22.6342676 10.7164468 22.4226567 10.55219 22.3374505 10.4975933 22.2953156 10.4061322 22.27378 10.3156043 22.27378 10.2241432 22.3163831 10.0962842 22.3800536 9.96842525 22.612732 9.56758277 22.655335 9.42152492 22.655335 9.27546706 22.5921327 9.09347804 22.5073947 8.92922128 22.4011211 8.69216892 22.3163831 8.43645101 22.2953156 8.2726609 22.3374505 8.12660304 22.4647916 7.87135177 22.5710652 7.63383277 22.655335 7.43364485 22.7611405 7.25118919 22.866946 7.08693243 22.9938189 6.92314231 23.3964414 6.48543539 23.5233143 6.32117863 23.6291197 6.13825633 23.6712547 5.93806841 23.6923221 5.73741385 23.7138577 5.59182264 23.7559927 5.42709924 23.8196632 5.29970693 23.9259368 5.17231461 24.3070237 4.80740329 24.7091781 4.49708868 25.090265 4.46069088 25.4287488 4.35149747 25.4708837 4.16904181 25.4924193 3.98705279 25.3655464 3.8587272 25.2171379 3.74906715 24.6881106 3.71266934 24.497099 3.69447044 24.3070237 3.62167483 24.2012183 3.53021368 24.1375477 3.40328801 24.0949446 3.03837669 24.0949446 2.81952323 24.0528097 2.60066976 23.9680717 2.45507855 23.8196632 2.3636174 22.9727514 1.96230828 22.1473752 1.50640245 21.3636658 1.01409882"></polygon>
                        <polygon id="Fill-2" points="7.98203825 2.12600507 7.74935989 2.27252956 7.53728082 2.45498522 7.34720553 2.63697424 7.13559463 2.80076436 6.96565047 2.8376288 6.79664265 2.85536106 6.49982558 3.07468117 6.1608736 3.23893792 5.80132233 3.34813133 5.44130289 3.40319468 3.91695531 3.45779139 3.55693587 3.51238809 3.1973846 3.6033826 2.85796445 3.71257601 2.51901247 3.87729941 2.24373103 4.02289062 1.94738213 4.15074958 1.35468433 4.3327386 1.10093851 4.35140414 0.846256355 4.3327386 0.698784153 4.3327386 0.571443077 4.36960304 0.444570167 4.42419975 0.317229092 4.51519426 0.126217478 4.71631546 -0.000187266287 4.93516892 0.0208801911 5.06256123 0.0845507289 5.15355574 0.338296549 5.17222128 0.613577992 5.13535684 0.909926892 5.08076014 1.22781142 5.06256123 1.37621995 5.08076014 1.50356102 5.11762458 2.11732628 5.3178125 2.752159 5.48206926 3.38745988 5.62812711 4.02276076 5.71912162 4.76386709 5.90157728 5.01761291 6.02943623 5.22969199 6.19322635 5.41976727 6.41207981 5.54710834 6.64959882 5.7170525 7.04997466 5.73811996 7.26929476 5.69551688 7.46994932 5.54710834 7.88992399 5.52604089 7.9991174 5.52604089 8.09057855 5.54710834 8.19977196 5.58971142 8.29076647 5.7170525 8.43635769 5.8645247 8.54601774 6.37295267 8.85633235 6.54242866 9.03878801 6.6060992 9.16618032 6.64823412 9.29357264 6.75403957 9.65848395 6.88091248 10.0415942 6.96565047 10.4433699 6.94458302 10.6617568 6.92304739 10.8624113 6.8383094 11.0444003 6.79664265 11.2091237 6.79664265 11.5735684 6.92304739 12.1755321 6.90197994 12.4853801 6.81724194 12.7779624 6.62716666 13.2334016 6.4572225 13.7075063 5.8645247 16.3888112 5.82238979 16.9361782 5.8645247 17.1363661 5.92819524 17.3370207 6.01293323 17.5372086 6.11873869 17.7196643 6.4572225 18.2124345 6.77510703 18.7234037 6.94458302 19.1242462 7.05038847 19.5619531 7.4951459 20.984734 7.89730026 22.425247 7.96097079 22.8998184 7.93943517 23.3552576 7.93943517 23.8480279 7.96097079 24.0846136 8.02464133 24.3225992 8.04570879 24.4681905 8.04570879 24.6137817 8.02464133 24.7598395 7.98203825 24.8872318 7.7914948 25.4532644 7.74935989 25.6352534 7.72782426 25.817709 7.7914948 25.9824324 7.87576463 26.1093581 8.06677625 26.3282116 8.19411732 26.5834628 8.27838715 26.8573796 8.32099023 27.1308298 8.40526006 28.2978927 8.53260114 29.0272487 8.57473605 29.3557622 8.55320043 29.6842758 8.51153368 30.0309882 8.44786314 30.3408361 8.32099023 30.6693497 8.19411732 30.9609987 8.02464133 31.2531144 7.83409788 31.5265646 7.60095135 31.8728104 7.41040791 32.2559206 7.30460245 32.6754286 7.24093192 33.0762711 7.30460245 33.2591934 7.43194353 33.4234502 7.87576463 33.7878948 8.02464133 33.9334861 8.13044678 34.0982095 8.17304986 34.3170629 8.15198241 34.5354497 8.00310571 35.0646178 7.96097079 35.1924768 7.96097079 35.3198691 7.98203825 35.447728 8.02464133 35.5746537 8.17304986 35.8490372 8.34205769 36.1224873 8.44786314 36.3226753 8.51153368 36.5237965 8.51153368 36.7062521 8.44786314 36.8700422 8.32099023 37.1252935 8.25731969 37.3992103 8.25731969 37.6908594 8.32099023 37.9643095 8.55320043 38.6208699 8.85048566 39.2410325 9.06209657 39.9339907 9.23110439 40.6451478 9.3579773 41.3749704 9.42164784 42.0861275 9.48531838 42.852348 9.61265945 43.5999029 9.78213544 44.3479244 9.99374635 45.0954793 10.2264247 45.6059818 10.4380356 45.8435008 10.6079798 46.2630089 10.7133171 46.6279202 10.6716503 47.0105638 10.6501147 47.393674 10.8406581 47.9956377 11.2428125 48.3054856 11.1791419 47.9956377 11.1154714 47.5761296 11.2638799 47.2476161 11.4970265 46.8099092 11.4333559 46.5182601 11.2002094 46.2994067 11.1154714 46.0992187 10.9885985 45.9162965 10.8406581 45.2966005 10.8406581 45.0772804 10.8195907 44.840228 10.7769876 44.6213746 10.7133171 44.4025211 10.6290472 43.9652808 10.6290472 43.5275739 10.7133171 42.9615414 10.7559201 42.3964421 10.7769876 41.8308763 10.7559201 41.265777 10.7133171 40.4262943 10.7133171 39.5872783 10.7980551 38.7300633 10.924928 37.9097128 11.0518009 37.2900169 11.0728683 36.9797023 11.0728683 36.6511888 11.0518009 36.3408742 11.0101341 36.0314928 10.9459954 35.7216448 10.8406581 35.4290625 10.7559201 35.1378801 10.6716503 34.8275655 10.6079798 34.5172508 10.5864441 34.2074029 10.5864441 33.5872403 10.6290472 33.2773923 10.6922496 32.9852766 10.9885985 32.1098628 11.560697 29.9217948 11.7718397 29.2647677 11.9413157 28.5900084 11.9628514 28.4075528 11.9628514 28.2068982 11.9413157 28.0244426 11.8776452 27.8424535 11.7929072 27.6781968 11.6875699 27.5321389 11.5391614 27.3860811 11.3907529 27.276421 11.2854156 27.1672276 11.221745 27.0575676 11.2002094 26.8755785 11.2428125 26.7117884 11.4122885 26.3468771 11.5391614 26.1280236 11.6028319 25.8727724 11.6243675 25.708049 11.560697 25.5255933 11.4544234 25.3436043 11.3907529 25.1252175 11.306483 24.6870439 11.306483 24.4681905 11.3275505 24.249337 11.3907529 24.0300169 11.4544234 23.829829 11.645435 23.3916554 11.8355103 22.972614 12.0686568 22.5526394 12.3018033 22.1522635 12.3439383 22.0426035 12.3865413 21.9147445 12.3865413 21.7873522 12.3654739 21.6776921 12.2802677 21.4219742 12.1529266 21.2035874 11.645435 20.4924303 11.5180939 20.3099747 11.4333559 20.1279856 11.3701536 19.9263978 11.3275505 19.7262099 11.2854156 19.4709586 11.2002094 19.1975084 10.9885985 18.6870059 10.7348527 18.1755701 10.6290472 17.9389844 10.5653767 17.6655342 10.5443092 17.4098163 10.5653767 17.1363661 10.5864441 16.8993138 10.5864441 16.6622614 10.5017062 16.0238999 10.3743651 15.4037373 10.3106945 15.0756905 10.2900952 14.7653758 10.3322302 14.4550612 10.3954325 14.1452133 10.6079798 13.7075063 10.8617256 13.2879983 11.0518009 12.9417525 11.221745 12.5950401 11.3275505 12.2301288 11.3907529 11.8470186 11.1791419 11.7014274 10.7559201 11.5735684 10.6501147 11.2273226 10.6079798 10.6799557 10.6079798 10.1143898 10.6290472 9.56748944 10.6716503 9.0023902 10.7980551 8.63747889 10.924928 8.49095439 11.0728683 8.36402872 11.4544234 8.09057855 11.8565777 7.87125845 12.0686568 7.74339949 12.2592003 7.57914274 12.3439383 7.45175042 12.3654739 7.30615921 12.3654739 7.0686402 12.3439383 6.84978674 12.3018033 6.55860431 12.3018033 6.2664886 12.3439383 6.08403294 12.4076088 5.93797508 12.5134142 5.79238387 12.6613546 5.68272382 12.6187515 5.5371326 12.5766166 5.40880701 12.2802677 4.98976562 12.2592003 4.88010557 12.3228708 4.77091216 12.3654739 4.71631546 12.3865413 4.66171875 12.3865413 4.58892314 12.3439383 4.5338598 12.2165972 4.11435177 12.0260537 3.53058699 11.8991808 3.27533573 11.7929072 3.16567568 11.6665025 3.07468117 9.50638583 3.03875 9.14683456 2.91089105 8.78681512 2.70976985 8.4689306 2.47271748 8.21471661 2.18153505 8.10937933 2.12600507"></polygon>
                        <polygon id="Fill-3" points="30.7433192 2.19950063 30.4469703 2.4183541 30.1506214 2.4911497 29.790602 2.63720756 29.4310507 2.85559438 29.3458445 3.07491448 29.2405072 3.27556905 29.1131662 3.47575697 28.9647576 3.65821263 28.6047382 3.96852724 28.3935955 4.09591955 28.1815164 4.20511296 27.5888186 4.44263197 26.9956526 4.66195207 26.3818874 4.82574219 25.7470546 4.9531345 25.556043 4.98999894 25.343964 5.06232791 25.1538887 5.15378906 24.9844127 5.26298247 24.8360042 5.39084143 24.6880638 5.53689928 24.5607227 5.70115604 24.4759847 5.8836117 24.4123142 6.13839633 24.5181196 6.21165857 24.6243932 6.26672192 25.5134399 6.26672192 25.8313245 6.33951753 25.9375981 6.37638197 26.0429354 6.44871094 26.2971494 6.6311666 26.5724308 6.75855891 26.8903153 6.85002006 27.2072635 6.86775232 28.4567978 6.88641786 28.8168173 6.90461677 29.1768367 7.01427682 29.4942531 7.16033467 29.790602 7.37918813 30.0022129 7.63397276 30.1506214 7.94382073 30.2353594 8.27280089 30.2774943 8.60084776 30.2774943 9.02035579 30.2564269 9.45806271 30.2142919 9.87757073 30.1295539 10.2970788 30.1295539 10.4795344 30.1506214 10.6619901 30.2990299 11.1902249 30.2990299 11.3731472 30.2353594 11.5738017 30.1506214 11.7557908 30.087419 11.956912 30.0448159 12.1575665 30.0448159 12.4856134 30.1295539 12.7044668 30.2990299 12.8869225 30.3411648 12.977917 30.3622323 13.0871104 30.3622323 13.1967705 30.2774943 13.3792261 30.172157 13.5616818 29.4731856 14.3274356 29.2405072 14.6195513 29.1979042 14.7292114 29.2194398 14.8566037 29.3037096 14.9844626 29.4095151 15.093656 29.6843283 15.4039707 29.748467 15.5131641 29.790602 15.6228241 29.8121376 15.950871 29.8121376 16.2793845 29.7695345 16.6256303 29.6843283 16.9359449 29.6000585 17.2639918 29.5579236 17.5738397 29.5153205 17.9023533 29.4942531 18.2122012 29.5579236 18.6321759 29.6632609 19.0330184 29.8121376 19.4161286 30.0232803 19.7810399 30.4043672 20.4557992 30.7648548 21.1305585 30.8280572 21.331213 30.8706603 21.5495999 30.8706603 21.7507211 30.8280572 21.9695745 30.5106408 22.9728473 30.4469703 23.1917008 30.4259028 23.4100876 30.4043672 23.6476066 30.4259028 23.8664601 30.4469703 24.1030458 30.4891052 24.3223659 30.5527758 24.5412194 30.6375137 24.7414073 30.8495928 25.2341776 31.0190688 25.7264812 31.1454736 26.2192515 31.2302115 26.7484196 31.2938821 27.4413777 31.2728146 28.1520682 31.2091441 28.8636919 31.0822712 29.5566501 31.0406044 29.9574926 31.0406044 30.741912 31.0822712 31.1432211 31.1244061 31.5267979 31.1244061 31.9276404 31.1033386 32.3284829 31.0406044 32.729792 30.8706603 33.1861645 30.6590494 33.6420703 30.5317083 33.8968549 30.4469703 34.1707717 30.4043672 34.4628875 30.4043672 34.7545365 30.4680378 35.08305 30.7222517 35.7396104 30.7648548 36.1040551 30.7433192 36.2865108 30.7222517 36.4507675 30.6801168 36.6332232 30.6164463 36.7974799 30.2990299 37.4358414 29.9605461 38.056004 29.87534 38.2566586 29.8542725 38.4932443 29.87534 38.7120978 29.917943 38.9309512 30.1084865 39.3868571 30.3200974 39.824564 30.4043672 40.062083 30.4680378 40.2986687 30.5106408 40.5543866 30.5317083 40.791439 30.5106408 40.973428 30.4680378 41.1376848 30.2990299 42.0863609 30.2990299 42.4144077 30.2564269 42.7424546 30.2564269 42.9067114 30.2353594 43.0714348 30.2564269 43.2352249 30.2990299 43.3812827 30.4043672 43.9286497 30.4891052 44.47555 30.5527758 45.0224504 30.5743114 45.5698174 30.7648548 45.3691628 30.9553983 45.204906 31.0822712 44.9314559 31.2728146 44.6944035 31.1244061 44.4391522 31.0406044 44.1834343 31.0190688 43.8922519 31.0406044 43.6183351 31.2938821 42.9613081 31.5906992 42.3052143 31.9507186 41.6850517 32.3313373 41.083088 32.5218808 40.4442599 32.7128924 40.1894753 32.8608327 39.9337574 32.9877057 39.642575 33.0724437 39.3504592 32.7128924 38.1647308 32.6702893 37.8366839 32.6702893 37.1801235 32.6918249 36.8520766 32.7554955 36.5240298 32.8392971 36.1950496 32.9240351 35.8852016 33.0513762 35.574887 33.0939793 35.3378347 33.0939793 35.1012489 33.0513762 34.8641966 32.9877057 34.6448765 32.6070869 33.6784681 32.5644838 33.5324103 32.5434164 33.386819 32.5434164 33.2412278 32.5855513 33.0947033 32.734428 32.7484576 32.9451026 32.419944 33.1993166 32.0191016 33.4113956 31.5995935 33.4539987 31.3620745 33.4750662 31.1068233 33.4329313 30.8520386 33.3692607 30.5963207 32.8819002 29.3923934 32.7971622 29.1007443 32.7760948 28.8086286 32.7971622 28.4987806 32.8608327 28.2066649 33.0513762 27.9878114 33.3903282 27.4773089 33.5382685 27.2038587 33.6862089 26.9122097 33.7924825 26.6387595 33.9193554 26.2192515 33.983026 25.7997435 34.0466965 25.453031 34.1103671 25.0885864 34.1103671 24.7050095 34.0888314 24.3405648 34.0251609 23.9938524 33.9404229 23.6289411 33.81355 23.2826953 33.6445422 22.9541818 32.9666382 21.9149778 32.8182297 21.641061 32.7128924 21.349412 32.6918249 21.0390973 32.6918249 20.7292494 32.7760948 20.310208 32.9029677 19.8902333 33.0303087 19.4343275 33.1576498 18.9602228 33.2845227 18.0120133 33.2419196 17.9023533 33.1576498 17.8113587 32.8608327 17.5738397 32.7128924 17.4464474 32.6070869 17.3003896 32.6281544 16.8813482 32.6918249 16.370379 32.734428 15.8594098 32.7128924 15.3493739 32.6702893 14.8202059 32.6492218 14.6377502 32.6492218 14.4552946 32.7128924 14.2000433 32.7971622 13.9629909 32.9029677 13.7259386 33.2629871 13.105776 33.4329313 12.6862679 33.6862089 11.6465973 33.983026 10.6255923 34.067764 10.4244711 34.1735694 10.260681 34.6178587 9.76837732 34.7241323 9.64051837 34.7878028 9.49446052 34.8088703 9.33020376 34.8088703 8.94756018 34.8514734 8.72824008 34.9142076 8.52758552 35.0204812 8.34559649 35.528441 7.4515171 35.4015681 7.28772698 35.2531596 7.12347023 35.1267548 7.01427682 35.0204812 6.86775232 35.0420168 6.6493655 35.0841518 6.43051204 35.1688897 6.06560072 35.1904254 5.70115604 35.1904254 5.59149599 35.1688897 5.48183594 35.1052192 5.37264253 35.0420168 5.28118138 34.9142076 5.17198796 34.7667354 5.08099345 34.5546563 4.9713334 34.3641129 4.82574219 34.321978 4.69788323 34.321978 4.55182538 34.4277834 4.33297192 34.4909858 4.15051626 34.5335889 3.96852724 34.3856485 3.91393053 34.2793749 3.85886719 34.152502 3.76787268 34.0466965 3.65821263 33.8978198 3.45755807 33.6019391 3.01985114 33.5172011 2.91112437 33.4329313 2.83739548 33.3266576 2.78279878 33.1993166 2.74640097 32.6492218 2.65493982 32.1192582 2.52754751 31.844445 2.436553 31.5906992 2.29049514 31.3786201 2.10850612 31.2091441 1.88918602"></polygon>
                    </g>
                    <g id="Red-Bull" transform="translate(79.136150, 46.114865)">
                        <polygon id="Fill-1" points="91.3788611 24.7026547 96.5968699 24.7026547 96.5968699 0.0394317568 91.3788611 0.0394317568"></polygon>
                        <polygon id="Fill-2" points="99.4208857 24.7026547 104.63989 24.7026547 104.63989 0.0394317568 99.4208857 0.0394317568"></polygon>
                        <path d="M44.9632693,11.1967318 C43.746862,9.94425203 42.0994365,9.19931959 40.2947341,9.19931959 C36.4105925,9.19931959 33.2332014,12.7223534 33.2332014,17.1075223 C33.2332014,21.4529615 36.4105925,25.015725 40.2947341,25.015725 C42.0994365,25.015725 43.746862,24.2717858 44.9632693,23.0193061 L44.9632693,24.6243872 L50.3375595,24.6243872 L50.3375595,0.000893918919 L44.9632693,0.000893918919 L44.9632693,11.1967318 Z M41.8645166,20.5133534 C40.1762787,20.5133534 38.80359,18.9867385 38.80359,17.1462588 C38.80359,15.2680358 40.1762787,13.7424142 41.8645166,13.7424142 C43.5517591,13.7424142 44.9244478,15.2680358 44.9244478,17.1462588 C44.9244478,18.9867385 43.5517591,20.5133534 41.8645166,20.5133534 L41.8645166,20.5133534 Z" id="Fill-3"></path>
                        <path d="M69.602882,11.7456973 C74.2316002,6.85099459 70.7804677,1.21334595 64.6207885,1.21334595 L61.2453082,1.21334595 L55.6749196,1.21334595 L55.6749196,24.6240892 L64.6207885,24.6240892 C74.5471494,24.7035486 76.2333964,14.4075892 69.602882,11.7456973 M64.5809716,19.9250554 L61.2453082,19.9250554 L61.2453082,5.95012297 L64.6207885,5.95012297 C66.5031339,5.95012297 66.4254909,10.139623 64.4635116,10.1008865 L62.1491525,10.1008865 L62.1491525,14.6797378 L64.4635116,14.6797378 C68.779667,14.6797378 68.9757653,19.9250554 64.5809716,19.9250554" id="Fill-5"></path>
                        <path d="M24.2090922,9.04238716 C19.7366554,9.04238716 16.1262552,12.6836169 16.1262552,17.1075223 C16.1262552,21.5701642 19.7366554,25.2113939 24.2090922,25.2113939 C27.701037,25.2113939 30.4862313,23.8417115 31.5453617,21.1003601 L27.4651217,18.9470088 C26.170076,21.6476372 21.6180054,21.0238804 21.9325592,18.5963939 L32.0171923,18.4772047 C32.0171923,18.4772047 33.1539657,9.04238716 24.2090922,9.04238716 L24.2090922,9.04238716 Z M21.8160946,15.2680358 C22.012193,13.9748331 22.7557742,12.9200088 24.3653736,12.9200088 C25.9351561,12.957752 26.4836344,13.8973601 26.7185543,15.2680358 L21.8160946,15.2680358 Z" id="Fill-7"></path>
                        <path d="M9.73165609,1.33114459 L0.000398169308,1.33114459 L0.000398169308,24.5849554 L5.61060374,24.5849554 L5.61060374,5.87125946 L8.43561499,5.87125946 C11.2596308,5.87125946 11.1431663,11.1582932 8.55307493,11.1582932 L6.23871582,11.1582932 L6.23871582,17.1465568 L11.4567246,24.7408946 L17.8523192,24.6644149 L11.1043448,14.9554622 C19.1861863,12.292577 16.6757288,1.33114459 9.73165609,1.33114459" id="Fill-9"></path>
                        <path d="M84.1978776,18.8691385 C84.1978776,21.1794223 79.7652577,21.1406858 79.7652577,18.8691385 L79.7652577,9.82665203 L74.5472489,9.82665203 L74.5472489,19.5346115 C74.5472489,23.6863682 78.9022258,25.4056723 82.1194338,25.4056723 C85.2181864,25.4056723 89.4168818,23.762848 89.4168818,19.5346115 L89.4168818,9.82665203 L84.1978776,9.82665203 L84.1978776,18.8691385 Z" id="Fill-11"></path>
                    </g>
                    <g id="Lego" transform="translate(228.820031, 43.040541)">
                        <path d="M62.5097882,-2.27373675e-13 C61.5904184,-2.27373675e-13 60.8469066,0.750539189 60.8469066,1.6835527 C60.8469066,2.61491486 61.5904184,3.3638027 62.5097882,3.3638027 C63.4348837,3.3638027 64.1792134,2.61491486 64.1792134,1.6835527 C64.1792134,0.750539189 63.4348837,-2.27373675e-13 62.5097882,-2.27373675e-13 L62.5097882,-2.27373675e-13 Z M62.5097882,0.332747297 C63.252482,0.332747297 63.8553073,0.936316216 63.8553073,1.6835527 C63.8553073,2.42913784 63.252482,3.03683514 62.5097882,3.03683514 C61.7720021,3.03683514 61.1765383,2.42913784 61.1765383,1.6835527 C61.1765383,0.936316216 61.7720021,0.332747297 62.5097882,0.332747297 L62.5097882,0.332747297 Z M63.3604507,2.56124595 L63.1600543,2.21033378 C62.985832,1.90400811 62.9367553,1.85529324 62.7895253,1.8057527 L62.7895253,1.79419324 C63.0815316,1.75868919 63.2557538,1.56795811 63.2557538,1.30704459 C63.2557538,1.02961757 63.0815316,0.818244595 62.7110026,0.818244595 L61.8497068,0.818244595 L61.8497068,2.56124595 L62.2063307,2.56124595 L62.2063307,1.84703649 L62.2717663,1.84703649 C62.424722,1.84703649 62.4860678,1.86437568 62.5547752,1.93455811 C62.6243005,2.00391486 62.7289974,2.15336216 62.7895253,2.27803919 L62.9285759,2.56124595 L63.3604507,2.56124595 Z M62.2063307,1.56795811 L62.2063307,1.09154324 L62.5286009,1.09154324 C62.764169,1.09154324 62.8844069,1.17493649 62.8844069,1.32933784 C62.8844069,1.45153784 62.8067021,1.56795811 62.5670443,1.56795811 L62.2063307,1.56795811 Z" id="Fill-1"></path>
                        <path d="M53.900593,9.62828662 C53.8302498,11.4216542 51.2250959,18.5951245 50.2991825,20.1779447 C49.8983896,20.8649069 49.4468841,21.4321461 48.6322112,21.4321461 C47.9222352,21.4304947 47.6040547,20.9218785 47.5852419,20.3397772 C47.5345294,18.7222785 50.4758585,10.6058866 51.4835664,9.28645689 C51.9318001,8.58958662 52.4291105,8.47729473 52.9992179,8.48472581 C53.8351574,8.49628527 53.9210416,9.10398257 53.900593,9.62828662 M58.6454902,12.5569582 C58.0541162,15.528565 56.7233202,19.0459434 55.2796478,21.6682893 C52.9231491,25.9452893 50.0603426,26.5430785 47.5623395,26.5133542 C45.0643364,26.4836299 42.2465168,25.5506164 42.2260682,21.6600326 C42.2113452,18.8684231 43.4047266,14.9225191 44.4173421,12.3398055 C46.1841027,7.65409608 47.9893066,3.83286905 53.6952889,3.90140014 C60.350087,3.98149068 59.1632492,9.95525419 58.6454902,12.5569582 M37.5138888,8.38729608 C36.5511679,8.38729608 35.9221684,9.00407581 35.4534861,9.66709338 C34.4220578,11.129365 32.1866149,16.9900109 31.8398064,19.3968555 C31.6009665,21.0465555 32.3068528,21.3834312 33.0765388,21.3834312 C34.3132712,21.3834312 35.6996874,20.0623501 36.1724595,17.8817407 C36.1724595,17.8817407 33.8184146,17.8239434 34.4686806,15.7159934 C35.099316,13.6707947 36.2951512,13.2274069 38.2778491,13.1464907 C42.1843531,12.9838326 41.7991011,15.9001191 41.4858283,17.4515636 C40.4707589,22.4931393 36.9151533,26.5447299 31.8864292,26.5447299 C28.4420641,26.5447299 26.3047745,24.6225569 26.3047745,21.0779312 C26.3047745,18.5521893 27.5464146,14.5872947 28.5304021,12.2663204 C30.6243405,7.33043122 32.8205221,3.87250149 38.4152638,3.87250149 C41.7721089,3.87250149 44.4206139,5.09037311 44.0329081,8.26592176 C43.7474454,10.5959785 42.5925075,11.9632974 40.4936613,12.1276069 C39.906377,12.1746704 37.5048914,12.1135704 38.3023875,9.81984338 C38.5804887,9.01728662 38.6950009,8.38729608 37.5138888,8.38729608 M20.0098721,17.1237704 C19.7792117,17.7512839 19.3424292,19.069888 18.9915309,20.4669312 C20.1333817,20.1795961 20.9897698,19.9781312 22.4587985,20.0136353 C24.1306775,20.0540934 25.1997312,20.755092 25.1997312,22.1537866 C25.1997312,25.5357542 21.4944417,26.5298677 18.9236415,26.5298677 C16.1000964,26.5298677 13.6200881,24.907415 13.6200881,21.7921407 C13.6200881,18.1385258 15.5823374,12.6007191 17.4235309,8.91160014 C19.6843301,4.37946635 21.9950239,3.77672311 25.972689,3.77672311 C27.7222727,3.77672311 29.7352346,4.53139068 29.7352346,6.19677851 C29.7352346,8.50867041 27.7967057,9.388015 25.8753536,9.49948122 C25.0541371,9.54571905 23.7920484,9.59195689 23.0346316,9.53911365 C23.0346316,9.53911365 22.3958168,10.5233191 21.7152868,12.2754028 C25.2733463,11.7700893 26.7840901,12.5842055 26.1837187,14.6640826 C25.3723176,17.4705542 22.9601986,17.6563312 20.0098721,17.1237704 M8.67397642,20.3695015 C12.1535132,19.7576758 13.0311679,21.0292164 12.9207453,22.2066299 C12.5935674,25.7273109 9.39049598,26.5158312 6.61275576,26.4489515 C4.59652207,26.401888 2.78477454,25.4697001 2.73406197,23.1057907 C2.64572394,18.9732839 6.82133166,9.41278527 8.78603485,6.24301635 C9.69477141,4.73863527 10.8006327,3.99717851 12.5641214,3.99717851 C14.2360004,3.99717851 14.6498804,4.86166095 14.6253421,5.89870959 C14.5599065,8.66720014 10.1291001,17.0816609 8.67397642,20.3695015 M53.4392722,1.80500959 C49.8444052,1.80500959 47.361943,3.24333662 45.6794308,5.25303122 C45.394786,4.65193932 45.1796666,4.38772311 44.8762091,4.04011365 C43.5004261,2.46967851 41.2862498,1.73565284 38.3162925,1.73565284 C35.4150427,1.73565284 32.9963802,2.65050149 31.3171397,4.09213122 C30.4452106,2.66040959 28.3668131,1.71170824 25.8598126,1.71170824 C22.5839441,1.71170824 19.0152513,2.17986635 16.8984104,5.62375959 C16.8476979,4.38276905 16.7356394,3.72800824 16.04693,2.98985419 C15.2069008,2.09234473 13.8491126,1.85950419 12.525678,1.85950419 C10.114377,1.85950419 8.30099364,2.92132311 6.99637183,5.08541905 C5.10201189,8.1387677 0.511706208,18.1847636 0.61476724,23.0504704 C0.682656651,26.192992 2.77086948,28.4594718 6.50969473,28.5478191 C9.42975733,28.6171758 11.7208204,27.8303069 13.1792159,26.3440907 C14.4871094,27.7782893 16.4820766,28.6204785 18.8696572,28.6204785 C21.5279775,28.6204785 24.2042925,27.8137934 25.7837438,26.0534528 C27.1145398,27.7048042 29.2092962,28.6634136 31.9027881,28.6510285 C35.4232221,28.6336893 38.515871,26.9484853 40.5353765,24.3649461 C41.6445095,27.410038 44.4557855,28.6204785 47.525532,28.6204785 C54.2539451,28.6204785 57.2091793,23.9504569 59.6711929,16.5656136 C60.2249415,14.9018772 60.9651814,12.1243042 61.0878731,9.79177041 C61.2923593,5.91026905 59.6662852,1.80500959 53.4392722,1.80500959" id="Fill-4"></path>
                    </g>
                    <g id="Xiaomi" transform="translate(337.402191, 38.736486)">
                        <path d="M28.8525626,28.3479937 L33.4897209,28.3479937 L33.4897209,9.13530907 L28.8525626,9.13530907 L28.8525626,28.3479937 Z M20.8126116,28.3147673 L20.7287605,16.0053586 C20.7170603,14.2873576 19.5665459,13.1732955 17.8914748,13.1498416 C15.7327977,13.1185696 10.2610289,13.183068 8.79851057,13.2026129 L8.79851057,28.3479937 L4.16330232,28.3479937 L4.16330232,9.13530907 L8.79851057,9.18808043 L20.3387556,9.18808043 C23.2715925,9.18808043 25.2586674,11.8090581 25.2586674,14.5551234 C25.2625675,18.9371009 25.3113181,28.2952224 25.3113181,28.2952224 L20.8126116,28.3147673 Z M12.3397551,28.1916342 L17.0802646,28.1916342 L17.0802646,16.5487082 L12.3397551,16.5487082 L12.3397551,28.1916342 Z M36.8281628,-2.27373675e-13 L0.772209704,-2.27373675e-13 C0.347104362,-2.27373675e-13 0,0.345945594 0,0.773979973 L0,36.7327768 C0,37.1588567 0.347104362,37.5067568 0.772209704,37.5067568 L36.8281628,37.5067568 C37.2532682,37.5067568 37.6003725,37.1588567 37.6003725,36.7327768 L37.6003725,0.773979973 C37.6003725,0.345945594 37.2532682,-2.27373675e-13 36.8281628,-2.27373675e-13 L36.8281628,-2.27373675e-13 Z" id="Xaomi"></path>
                    </g>
                    <g id="Huel" transform="translate(418.992175, 38.736486)">
                        <polygon id="Fill-10" points="84.9017331 0.263194443 86.3134015 4.4185793 86.3290094 4.4185793 87.6626386 0.263194443 89.5274144 0.263194443 89.5274144 6.30566105 88.287192 6.30566105 88.287192 2.02384461 88.2703836 2.02384461 86.7936425 6.30566105 85.7724101 6.30566105 84.2949487 2.06695176 84.2788606 2.06695176 84.2788606 6.30566105 83.0379179 6.30566105 83.0379179 0.263194443"></polygon>
                        <polygon id="Fill-9" points="77.7982485 1.38133132 77.7982485 0.263194443 82.7346457 0.263194443 82.7346457 1.38133132 80.9296599 1.38133132 80.9296599 6.30566105 79.6041948 6.30566105 79.6041948 1.38133132"></polygon>
                        <polygon id="Fill-7" points="68.4893291 28.2436126 74.0411551 28.2436126 74.0411551 0.24058125 68.4893291 0.24058125"></polygon>
                        <path d="M59.9059818,12.7139846 C59.2422888,11.9806813 58.2309013,11.6148726 56.8754211,11.6148726 C55.9888962,11.6148726 55.2534071,11.7649048 54.6658323,12.0654507 C54.079458,12.3674416 53.6102625,12.7395117 53.2582459,13.1838284 C52.90767,13.6279043 52.6574644,14.0991931 52.5160334,14.596009 C52.3724414,15.0930658 52.2867184,15.5371417 52.2617458,15.9287184 L61.2943586,15.9287184 C61.032147,14.5162969 60.5703953,13.4458428 59.9059818,12.7139846 M53.6292321,23.3802349 C54.464131,24.1903604 55.6628126,24.5961456 57.2264772,24.5961456 C58.3480801,24.5961456 59.3126441,24.3148654 60.1204095,23.7525459 C60.9279347,23.1902263 61.4240236,22.5956366 61.6067553,21.9680543 L66.4946482,21.9680543 C65.7135362,24.3996348 64.5146145,26.1378885 62.8969228,27.1828155 C61.2816322,28.2294282 59.3253705,28.7517713 57.0329401,28.7517713 C55.4414215,28.7517713 54.0083823,28.4979448 52.7309413,27.9881245 C51.4532601,27.478545 50.3707969,26.7515031 49.4852325,25.8106113 C48.5977472,24.8694786 47.9136439,23.7462845 47.4324424,22.4393431 C46.9498002,21.1324017 46.7091995,19.6927674 46.7091995,18.1238116 C46.7091995,16.6092816 46.9577242,15.1971009 47.4516521,13.8899187 C47.9460602,12.5829773 48.6503336,11.4518361 49.5630316,10.4979398 C50.4759697,9.54259869 51.5632353,8.79147465 52.8296308,8.2421595 C54.0921844,7.69404846 55.4940078,7.41927048 57.0329401,7.41927048 C58.752443,7.41927048 60.251035,7.75160494 61.528476,8.41771879 C62.8051967,9.08407346 63.8552437,9.98185815 64.6764558,11.1050523 C65.4967074,12.2299322 66.0912457,13.5113464 66.4557486,14.9490542 C66.8207318,16.3872436 66.9503969,17.8890101 66.8469049,19.4579659 L52.2617458,19.4579659 C52.339785,21.2617232 52.7955337,22.5686646 53.6292321,23.3802349" id="Fill-4"></path>
                        <path d="M39.9832563,28.2437089 L39.9832563,25.4191069 L39.867038,25.4191069 C39.1630047,26.596486 38.2517474,27.4463471 37.1294242,27.9686901 C36.0087818,28.491274 34.8607657,28.7516027 33.6884975,28.7516027 C32.202872,28.7516027 30.9833,28.5570185 30.0307419,28.1639968 C29.0805851,27.7724201 28.3316493,27.2178069 27.782974,26.4975081 C27.2357394,25.7800991 26.852507,24.9030252 26.6303956,23.8708618 C26.4090045,22.8370126 26.2973485,21.6931078 26.2973485,20.4389064 L26.2973485,7.96721294 L31.8506152,7.96721294 L31.8506152,19.4180616 C31.8506152,21.0924975 32.1111459,22.3401967 32.6322074,23.1645306 C33.1539892,23.9874196 34.0794136,24.399707 35.4096812,24.399707 C36.9205194,24.399707 38.0149886,23.9491289 38.6938092,23.046287 C39.3723897,22.1453716 39.7099992,20.6609444 39.7099992,18.5951726 L39.7099992,7.96721294 L45.263506,7.96721294 L45.263506,28.2437089 L39.9832563,28.2437089 Z" id="Fill-2"></path>
                        <polygon id="Fill-1" points="17.4408161 0.240701661 17.4408161 10.986905 6.13882457 10.986905 6.13882457 0.240701661 -9.60481993e-05 0.240701661 -9.60481993e-05 28.243733 6.13882457 28.243733 6.13882457 16.1633754 17.4408161 16.1633754 17.4408161 28.243733 23.5794966 28.243733 23.5794966 0.240701661"></polygon>
                    </g>
                    <g id="Castrol" transform="translate(549.658842, 36.891892)">
                        <path d="M14.4572789,16.3990919 L15.2839914,16.3990919 C15.5611551,16.3990919 15.8050387,16.1965327 15.8299561,15.946807 L15.8345641,15.895181 C15.8548735,15.6409959 15.6533154,15.4428961 15.372397,15.4428961 L14.7463893,15.4428961 L15.0068277,14.632488 L15.8675029,14.632488 C16.1446666,14.632488 16.3923049,14.430615 16.4134676,14.1810607 L16.4172223,14.1287487 C16.4421397,13.8836538 16.249627,13.6682311 15.9680259,13.6682311 L28.2041893,13.6636002 C28.7711461,16.2867496 28.313587,18.2382465 28.313587,18.2382465 L14.7554347,18.2382465 C15.0317451,18.2382465 15.2802367,18.0356874 15.3051541,17.7815023 L15.3097621,17.7298763 C15.3346796,17.4756911 15.1285134,17.2775914 14.8475951,17.2775914 L14.1673152,17.2775914 L14.4489162,16.4035513 L14.4572789,16.3990919 Z M16.1153118,16.5841565 C15.9598339,16.5841565 15.8215934,16.6874085 15.8087933,16.8208471 L15.8050387,16.8465743 C15.7922386,16.9801845 15.9099991,17.0841225 16.0647943,17.0841225 L16.8500346,17.0841225 C17.0055125,17.0841225 17.143753,16.9801845 17.1565531,16.8465743 L17.1603078,16.8208471 C17.1731078,16.687237 17.0553474,16.5841565 16.8998694,16.5841565 L16.1153118,16.5841565 Z M16.6650312,14.7578655 C16.510236,14.7578655 16.3713128,14.8611174 16.3585127,14.9907827 L16.3547581,15.0211409 C16.341958,15.1538934 16.4597185,15.2578315 16.6145137,15.2578315 L17.3959993,15.2578315 C17.5507946,15.2578315 17.6897177,15.1538934 17.7025178,15.0211409 L17.7062725,14.9907827 C17.7190725,14.8609459 17.6013121,14.7578655 17.4458342,14.7578655 L16.6650312,14.7578655 Z M17.9621028,15.7185206 C17.8571424,15.7185206 17.764982,15.8005048 17.75679,15.8991258 L17.752182,15.9210798 C17.7438193,16.0205584 17.8194249,16.101685 17.9243853,16.101685 L18.4454326,16.101685 C18.5497103,16.101685 18.6425533,16.0205584 18.6507454,15.9210798 L18.6553534,15.8991258 C18.6637161,15.8005048 18.5881105,15.7185206 18.4824674,15.7185206 L17.9621028,15.7185206 Z M17.4712636,17.5273171 C17.3663032,17.5273171 17.2778975,17.6055279 17.2650975,17.7086084 L17.2613428,17.7298763 C17.2529801,17.8293549 17.3277324,17.9067082 17.4335461,17.9067082 L17.9493027,17.9067082 C18.0542631,17.9067082 18.1426688,17.8293549 18.1554688,17.7298763 L18.1592235,17.7086084 C18.1675862,17.6053564 18.0919806,17.5273171 17.9916282,17.5273171 L17.4712636,17.5273171 Z M18.4822967,13.965638 C18.3773363,13.965638 18.289784,14.0429912 18.276984,14.1416123 L18.276984,14.1635662 C18.2686213,14.2668182 18.3442269,14.3441714 18.4491873,14.3441714 L18.9656265,14.3441714 C19.0705869,14.3441714 19.1627473,14.2668182 19.1709393,14.1635662 L19.1709393,14.1416123 C19.179302,14.0429912 19.1036964,13.965638 18.998736,13.965638 L18.4822967,13.965638 Z M19.1376592,16.6836352 C19.0326988,16.6836352 18.9405385,16.7656193 18.9314931,16.8642404 L18.9314931,16.8861943 C18.9231304,16.9848154 18.998736,17.0667995 19.0999417,17.0667995 L19.6201357,17.0667995 C19.7250961,17.0667995 19.8172564,16.9848154 19.8263018,16.8861943 L19.8300565,16.8642404 C19.8384192,16.7656193 19.7628135,16.6836352 19.6578532,16.6836352 L19.1376592,16.6836352 Z M19.6412984,14.8352187 C19.536338,14.8352187 19.4479324,14.9172028 19.4351323,15.0120506 L19.4351323,15.0377778 C19.4267696,15.1372565 19.5023752,15.2190691 19.6035809,15.2190691 L20.1200202,15.2190691 C20.2249806,15.2190691 20.317141,15.1408583 20.325333,15.0377778 L20.329941,15.0120506 C20.3383037,14.9172028 20.2626981,14.8352187 20.1577377,14.8352187 L19.6412984,14.8352187 Z M20.7791374,15.7404745 C20.6734943,15.7404745 20.5857713,15.8216011 20.5775793,15.9210798 L20.5729713,15.9423476 C20.5646086,16.0418263 20.6402142,16.1236389 20.7451746,16.1236389 L21.2662219,16.1236389 C21.3704996,16.1236389 21.4587346,16.0416548 21.4715346,15.9423476 L21.4761427,15.9210798 C21.4845054,15.8216011 21.4088997,15.7404745 21.3039393,15.7404745 L20.7791374,15.7404745 Z M20.2876155,17.5494426 C20.1826551,17.5494426 20.0904948,17.6314267 20.0823027,17.7300478 L20.0823027,17.7520017 C20.07394,17.8506228 20.1495457,17.9326069 20.249898,17.9326069 L20.770092,17.9326069 C20.8750524,17.9326069 20.9634581,17.8506228 20.9762581,17.7520017 L20.9808661,17.7300478 C20.9883755,17.6314267 20.9129405,17.5494426 20.8086628,17.5494426 L20.2876155,17.5494426 Z M21.3039393,13.9869058 C21.1982963,13.9869058 21.1061359,14.0642591 21.0977732,14.167511 L21.0977732,14.1940959 C21.0894105,14.2927169 21.1650162,14.3700702 21.2699765,14.3700702 L21.7864158,14.3700702 C21.8913762,14.3700702 21.9797819,14.2927169 21.9917286,14.1940959 L21.9963366,14.167511 C22.0046993,14.06889 21.9290937,13.9869058 21.8241333,13.9869058 L21.3039393,13.9869058 Z M15.3386049,13.6423323 L14.5745274,13.6423323 C14.2973637,13.6423323 14.0543334,13.8448915 14.024808,14.0946172 L14.0210533,14.1462432 C13.9954532,14.4004283 14.200766,14.6029875 14.482367,14.6029875 L15.0109237,14.6029875 L15.3432129,13.6423323 L15.3386049,13.6423323 Z M14.1760192,17.273475 L13.4662139,17.273475 C13.1899035,17.273475 12.9460199,17.4760342 12.9211025,17.7257599 L12.9164945,17.7773859 C12.891577,18.031571 13.0968898,18.2341302 13.3784909,18.2341302 L13.9070475,18.2341302 L14.1796032,17.273475 L14.1760192,17.273475 Z M14.751168,15.4341488 L13.9824825,15.4341488 C13.7061721,15.4341488 13.4622885,15.636708 13.4327631,15.8864337 L13.4290084,15.9380597 C13.4034083,16.1883 13.6094037,16.3903446 13.8903221,16.3903446 L14.4528416,16.3903446 L14.7509974,15.4296895 L14.751168,15.4341488 Z M8.65612643,18.0187074 C8.76552417,18.0187074 8.8614392,17.910996 8.87048457,17.7729265 L8.87423925,17.7432544 C8.88260195,17.6096443 8.7988043,17.5019329 8.69384391,17.5019329 L8.1441245,17.5019329 C8.03472676,17.5019329 7.93795839,17.6096443 7.92584102,17.7432544 L7.921233,17.7729265 C7.9128703,17.910996 7.9922306,18.0187074 8.10162834,18.0187074 L8.65612643,18.0187074 Z M9.69702635,14.3573781 C9.80642409,14.3573781 9.90319245,14.2496667 9.91530983,14.1115972 L9.91991785,14.0858699 C9.92828055,13.9484865 9.84823758,13.8407751 9.73952251,13.8407751 L9.18912043,13.8407751 C9.08040536,13.8407751 8.98380766,13.9484865 8.97083695,14.0858699 L8.97083695,14.1115972 C8.95871957,14.2496667 9.03807987,14.3573781 9.15123229,14.3573781 L9.70163436,14.3573781 L9.69702635,14.3573781 Z M9.17222437,16.1708055 C9.28162212,16.1708055 9.37839048,16.0630941 9.39050786,15.929484 L9.39050786,15.8991258 C9.39887056,15.7655157 9.31951026,15.654031 9.21011251,15.654031 L8.66039311,15.654031 C8.55099537,15.654031 8.45508034,15.7655157 8.44210962,15.8991258 L8.44210962,15.929484 C8.43374693,16.0630941 8.51310723,16.1708055 8.62250497,16.1708055 L9.17222437,16.1708055 Z M10.1335933,17.1098498 C10.2429911,17.1098498 10.3389061,17.0021384 10.3518768,16.8685283 L10.3564848,16.842801 C10.3648475,16.7091909 10.2848046,16.5977062 10.1760895,16.5977062 L9.62568741,16.5977062 C9.51697233,16.5977062 9.42037464,16.7091909 9.40740392,16.842801 L9.40740392,16.8685283 C9.39904122,17.0021384 9.47908419,17.1098498 9.58779927,17.1098498 L10.1382013,17.1098498 L10.1335933,17.1098498 Z M10.6502033,15.2619479 C10.7589183,15.2619479 10.855516,15.1542365 10.8684868,15.0206263 L10.8722414,14.9902682 C10.8812868,14.8566581 10.8012438,14.7489467 10.6918461,14.7489467 L10.1421267,14.7489467 C10.0334116,14.7489467 9.93681391,14.8566581 9.9238432,14.9902682 L9.9238432,15.0206263 C9.9154805,15.1542365 9.99552347,15.2619479 10.1042385,15.2619479 L10.6539579,15.2619479 L10.6502033,15.2619479 Z M11.1284131,18.0229953 C11.2378108,18.0229953 11.3345792,17.9152839 11.3466966,17.7816738 L11.3513046,17.7513156 C11.3596673,17.6177055 11.2796243,17.5099941 11.1709092,17.5099941 L10.6205072,17.5099941 C10.5117921,17.5099941 10.4151944,17.617534 10.4022237,17.7513156 L10.4022237,17.7816738 C10.393861,17.9152839 10.4739039,18.0229953 10.582619,18.0229953 L11.1330211,18.0229953 L11.1284131,18.0229953 Z M12.1696543,14.361666 C12.2783694,14.361666 12.3749671,14.2493237 12.3879378,14.1157135 L12.3925458,14.086213 C12.4009085,13.9526028 12.3208655,13.8448915 12.2112971,13.8448915 L11.6615777,13.8448915 C11.5528627,13.8448915 11.456265,13.9526028 11.4432942,14.086213 L11.4395396,14.1157135 C11.4304942,14.2494952 11.5149745,14.361666 11.6192522,14.361666 L12.1696543,14.361666 Z M11.649119,16.1793812 C11.7585168,16.1793812 11.8552851,16.0716699 11.8674025,15.9336003 L11.8674025,15.9078731 C11.8757652,15.7704896 11.7957222,15.6627783 11.6870072,15.6627783 L11.1372878,15.6627783 C11.02789,15.6627783 10.9311217,15.7704896 10.9190043,15.9078731 L10.9190043,15.9336003 C10.9099589,16.0716699 10.9900019,16.1793812 11.0993996,16.1793812 L11.649119,16.1793812 Z M12.7949793,17.1614758 C12.9588199,17.1614758 13.1052525,17.0234062 13.1226606,16.8472604 L13.1264152,16.807812 C13.1392153,16.636297 13.0177002,16.4891372 12.8492515,16.4891372 L12.0179311,16.4891372 C11.8547731,16.4891372 11.7076579,16.636297 11.6909325,16.807812 L11.6863245,16.8472604 C11.6735244,17.0194614 11.7957222,17.1614758 11.9634882,17.1614758 L12.7949793,17.1614758 Z M13.3197813,15.3221496 C13.4836219,15.3221496 13.6300545,15.1803067 13.6474625,15.0079342 L13.6512172,14.9691719 C13.6640173,14.7969709 13.5425021,14.6542704 13.3740535,14.6542704 L12.5427331,14.6542704 C12.3795751,14.6542704 12.2324599,14.7969709 12.2157345,14.9691719 L12.2111265,15.0079342 C12.1983264,15.1801352 12.3205242,15.3221496 12.4882902,15.3221496 L13.3197813,15.3221496 Z M59.2881676,10.5797616 C60.4048438,11.997161 60.034837,14.3319939 59.5946861,15.9685894 L56.7104085,26.5649536 C55.50618,27.102996 54.0413425,27.1932129 52.6604733,27.4389938 C49.9898713,27.7106734 47.0142867,27.5983311 45.5284571,25.0653986 C44.7597716,23.2907335 45.0664607,20.9089056 46.2080544,19.4055772 C48.4874869,16.6225758 51.786998,16.1749219 55.0238742,15.6360219 C55.2880672,14.7793048 55.6150658,13.7497007 55.2880672,12.8278079 C54.3057062,11.5272101 52.3577095,12.1563269 51.0017577,12.2897655 C50.2339255,12.4233757 49.5618376,12.6941977 48.8363309,12.8967569 C48.869611,12.9180247 49.5159281,9.94206908 49.5159281,9.92920546 C52.3790429,8.84797531 56.8247556,8.0854199 59.2920929,10.5749592 L59.2881676,10.5797616 Z M54.1923831,18.673723 C52.7903511,18.8973784 51.0650753,19.3580676 50.2549176,20.8658554 C49.835076,21.7832887 49.6418806,23.1794203 50.4059582,23.9845114 C50.9722323,24.5489671 51.9378679,24.2515602 52.6604733,24.2515602 L54.1879457,18.673723 L54.1923831,18.673723 Z M103.816634,11.2774844 C105.168148,14.1289202 104.01,17.5017614 103.17885,20.2152992 C102.213044,22.9552503 100.28621,26.0951742 97.3565348,27.0649197 C95.3044311,27.6461838 92.71848,27.7364007 90.9885962,26.3713133 C88.6511367,24.17455 89.5193213,20.1940314 90.3550791,17.6353715 C91.5343902,14.0001125 94.3551795,9.48601087 98.4943737,9.01640297 C100.592558,8.96855031 102.737675,9.24022996 103.812879,11.2821153 L103.816634,11.2774844 Z M98.8295643,12.1302566 C98.4105761,12.2425989 98.0405693,12.5096477 97.7091334,12.8974429 C95.744582,16.084362 94.3635422,20.4046517 94.2548271,23.5150751 C94.2962993,24.0105817 94.5606629,24.3163928 95.0438221,24.3208522 C95.7490194,24.3290849 96.0511005,23.984683 96.4663341,23.5582968 C98.2882076,20.5473521 99.6864849,16.6404134 99.8163627,12.8236915 C99.8375254,12.2038365 99.2915607,12.0868634 98.8341723,12.1300851 L98.8295643,12.1300851 L98.8295643,12.1302566 Z M93.423336,9.43387033 L91.6724601,12.1950893 C90.594184,12.082747 89.4397903,12.1305997 88.4741547,12.462138 L84.5329345,27.0558294 L80.0247576,27.0558294 L84.4868544,10.3041371 C86.7452949,9.22736634 89.3266379,8.75312755 92.1051017,9.04607506 L93.423336,9.42923942 L93.423336,9.43387033 Z" id="Fill-4"></path>
                        <path d="M72.242004,9.5501403 C72.2715295,9.57140815 71.4613718,12.285632 71.4530091,12.285632 C69.7277332,12.1475625 67.2090251,11.6777831 66.1594212,13.543008 C65.4625865,16.3687166 69.4423775,17.3338311 69.8787738,19.8280013 C70.4035758,22.0072701 69.8787738,24.2987096 68.1074178,25.7161091 C65.6143098,27.9993159 61.4751155,27.5295365 58.4362134,26.7457132 C58.4565228,26.7541175 59.1874909,23.872152 59.1791282,23.872152 C60.992639,24.2340485 64.1238722,25.0399972 65.4165064,22.976844 C66.293907,20.4569466 63.183154,19.5175593 62.1132406,17.631238 C60.9330762,16.0629055 61.1687677,13.6376843 62.1132406,12.0185833 C64.3633184,8.78312551 68.7832604,8.39978963 72.242004,9.5501403 L72.242004,9.5501403 Z M8.50083625,6.00081022 C7.47239504,9.45563557 6.55283958,12.9619154 5.56672387,16.442468 C5.38172051,17.3811692 5.28512282,18.5100806 5.98195744,19.2030009 C6.50675941,19.7463602 7.11979638,20.0604041 7.86271118,20.082358 L27.8725998,20.082358 C26.9032095,23.9416156 23.6753787,27.0685043 20.1613388,28.4039196 C16.2033932,29.9070765 11.4934875,29.1148491 8.34501699,26.530462 C4.44970634,23.3207315 2.61588611,18.5745702 3.70679154,13.5044172 C4.29866577,10.6529813 5.95686934,7.84836911 8.49674023,6.00526961 L8.50083625,6.00081022 Z M109.113993,22.2098292 C109.135156,22.7266037 108.828638,23.3342812 109.176628,23.786566 C109.873463,24.5012688 111.015057,24.1872249 112.002026,24.2517146 C112.002026,24.2949363 111.426706,27.0599286 111.426706,27.0599286 C111.426706,27.0599286 109.764919,27.0211662 108.899635,27.0552977 C107.061207,27.116014 105.268688,27.0515244 104.497101,25.1302141 C103.993462,22.0973154 105.4583,19.3837776 106.075091,16.5536097 C106.973655,12.9403045 109.009204,5.61267192 109.009204,5.61267192 L113.799152,4.64824343 L109.117919,22.2050268 L109.113993,22.2098292 Z M80.9101966,4.65253131 L79.7051148,9.54979727 L82.9245829,9.54979727 L82.2239936,12.3460053 L78.9879707,12.3460053 C78.9879707,12.3460053 77.7323714,16.787213 77.1495425,18.9277194 C76.7003461,20.5689458 76.1671815,22.5456555 76.1460187,23.8210406 C76.8677708,24.6094947 78.1143248,24.1139881 79.0801311,24.2474267 C79.0128882,25.1693195 78.6391268,26.0867529 78.3998512,27.0086456 C76.0577837,26.8060865 72.842753,27.9085845 71.528956,25.4403131 C71.1340319,24.6518589 71.3772328,23.6184814 71.528956,22.7958958 C72.3805859,19.3798328 74.3074198,12.3458338 74.3074198,12.3458338 L72.7285765,12.3458338 L73.4044191,9.54962576 L75.0458972,9.54962576 C75.4619841,8.17630567 76.2509791,5.39296128 76.2509791,5.39296128 L80.914122,4.65235979 L80.9101966,4.65235979 L80.9101966,4.65253131 Z M46.7917536,6.5391956 C47.7317892,8.60680815 46.8212791,11.1351098 46.2753143,13.0905516 L41.4778563,13.9093639 C41.7164492,12.0655784 42.7455731,10.2741048 42.4178918,8.24954254 C42.3084941,8.00376164 42.0652932,7.77530374 41.8048549,7.71081413 C40.4910579,7.55593614 39.6385747,8.92102352 39.0678632,9.86504172 C37.4475478,13.38813 36.2221565,17.2738009 35.6550291,21.2536335 C35.6347197,22.3561315 35.3070384,23.8987368 36.4863495,24.3676587 C37.0782238,24.4587331 37.5147907,24.2561739 37.9095442,23.8767829 C38.9589775,22.5283325 40.0546616,19.1343949 40.0546616,19.1343949 C41.7164492,18.888614 43.3118472,18.5531308 44.9570801,18.2169615 C43.9921271,21.8781194 42.6150126,26.9695402 38.132265,27.7146011 C35.8565872,27.9816499 33.4058046,27.9171603 31.8730415,26.1423237 C29.9257275,23.6702789 30.6476502,19.7631687 31.2395245,16.8685111 C32.5744841,11.9539221 35.1807446,5.05353323 41.2172473,4.42818977 C43.3577567,4.24758454 45.6795148,4.45014368 46.7955083,6.5391956 L46.7917536,6.5391956 Z M27.6379322,11.7254642 L9.5963497,11.7254642 L11.5858185,4.24758454 C15.9468803,2.59795389 20.7323916,3.56238237 24.0197853,6.47007508 C26.6473792,8.79650367 27.5541346,11.4584155 27.6379322,11.7254642 L27.6379322,11.7254642 Z M124.28444,32.5436041 L15.7963517,32.5436041 C9.94485234,32.2810148 4.1899507,29.1707629 1.56611149,23.4464519 C-0.994239474,18.2335985 -0.427965343,10.7346225 3.35863023,6.199253 C7.05682015,1.68909624 12.1314419,0.138086675 17.6936602,1.71514937e-05 L133.120569,1.71514937e-05 L124.288194,32.5389732 L124.28461,32.5436041 L124.28444,32.5436041 Z M132.058165,0.76720346 L18.3695027,0.76720346 C12.2242849,0.831693076 6.16286478,2.51614126 2.83382826,8.24508315 C-0.0753666835,12.8713555 0.096836631,20.1852669 3.09887459,24.6863334 C6.09562186,29.6232193 11.1702436,31.617938 16.4221887,31.7765893 L123.65024,31.7765893 L132.054581,0.767374975 L132.058165,0.767374975 L132.058165,0.76720346 Z" id="Fill-1"></path>
                    </g>
                    <g id="EE" transform="translate(731.856025, 0.000000)">
                        <path d="M25.9419996,0 C11.3294272,0 0.000225987418,11.8711526 0.000225987418,25.7529944 C0.000225987418,38.0517893 8.02955893,44.6754893 8.02955893,44.6754893 C8.82458267,45.3747117 8.62345387,45.7378 8.05803335,46.3106324 C8.05803335,46.3106324 0,53.6389909 0,64.973099 C0,80.5091104 12.4315678,90.9999385 25.9417736,90.9999385 C41.0485805,90.9999385 51.7927003,78.7181315 51.7927003,65.1556624 C51.7927003,53.4820226 44.0555691,46.5919522 44.0555691,46.5919522 C42.9651798,45.5414198 42.9683436,45.3674635 44.0555691,44.4082128 C44.0555691,44.4082128 51.7927003,37.9065993 51.7927003,25.7532209 C51.7929263,12.0206462 40.7579607,0 25.9419996,0 M20.1677951,13.3599732 C20.905644,13.3599732 21.5546799,13.7409554 21.9316269,14.3149203 C22.307444,13.7398229 22.9585137,13.3599732 23.6974926,13.3599732 C24.5465273,13.3599732 25.2771446,13.8607768 25.611606,14.5824233 C25.9471973,13.8607768 26.6755548,13.3599732 27.5236855,13.3599732 C28.3706864,13.3599732 29.1022077,13.8598708 29.437799,14.5803847 C29.7733903,13.8598708 30.5049116,13.3599732 31.3519124,13.3599732 C32.5164256,13.3599732 33.459923,14.302236 33.459923,15.4673802 C33.459923,16.6313919 32.5166516,17.5770523 31.3519124,17.5770523 C30.5049116,17.5770523 29.7733903,17.0771547 29.437799,16.3577733 C29.1022077,17.0771547 28.3706864,17.5770523 27.5236855,17.5770523 C26.6755548,17.5770523 25.9471973,17.0762487 25.611606,16.3546022 C25.2771446,17.0762487 24.5465273,17.5770523 23.6974926,17.5770523 C22.9585137,17.5770523 22.307444,17.1972026 21.9316269,16.6221052 C21.7813453,16.8513287 21.5906119,17.0497475 21.3653024,17.2046773 C21.9158078,17.5856595 22.2778396,18.2191954 22.2778396,18.9397093 C22.2778396,19.6550137 21.9210055,20.287417 21.3768278,20.6683992 C21.9210055,21.0493814 22.2778396,21.6817848 22.2778396,22.3979951 C22.2778396,23.1132994 21.9210055,23.7457028 21.3768278,24.126685 C21.5431545,24.2433353 21.6902723,24.3855808 21.8172773,24.5448141 C22.2037158,24.0598659 22.7987406,23.7479678 23.4667594,23.7479678 C24.2407663,23.7479678 24.9151128,24.1660969 25.2825683,24.786722 C25.6488939,24.1649644 26.3255003,23.7479678 27.1004111,23.7479678 C27.8637966,23.7479678 28.5338493,24.1554512 28.9033387,24.7633919 C29.2728282,24.1554512 29.9419769,23.7479678 30.7062664,23.7479678 C31.8719095,23.7479678 32.8174408,24.6913632 32.8174408,25.8553749 C32.8174408,27.0205191 31.8719095,27.965953 30.7062664,27.965953 C29.9419769,27.965953 29.2728282,27.5596021 28.9033387,26.9505289 C28.5338493,27.5596021 27.8635706,27.965953 27.1004111,27.965953 C26.3255003,27.965953 25.6488939,27.5489564 25.2825683,26.9281048 C24.9151128,27.5478239 24.2407663,27.965953 23.4667594,27.965953 C22.7987406,27.965953 22.2037158,27.6540549 21.8172773,27.1691067 C21.6880125,27.3315111 21.5356969,27.472624 21.3653024,27.5904069 C21.9169377,27.9702566 22.2778396,28.604925 22.2778396,29.3254389 C22.2778396,30.0459529 21.9167117,30.6826598 21.3653024,31.0625095 C21.9158078,31.4434917 22.2778396,32.0770276 22.2778396,32.7975415 C22.2778396,33.5180555 21.9167117,34.1515913 21.3653024,34.5325736 C21.588578,34.6863708 21.7793114,34.8807125 21.9284631,35.106765 C22.3042802,34.5284965 22.9564798,34.1452492 23.6974926,34.1452492 C24.5465273,34.1452492 25.2771446,34.6460528 25.611606,35.3676993 C25.9471973,34.6460528 26.6755548,34.1452492 27.5236855,34.1452492 C28.3706864,34.1452492 29.1022077,34.6451468 29.437799,35.3656607 C29.7733903,34.6451468 30.5049116,34.1452492 31.3519124,34.1452492 C32.5164256,34.1452492 33.459923,35.0906831 33.459923,36.2558273 C33.459923,37.419839 32.5166516,38.3621018 31.3519124,38.3621018 C30.5049116,38.3621018 29.7733903,37.8633368 29.437799,37.1428228 C29.1022077,37.8633368 28.3706864,38.3621018 27.5236855,38.3621018 C26.6755548,38.3621018 25.9471973,37.8612982 25.611606,37.1396517 C25.2771446,37.8622042 24.5465273,38.3621018 23.6974926,38.3621018 C22.9616776,38.3621018 22.3137716,37.9842907 21.9368246,37.4123643 C21.5610075,37.9906328 20.9088078,38.3736536 20.1677951,38.3736536 C19.0032819,38.3736536 18.0597845,37.4313908 18.0597845,36.2662466 C18.0597845,35.5468651 18.4218163,34.9121968 18.9723217,34.5323471 C18.4218163,34.1513648 18.0597845,33.517829 18.0597845,32.797315 C18.0597845,32.0768011 18.4218163,31.4432652 18.9723217,31.062283 C18.4218163,30.6824333 18.0597845,30.0457264 18.0597845,29.3252124 C18.0597845,28.6046985 18.4218163,27.9700301 18.9723217,27.5901804 C18.4218163,27.2091982 18.0597845,26.5756623 18.0597845,25.8551484 C18.0597845,25.139844 18.4166186,24.5074407 18.9619262,24.1264585 C18.4166186,23.7454762 18.0597845,23.1130729 18.0597845,22.3977686 C18.0597845,21.6815582 18.4166186,21.0491549 18.9619262,20.6681727 C18.4166186,20.2871905 18.0597845,19.6547871 18.0597845,18.9394828 C18.0597845,18.2189689 18.4218163,17.585433 18.9723217,17.2044508 C18.4218163,16.8246011 18.0597845,16.1878942 18.0597845,15.4673802 C18.0600105,14.302236 19.0032819,13.3599732 20.1677951,13.3599732 M20.1677951,52.6351186 C20.905644,52.6351186 21.5546799,53.0149683 21.9316269,53.5900657 C22.307444,53.0149683 22.9585137,52.6351186 23.6974926,52.6351186 C24.5465273,52.6351186 25.2771446,53.1350162 25.611606,53.8575687 C25.9471973,53.1359222 26.6755548,52.6351186 27.5236855,52.6351186 C28.3706864,52.6351186 29.1022077,53.1338837 29.437799,53.8543976 C29.7733903,53.1338837 30.5049116,52.6351186 31.3519124,52.6351186 C32.5164256,52.6351186 33.459923,53.5805525 33.459923,54.7447907 C33.459923,55.9088024 32.5166516,56.8521978 31.3519124,56.8521978 C30.5049116,56.8521978 29.7733903,56.3523002 29.437799,55.6317862 C29.1022077,56.3523002 28.3706864,56.8521978 27.5236855,56.8521978 C26.6755548,56.8521978 25.9471973,56.3502616 25.611606,55.6286151 C25.2771446,56.3511676 24.5465273,56.8521978 23.6974926,56.8521978 C22.9585137,56.8521978 22.307444,56.4723481 21.9316269,55.8961181 C21.7813453,56.1242091 21.5917418,56.324893 21.3684663,56.4798227 C21.9178417,56.8596725 22.2778396,57.4952468 22.2778396,58.2137223 C22.2778396,58.9299326 21.9201015,59.5623359 21.373664,59.9433182 C21.9198756,60.3243004 22.2778396,60.9555712 22.2778396,61.672008 C22.2778396,62.3879919 21.9201015,63.0197157 21.373664,63.4016039 C21.5420246,63.5182543 21.6902723,63.6593672 21.8172773,63.8186005 C22.2037158,63.3347848 22.7987406,63.0226603 23.4667594,63.0226603 C24.2407663,63.0226603 24.9151128,63.4396569 25.2825683,64.0605084 C25.6488939,63.4396569 26.3255003,63.0226603 27.1004111,63.0226603 C27.8637966,63.0226603 28.5338493,63.4290111 28.9033387,64.0380844 C29.2728282,63.4290111 29.9419769,63.0226603 30.7062664,63.0226603 C31.8719095,63.0226603 32.8174408,63.9680942 32.8174408,65.1332384 C32.8174408,66.2972501 31.8719095,67.2392864 30.7062664,67.2392864 C29.9419769,67.2392864 29.2728282,66.8331621 28.9033387,66.2249948 C28.5338493,66.8329356 27.8635706,67.2392864 27.1004111,67.2392864 C26.3255003,67.2392864 25.6488939,66.8236488 25.2825683,66.2014383 C24.9151128,66.8225163 24.2407663,67.2392864 23.4667594,67.2392864 C22.7987406,67.2392864 22.2037158,66.9282944 21.8172773,66.4435726 C21.6880125,66.6059771 21.5368269,66.748902 21.3653024,66.8669114 C21.9158078,67.2478936 22.2778396,67.8823355 22.2778396,68.6019434 C22.2778396,69.3213248 21.9178417,69.9559932 21.3684663,70.3369754 C21.9178417,70.7168251 22.2778396,71.3523995 22.2778396,72.0708749 C22.2778396,72.7913889 21.9158078,73.4260573 21.3653024,73.805907 C21.588578,73.9594777 21.7793114,74.1560845 21.9284631,74.3832695 C22.3042802,73.805001 22.9564798,73.4219802 23.6974926,73.4219802 C24.5465273,73.4219802 25.2771446,73.9227838 25.611606,74.6455628 C25.9471973,73.9239163 26.6755548,73.4219802 27.5236855,73.4219802 C28.3706864,73.4219802 29.1022077,73.9216513 29.437799,74.6423917 C29.7733903,73.9216513 30.5049116,73.4219802 31.3519124,73.4219802 C32.5164256,73.4219802 33.459923,74.365149 33.459923,75.5293872 C33.459923,76.6945315 32.5166516,77.6397389 31.3519124,77.6397389 C30.5049116,77.6397389 29.7733903,77.1398412 29.437799,76.4195538 C29.1022077,77.1398412 28.3706864,77.6397389 27.5236855,77.6397389 C26.6755548,77.6397389 25.9471973,77.1380292 25.611606,76.4163827 C25.2771446,77.1389352 24.5465273,77.6397389 23.6974926,77.6397389 C22.9616776,77.6397389 22.3137716,77.2612482 21.9368246,76.6902279 C21.5610075,77.2675903 20.9088078,77.6506111 20.1677951,77.6506111 C19.0032819,77.6506111 18.0597845,76.7051772 18.0597845,75.540939 C18.0597845,74.8204251 18.4218163,74.1868892 18.9723217,73.805907 C18.4218163,73.4260573 18.0597845,72.7913889 18.0597845,72.0708749 C18.0597845,71.3523995 18.4209124,70.7168251 18.9702878,70.3369754 C18.4209124,69.9559932 18.0597845,69.3215513 18.0597845,68.6019434 C18.0597845,67.882562 18.4218163,67.2478936 18.9723217,66.8669114 C18.4218163,66.4870617 18.0597845,65.8521668 18.0597845,65.1330119 C18.0597845,64.415669 18.4175226,63.7821332 18.9639601,63.4011509 C18.4186525,63.0190362 18.0597845,62.3877654 18.0597845,61.6713285 C18.0597845,60.9553447 18.4175226,60.3238474 18.9639601,59.9428651 C18.4186525,59.5618829 18.0597845,58.9294796 18.0597845,58.2132692 C18.0597845,57.4947938 18.4209124,56.8592194 18.9702878,56.4793697 C18.4209124,56.0983875 18.0597845,55.4639456 18.0597845,54.7441112 C18.0600105,53.5805525 19.0032819,52.6351186 20.1677951,52.6351186" id="Fill-1"></path>
                    </g>
                </g>
            </g>
        </g>
    </g>
</svg>