<?xml version="1.0" encoding="utf-8"?>
<!-- Generator: Adobe Illustrator 21.0.0, SVG Export Plug-In . SVG Version: 6.00 Build 0)  -->
<svg version="1.1" id="Layer_1" xmlns="http://www.w3.org/2000/svg" xmlns:xlink="http://www.w3.org/1999/xlink" x="0px" y="0px"
	 viewBox="0 0 784 92" style="enable-background:new 0 0 784 92;" xml:space="preserve">
<style type="text/css">
	.st0{fill:#FFFFFF;}
</style>
<title>Logos</title>
<desc>Created with Sketch.</desc>
<g id="Jamal-Benmiloud">
	<g id="Home" transform="translate(-328.000000, -2391.000000)">
		<g id="Topics" transform="translate(0.000000, 1539.000000)">
			<g id="Logos" transform="translate(328.000000, 852.874118)">
				<g id="Monster" transform="translate(0.000000, 32.587838)">
					<polygon id="Fill-1" class="st0" points="20.58,-7.5337 20.3683,-7.4973 20.1778,-7.4236 19.6909,-7.041 18.9713,-6.7493 
						17.4255,-6.4754 17.0654,-6.3662 16.727,-6.2019 16.4301,-6.0018 16.1549,-5.7638 15.88,-5.6914 15.6258,-5.6914 
						15.3716,-5.7829 15.1385,-5.9103 15.0116,-5.9103 14.8852,-5.8916 14.7578,-5.8557 14.6516,-5.7829 14.5879,-5.5818 
						14.4826,-5.3993 14.3552,-5.2355 14.1857,-5.1081 13.9105,-5.0162 13.6563,-4.8702 13.4451,-4.6882 13.2546,-4.4698 
						13.3814,-4.1777 13.3814,-4.068 13.4025,-3.9406 13.4662,-3.831 13.5504,-3.7582 13.6563,-3.6849 13.7836,-3.6672 
						13.9105,-3.6672 14.0167,-3.7036 14.4189,-3.5757 14.5036,-3.466 14.5879,-3.3751 14.6942,-3.3023 14.8215,-3.2477 
						14.9484,-3.229 15.0753,-3.229 15.2021,-3.2477 15.329,-3.2836 15.7106,-3.466 16.5575,-2.8464 16.8538,-2.5911 
						17.108,-2.2808 17.1928,-2.1347 17.2138,-1.9709 17.2138,-1.6602 17.2775,-1.3503 17.4044,-0.7852 17.4681,-0.2019 
						17.4465,0.0538 17.3829,0.3091 17.2564,0.5461 17.0865,0.7463 16.9812,0.911 16.896,1.0748 16.896,1.1845 16.9175,1.2937 
						16.9596,1.4033 17.0018,1.4943 17.1928,1.75 17.4255,1.9871 17.6586,2.2059 17.8702,2.4612 17.976,2.6618 18.0186,2.771 
						18.0186,2.8802 17.9971,3.4463 17.9123,4.0118 17.8487,4.3763 17.8065,4.7225 17.785,5.0874 17.8065,5.4523 17.8702,5.8173 
						18.0186,6.1453 18.0818,6.3273 18.1029,6.5102 18.1029,6.6927 18.0603,6.8933 17.8487,7.6773 17.8065,7.9143 17.785,8.1514 
						17.8065,8.261 17.8487,8.3702 17.8913,8.4612 17.955,8.5527 18.2513,8.954 18.3576,9.1915 18.4418,9.4099 18.505,9.647 
						18.5476,9.9022 18.5687,10.1397 18.5687,10.3945 18.484,11.2709 18.4208,11.7076 18.315,12.1458 18.2724,12.5103 
						18.2513,12.8752 18.2513,13.2401 18.2939,13.6045 18.3576,13.9699 18.4418,14.3157 18.5476,14.6629 18.6961,15.0091 
						18.844,15.3736 18.9924,15.7567 19.0987,16.1398 19.1829,16.5411 19.204,16.8327 19.1619,17.1066 19.0987,17.3983 
						18.9713,17.6535 18.8229,18.0185 18.6961,18.4016 18.6113,18.7842 18.5687,19.1855 18.5476,19.6237 18.4629,20.0609 
						18.3576,20.4809 18.2302,20.9 17.9971,21.5383 17.7213,22.1771 17.4465,22.7786 17.0228,23.5813 16.9812,23.8001 
						17.0018,24.019 17.0654,24.2192 17.2775,24.6387 17.5528,25.04 17.6797,25.2411 17.785,25.4413 17.8702,25.6601 
						17.9123,25.8972 17.9334,26.2262 17.8913,26.9187 17.8276,27.2654 17.785,27.6116 17.7639,27.9583 17.7639,28.3228 
						17.8065,28.6699 17.8702,28.9065 18.0818,29.3811 18.1666,29.5995 18.2513,29.837 18.2939,30.0923 18.315,30.3293 
						18.336,30.5846 18.336,30.8212 18.2939,31.0769 18.1876,31.8977 18.124,32.7185 18.1455,33.2659 18.2302,33.8128 
						18.3576,34.3415 18.5261,34.8706 18.5476,34.9803 18.5261,35.1077 18.4418,35.3447 18.2939,35.5454 18.1029,35.8189 
						17.955,36.111 17.9334,36.2384 17.9334,36.3475 17.955,36.4754 18.0186,36.5851 18.2724,36.9136 18.5261,37.2594 
						18.7377,37.6243 18.9077,37.9897 19.0771,38.3905 19.1829,38.7918 19.2677,39.2113 19.3309,39.6126 19.3946,40.0685 
						19.3946,40.5062 19.2677,41.0895 19.1829,41.6733 19.0987,42.1843 19.0139,42.439 18.9077,42.6948 18.8229,42.8772 
						18.7803,43.0961 18.7593,43.2967 18.7803,43.5156 18.844,43.6798 18.9287,43.8259 19.1403,43.6612 19.3098,43.4787 
						19.9451,42.3481 20.0935,42.1115 20.2199,41.8558 20.3262,41.601 20.4109,41.327 20.4536,41.0536 20.4746,40.7615 
						20.4746,40.488 20.432,40.2146 20.432,39.6486 20.58,39.1931 20.7288,39.1021 20.7925,39.0475 20.8346,38.9561 20.8346,38.81 
						20.8136,38.6639 20.7073,38.1903 20.7073,38.0443 20.7499,37.9164 20.8562,37.6793 20.9194,37.4236 20.9615,36.9859 
						20.9826,36.6579 21.0247,36.3475 21.0884,36.02 21.1731,35.7092 21.2579,35.4726 21.3,35.2351 21.3426,34.9803 
						21.3211,34.7064 21.2579,34.4693 21.1305,34.2323 20.9404,33.9584 20.7925,33.6485 20.6652,33.3382 20.58,33.0102 
						20.5172,32.6816 20.4746,32.3536 20.4746,32.0073 20.5172,31.6784 20.6226,31.0223 20.6862,30.3475 20.6652,29.6905 
						20.5589,29.0344 20.7925,28.5785 21.0673,28.1585 21.0884,27.6485 21.0673,27.1193 21.0036,26.5906 20.8768,26.0796 
						20.8136,25.697 20.771,25.3139 20.771,24.9121 20.7925,24.5295 20.8346,24.2014 20.8346,23.8547 20.7925,23.5267 
						20.7288,23.1977 20.6652,22.8878 20.6441,22.578 20.7073,22.1039 20.8136,21.648 20.9826,21.1921 21.1937,20.7721 
						21.5121,20.1337 21.8084,19.4772 21.8721,19.0763 21.9348,18.6573 21.9564,18.4739 22.02,18.2919 22.0832,18.1281 
						22.1895,17.9821 22.6553,17.4347 23.0786,16.8509 23.1633,16.7049 23.2906,16.3773 23.3328,16.213 23.3538,16.0488 
						23.3538,15.8663 23.3328,15.7021 23.2906,15.5201 22.9306,14.4071 22.55,13.3129 22.4011,12.9116 22.2738,12.5103 
						22.2321,12.073 22.2532,11.6353 22.2953,11.1976 22.3801,10.7594 22.4863,10.3399 22.5711,9.9022 22.5921,9.465 
						22.5921,9.0273 22.6127,8.8994 22.6553,8.7715 22.8669,8.5709 23.227,8.261 23.2906,8.1701 23.3538,8.0599 23.3754,7.9507 
						23.3754,7.8415 23.2696,7.2396 23.1422,6.6194 22.9728,6.0174 22.8033,5.4337 22.7396,5.1971 22.7185,4.9414 22.7396,4.6861 
						22.7822,4.4309 22.9095,4.03 22.9938,3.6105 23.0149,3.3548 22.9512,3.1178 22.8248,2.8989 22.6343,2.7164 22.4227,2.5522 
						22.3375,2.4976 22.2953,2.4061 22.2738,2.3156 22.2738,2.2241 22.3164,2.0963 22.3801,1.9684 22.6127,1.5676 22.6553,1.4215 
						22.6553,1.2755 22.5921,1.0935 22.5074,0.9292 22.4011,0.6922 22.3164,0.4365 22.2953,0.2727 22.3375,0.1266 22.4648,-0.1286 
						22.5711,-0.3662 22.6553,-0.5664 22.7611,-0.7488 22.8669,-0.9131 22.9938,-1.0769 23.3964,-1.5146 23.5233,-1.6788 
						23.6291,-1.8617 23.6713,-2.0619 23.6923,-2.2626 23.7139,-2.4082 23.756,-2.5729 23.8197,-2.7003 23.9259,-2.8277 
						24.307,-3.1926 24.7092,-3.5029 25.0903,-3.5393 25.4287,-3.6485 25.4709,-3.831 25.4924,-4.0129 25.3655,-4.1413 
						25.2171,-4.2509 24.6881,-4.2873 24.4971,-4.3055 24.307,-4.3783 24.2012,-4.4698 24.1375,-4.5967 24.0949,-4.9616 
						24.0949,-5.1805 24.0528,-5.3993 23.9681,-5.5449 23.8197,-5.6364 22.9728,-6.0377 22.1474,-6.4936 21.3637,-6.9859 					"/>
					<polygon id="Fill-2" class="st0" points="7.982,-5.874 7.7494,-5.7275 7.5373,-5.545 7.3472,-5.363 7.1356,-5.1992 
						6.9657,-5.1624 6.7966,-5.1446 6.4998,-4.9253 6.1609,-4.7611 5.8013,-4.6519 5.4413,-4.5968 3.917,-4.5422 3.5569,-4.4876 
						3.1974,-4.3966 2.858,-4.2874 2.519,-4.1227 2.2437,-3.9771 1.9474,-3.8493 1.3547,-3.6673 1.1009,-3.6486 0.8463,-3.6673 
						0.6988,-3.6673 0.5714,-3.6304 0.4446,-3.5758 0.3172,-3.4848 0.1262,-3.2837 -0.0002,-3.0648 0.0209,-2.9374 0.0846,-2.8464 
						0.3383,-2.8278 0.6136,-2.8646 0.9099,-2.9192 1.2278,-2.9374 1.3762,-2.9192 1.5036,-2.8824 2.1173,-2.6822 2.7522,-2.5179 
						3.3875,-2.3719 4.0228,-2.2809 4.7639,-2.0984 5.0176,-1.9706 5.2297,-1.8068 5.4198,-1.5879 5.5471,-1.3504 5.7171,-0.95 
						5.7381,-0.7307 5.6955,-0.5301 5.5471,-0.1101 5.526,-0.0009 5.526,0.0906 5.5471,0.1998 5.5897,0.2908 5.7171,0.4364 
						5.8645,0.546 6.373,0.8563 6.5424,1.0388 6.6061,1.1662 6.6482,1.2936 6.754,1.6585 6.8809,2.0416 6.9657,2.4434 
						6.9446,2.6618 6.923,2.8624 6.8383,3.0444 6.7966,3.2091 6.7966,3.5736 6.923,4.1755 6.902,4.4854 6.8172,4.778 6.6272,5.2334 
						6.4572,5.7075 5.8645,8.3888 5.8224,8.9362 5.8645,9.1364 5.9282,9.337 6.0129,9.5372 6.1187,9.7197 6.4572,10.2124 
						6.7751,10.7234 6.9446,11.1242 7.0504,11.562 7.4951,12.9847 7.8973,14.4252 7.961,14.8998 7.9394,15.3553 7.9394,15.848 
						7.961,16.0846 8.0246,16.3226 8.0457,16.4682 8.0457,16.6138 8.0246,16.7598 7.982,16.8872 7.7915,17.4533 7.7494,17.6353 
						7.7278,17.8177 7.7915,17.9824 7.8758,18.1094 8.0668,18.3282 8.1941,18.5835 8.2784,18.8574 8.321,19.1308 8.4053,20.2979 
						8.5326,21.0272 8.5747,21.3558 8.5532,21.6843 8.5115,22.031 8.4479,22.3408 8.321,22.6693 8.1941,22.961 8.0246,23.2531 
						7.8341,23.5266 7.601,23.8728 7.4104,24.2559 7.3046,24.6754 7.2409,25.0763 7.3046,25.2592 7.4319,25.4235 7.8758,25.7879 
						8.0246,25.9335 8.1304,26.0982 8.173,26.3171 8.152,26.5354 8.0031,27.0646 7.961,27.1925 7.961,27.3199 7.982,27.4477 
						8.0246,27.5747 8.173,27.849 8.3421,28.1225 8.4479,28.3227 8.5115,28.5238 8.5115,28.7063 8.4479,28.87 8.321,29.1253 
						8.2573,29.3992 8.2573,29.6909 8.321,29.9643 8.5532,30.6209 8.8505,31.241 9.0621,31.934 9.2311,32.6451 9.358,33.375 
						9.4216,34.0861 9.4853,34.8523 9.6127,35.5999 9.7821,36.3479 9.9937,37.0955 10.2264,37.606 10.438,37.8435 10.608,38.263 
						10.7133,38.6279 10.6716,39.0106 10.6501,39.3937 10.8407,39.9956 11.2428,40.3055 11.1791,39.9956 11.1155,39.5761 
						11.2639,39.2476 11.497,38.8099 11.4334,38.5183 11.2002,38.2994 11.1155,38.0992 10.9886,37.9163 10.8407,37.2966 
						10.8407,37.0773 10.8196,36.8402 10.777,36.6214 10.7133,36.4025 10.629,35.9653 10.629,35.5276 10.7133,34.9615 
						10.7559,34.3964 10.777,33.8309 10.7559,33.2658 10.7133,32.4263 10.7133,31.5873 10.7981,30.7301 10.9249,29.9097 
						11.0518,29.29 11.0729,28.9797 11.0729,28.6512 11.0518,28.3409 11.0101,28.0315 10.946,27.7216 10.8407,27.4291 
						10.7559,27.1379 10.6716,26.8276 10.608,26.5173 10.5864,26.2074 10.5864,25.5872 10.629,25.2774 10.6922,24.9853 
						10.9886,24.1099 11.5607,21.9218 11.7718,21.2648 11.9413,20.59 11.9629,20.4076 11.9629,20.2069 11.9413,20.0244 
						11.8776,19.8425 11.7929,19.6782 11.6876,19.5321 11.5392,19.3861 11.3908,19.2764 11.2854,19.1672 11.2217,19.0576 
						11.2002,18.8756 11.2428,18.7118 11.4123,18.3469 11.5392,18.128 11.6028,17.8728 11.6244,17.708 11.5607,17.5256 
						11.4544,17.3436 11.3908,17.1252 11.3065,16.687 11.3065,16.4682 11.3276,16.2493 11.3908,16.03 11.4544,15.8298 
						11.6454,15.3917 11.8355,14.9726 12.0687,14.5526 12.3018,14.1523 12.3439,14.0426 12.3865,13.9147 12.3865,13.7874 
						12.3655,13.6777 12.2803,13.422 12.1529,13.2036 11.6454,12.4924 11.5181,12.31 11.4334,12.128 11.3702,11.9264 
						11.3276,11.7262 11.2854,11.471 11.2002,11.1975 10.9886,10.687 10.7349,10.1756 10.629,9.939 10.5654,9.6655 10.5443,9.4098 
						10.5654,9.1364 10.5864,8.8993 10.5864,8.6623 10.5017,8.0239 10.3744,7.4037 10.3107,7.0757 10.2901,6.7654 10.3322,6.4551 
						10.3954,6.1452 10.608,5.7075 10.8617,5.288 11.0518,4.9418 11.2217,4.595 11.3276,4.2301 11.3908,3.847 11.1791,3.7014 
						10.7559,3.5736 10.6501,3.2273 10.608,2.68 10.608,2.1144 10.629,1.5675 10.6716,1.0024 10.7981,0.6375 10.9249,0.491 
						11.0729,0.364 11.4544,0.0906 11.8566,-0.1287 12.0687,-0.2566 12.2592,-0.4209 12.3439,-0.5483 12.3655,-0.6938 
						12.3655,-0.9314 12.3439,-1.1502 12.3018,-1.4414 12.3018,-1.7335 12.3439,-1.916 12.4076,-2.062 12.5134,-2.2076 
						12.6614,-2.3173 12.6188,-2.4629 12.5766,-2.5912 12.2803,-3.0102 12.2592,-3.1199 12.3229,-3.2291 12.3655,-3.2837 
						12.3865,-3.3383 12.3865,-3.4111 12.3439,-3.4661 12.2166,-3.8856 12.0261,-4.4694 11.8992,-4.7247 11.7929,-4.8343 
						11.6665,-4.9253 9.5064,-4.9613 9.1468,-5.0891 8.7868,-5.2902 8.4689,-5.5273 8.2147,-5.8185 8.1094,-5.874 					"/>
					<polygon id="Fill-3" class="st0" points="30.7433,-5.8005 30.447,-5.5816 30.1506,-5.5089 29.7906,-5.3628 29.4311,-5.1444 
						29.3458,-4.9251 29.2405,-4.7244 29.1132,-4.5242 28.9648,-4.3418 28.6047,-4.0315 28.3936,-3.9041 28.1815,-3.7949 
						27.5888,-3.5574 26.9957,-3.338 26.3819,-3.1743 25.7471,-3.0469 25.556,-3.01 25.344,-2.9377 25.1539,-2.8462 24.9844,-2.737 
						24.836,-2.6092 24.6881,-2.4631 24.5607,-2.2988 24.476,-2.1164 24.4123,-1.8616 24.5181,-1.7883 24.6244,-1.7333 
						25.5134,-1.7333 25.8313,-1.6605 25.9376,-1.6236 26.0429,-1.5513 26.2971,-1.3688 26.5724,-1.2414 26.8903,-1.15 
						27.2073,-1.1322 28.4568,-1.1136 28.8168,-1.0954 29.1768,-0.9857 29.4943,-0.8397 29.7906,-0.6208 30.0022,-0.366 
						30.1506,-0.0562 30.2354,0.2728 30.2775,0.6008 30.2775,1.0204 30.2564,1.4581 30.2143,1.8776 30.1296,2.2971 30.1296,2.4795 
						30.1506,2.662 30.299,3.1902 30.299,3.3731 30.2354,3.5738 30.1506,3.7558 30.0874,3.9569 30.0448,4.1576 30.0448,4.4856 
						30.1296,4.7045 30.299,4.8869 30.3412,4.9779 30.3622,5.0871 30.3622,5.1968 30.2775,5.3792 30.1722,5.5617 29.4732,6.3274 
						29.2405,6.6196 29.1979,6.7292 29.2194,6.8566 29.3037,6.9845 29.4095,7.0937 29.6843,7.404 29.7485,7.5132 29.7906,7.6228 
						29.8121,7.9509 29.8121,8.2794 29.7695,8.6256 29.6843,8.9359 29.6001,9.264 29.5579,9.5738 29.5153,9.9024 29.4943,10.2122 
						29.5579,10.6322 29.6633,11.033 29.8121,11.4161 30.0233,11.781 30.4044,12.4558 30.7649,13.1306 30.8281,13.3312 
						30.8707,13.5496 30.8707,13.7507 30.8281,13.9696 30.5106,14.9728 30.447,15.1917 30.4259,15.4101 30.4044,15.6476 
						30.4259,15.8665 30.447,16.103 30.4891,16.3224 30.5528,16.5412 30.6375,16.7414 30.8496,17.2342 31.0191,17.7265 
						31.1455,18.2193 31.2302,18.7484 31.2939,19.4414 31.2728,20.1521 31.2091,20.8637 31.0823,21.5567 31.0406,21.9575 
						31.0406,22.7419 31.0823,23.1432 31.1244,23.5268 31.1244,23.9276 31.1033,24.3285 31.0406,24.7298 30.8707,25.1862 
						30.659,25.6421 30.5317,25.8969 30.447,26.1708 30.4044,26.4629 30.4044,26.7545 30.468,27.083 30.7223,27.7396 
						30.7649,28.1041 30.7433,28.2865 30.7223,28.4508 30.6801,28.6332 30.6164,28.7975 30.299,29.4358 29.9605,30.056 
						29.8753,30.2567 29.8543,30.4932 29.8753,30.7121 29.9179,30.931 30.1085,31.3869 30.3201,31.8246 30.4044,32.0621 
						30.468,32.2987 30.5106,32.5544 30.5317,32.7914 30.5106,32.9734 30.468,33.1377 30.299,34.0864 30.299,34.4144 
						30.2564,34.7425 30.2564,34.9067 30.2354,35.0714 30.2564,35.2352 30.299,35.3813 30.4044,35.9286 30.4891,36.4756 
						30.5528,37.0224 30.5743,37.5698 30.7649,37.3692 30.9554,37.2049 31.0823,36.9315 31.2728,36.6944 31.1244,36.4392 
						31.0406,36.1834 31.0191,35.8923 31.0406,35.6183 31.2939,34.9613 31.5907,34.3052 31.9507,33.6851 32.3313,33.0831 
						32.5219,32.4443 32.7129,32.1895 32.8608,31.9338 32.9877,31.6426 33.0724,31.3505 32.7129,30.1647 32.6703,29.8367 
						32.6703,29.1801 32.6918,28.8521 32.7555,28.524 32.8393,28.195 32.924,27.8852 33.0514,27.5749 33.094,27.3378 
						33.094,27.1012 33.0514,26.8642 32.9877,26.6449 32.6071,25.6785 32.5645,25.5324 32.5434,25.3868 32.5434,25.2412 
						32.5856,25.0947 32.7344,24.7485 32.9451,24.4199 33.1993,24.0191 33.4114,23.5996 33.454,23.3621 33.4751,23.1068 
						33.4329,22.852 33.3693,22.5963 32.8819,21.3924 32.7972,21.1007 32.7761,20.8086 32.7972,20.4988 32.8608,20.2067 
						33.0514,19.9878 33.3903,19.4773 33.5383,19.2039 33.6862,18.9122 33.7925,18.6388 33.9194,18.2193 33.983,17.7997 
						34.0467,17.453 34.1104,17.0886 34.1104,16.705 34.0888,16.3406 34.0252,15.9939 33.9404,15.6289 33.8135,15.2827 
						33.6445,14.9542 32.9666,13.915 32.8182,13.6411 32.7129,13.3494 32.6918,13.0391 32.6918,12.7292 32.7761,12.3102 
						32.903,11.8902 33.0303,11.4343 33.1576,10.9602 33.2845,10.012 33.2419,9.9024 33.1576,9.8114 32.8608,9.5738 32.7129,9.4464 
						32.6071,9.3004 32.6282,8.8813 32.6918,8.3704 32.7344,7.8594 32.7129,7.3494 32.6703,6.8202 32.6492,6.6378 32.6492,6.4553 
						32.7129,6.2 32.7972,5.963 32.903,5.7259 33.263,5.1058 33.4329,4.6863 33.6862,3.6466 33.983,2.6256 34.0678,2.4245 
						34.1736,2.2607 34.6179,1.7684 34.7241,1.6405 34.7878,1.4945 34.8089,1.3302 34.8089,0.9476 34.8515,0.7282 34.9142,0.5276 
						35.0205,0.3456 35.5284,-0.5485 35.4016,-0.7123 35.2532,-0.8765 35.1268,-0.9857 35.0205,-1.1322 35.042,-1.3506 
						35.0842,-1.5695 35.1689,-1.9344 35.1904,-2.2988 35.1904,-2.4085 35.1689,-2.5182 35.1052,-2.6274 35.042,-2.7188 
						34.9142,-2.828 34.7667,-2.919 34.5547,-3.0287 34.3641,-3.1743 34.322,-3.3021 34.322,-3.4482 34.4278,-3.667 34.491,-3.8495 
						34.5336,-4.0315 34.3856,-4.0861 34.2794,-4.1411 34.1525,-4.2321 34.0467,-4.3418 33.8978,-4.5424 33.6019,-4.9801 
						33.5172,-5.0889 33.4329,-5.1626 33.3267,-5.2172 33.1993,-5.2536 32.6492,-5.3451 32.1193,-5.4725 31.8444,-5.5634 
						31.5907,-5.7095 31.3786,-5.8915 31.2091,-6.1108 					"/>
				</g>
				<g id="Red-Bull" transform="translate(79.136150, 46.114865)">
					<polygon id="Fill-1_1_" class="st0" points="91.3789,16.7027 96.5969,16.7027 96.5969,-7.9606 91.3789,-7.9606 					"/>
					<polygon id="Fill-2_1_" class="st0" points="99.4209,16.7027 104.6399,16.7027 104.6399,-7.9606 99.4209,-7.9606 					"/>
					<path id="Fill-3_1_" class="st0" d="M44.9633,3.1967c-1.2164-1.2525-2.8638-1.9974-4.6685-1.9974
						c-3.8841,0-7.0615,3.523-7.0615,7.9082c0,4.3454,3.1774,7.9082,7.0615,7.9082c1.8047,0,3.4521-0.7439,4.6685-1.9964v1.6051
						h5.3743V-7.9991h-5.3743V3.1967z M41.8645,12.5134c-1.6882,0-3.0609-1.5266-3.0609-3.3671
						c0-1.8782,1.3727-3.4038,3.0609-3.4038c1.6872,0,3.0599,1.5256,3.0599,3.4038C44.9244,10.9867,43.5518,12.5134,41.8645,12.5134
						L41.8645,12.5134z"/>
					<path id="Fill-5" class="st0" d="M69.6029,3.7457c4.6287-4.8947,1.1776-10.5324-4.9821-10.5324h-3.3755h-5.5704v23.4107h8.9459
						C74.5471,16.7035,76.2334,6.4076,69.6029,3.7457 M64.581,11.9251h-3.3357V-2.0499h3.3755c1.8823,0,1.8047,4.1895-0.1573,4.1508
						h-2.3144v4.5789h2.3144C68.7797,6.6797,68.9758,11.9251,64.581,11.9251"/>
					<path id="Fill-7" class="st0" d="M24.2091,1.0424c-4.4724,0-8.0828,3.6412-8.0828,8.0651c0,4.4626,3.6104,8.1039,8.0828,8.1039
						c3.4919,0,6.2771-1.3697,7.3363-4.111l-4.0802-2.1534c-1.295,2.7006-5.8471,2.0769-5.5326-0.3506l10.0846-0.1192
						C32.0172,10.4772,33.154,1.0424,24.2091,1.0424L24.2091,1.0424z M21.8161,7.268c0.1961-1.2932,0.9397-2.348,2.5493-2.348
						c1.5698,0.0377,2.1183,0.9774,2.3532,2.348H21.8161z"/>
					<path id="Fill-9" class="st0" d="M9.7317-6.6689H0.0004V16.585h5.6102V-2.1287h2.825c2.824,0,2.7076,5.287,0.1175,5.287H6.2387
						v5.9883l5.218,7.5943l6.3956-0.0765l-6.748-9.709C19.1862,4.2926,16.6757-6.6689,9.7317-6.6689"/>
					<path id="Fill-11" class="st0" d="M84.1979,10.8691c0,2.3103-4.4326,2.2715-4.4326,0V1.8267h-5.218v9.708
						c0,4.1518,4.355,5.8711,7.5722,5.8711c3.0988,0,7.2975-1.6428,7.2975-5.8711v-9.708h-5.219V10.8691z"/>
				</g>
				<g id="Lego" transform="translate(228.820031, 43.040541)">
					<path id="Fill-1_2_" class="st0" d="M62.5098-8c-0.9194,0-1.6629,0.7505-1.6629,1.6836c0,0.9314,0.7435,1.6803,1.6629,1.6803
						c0.9251,0,1.6694-0.7489,1.6694-1.6803C64.1792-7.2495,63.4349-8,62.5098-8L62.5098-8z M62.5098-7.6673
						c0.7427,0,1.3455,0.6036,1.3455,1.3508c0,0.7456-0.6028,1.3533-1.3455,1.3533c-0.7378,0-1.3333-0.6077-1.3333-1.3533
						C61.1765-7.0637,61.772-7.6673,62.5098-7.6673L62.5098-7.6673z M63.3605-5.4388l-0.2004-0.3509
						c-0.1742-0.3063-0.2233-0.355-0.3705-0.4046v-0.0116c0.292-0.0355,0.4662-0.2262,0.4662-0.4871
						c0-0.2774-0.1742-0.4888-0.5448-0.4888h-0.8613v1.743h0.3566V-6.153h0.0654c0.153,0,0.2143,0.0173,0.283,0.0875
						c0.0695,0.0694,0.1742,0.2188,0.2347,0.3435l0.1391,0.2832H63.3605z M62.2063-6.432v-0.4764h0.3223
						c0.2356,0,0.3558,0.0834,0.3558,0.2378c0,0.1222-0.0777,0.2386-0.3174,0.2386H62.2063z"/>
					<path id="Fill-4" class="st0" d="M53.9006,1.6283c-0.0703,1.7934-2.6755,8.9668-3.6014,10.5497
						c-0.4008,0.687-0.8523,1.2542-1.667,1.2542c-0.71-0.0017-1.0282-0.5103-1.047-1.0924
						c-0.0507-1.6175,2.8906-9.7339,3.8983-11.0533c0.4482-0.6969,0.9455-0.8092,1.5157-0.8017
						C53.8352,0.4963,53.921,1.104,53.9006,1.6283 M58.6455,4.557c-0.5914,2.9716-1.9222,6.489-3.3658,9.1113
						c-2.3565,4.277-5.2193,4.8748-7.7173,4.8451c-2.498-0.0297-5.3158-0.9627-5.3363-4.8533
						c-0.0147-2.7916,1.1787-6.7375,2.1913-9.3202c1.7668-4.6857,3.572-8.5069,9.2779-8.4384
						C60.3501-4.0185,59.1632,1.9553,58.6455,4.557 M37.5139,0.3873c-0.9627,0-1.5917,0.6168-2.0604,1.2798
						c-1.0314,1.4623-3.2669,7.3229-3.6137,9.7298c-0.2388,1.6497,0.467,1.9866,1.2367,1.9866c1.2367,0,2.6231-1.3211,3.0959-3.5017
						c0,0-2.354-0.0578-1.7038-2.1657c0.6306-2.0452,1.8265-2.4886,3.8092-2.5695c3.9065-0.1627,3.5213,2.7536,3.208,4.3051
						c-1.0151,5.0416-4.5707,9.0932-9.5994,9.0932c-3.4444,0-5.5817-1.9222-5.5817-5.4668c0-2.5257,1.2416-6.4906,2.2256-8.8116
						c2.0939-4.9359,4.2901-8.3938,9.8849-8.3938c3.3568,0,6.0053,1.2179,5.6176,4.3934c-0.2855,2.3301-1.4404,3.6974-3.5392,3.8617
						c-0.5873,0.0471-2.9888-0.014-2.1913-2.3078C38.5805,1.0173,38.695,0.3873,37.5139,0.3873 M20.0099,9.1238
						c-0.2307,0.6275-0.6674,1.9461-1.0183,3.3432c1.1418-0.2873,1.9982-0.4888,3.4673-0.4533
						c1.6719,0.0405,2.7409,0.7415,2.7409,2.1402c0,3.382-3.7053,4.3761-6.2761,4.3761c-2.8235,0-5.3036-1.6225-5.3036-4.7377
						c0-3.6536,1.9622-9.1914,3.8034-12.8805c2.2608-4.5321,4.5715-5.1349,8.5492-5.1349c1.7496,0,3.7625,0.7547,3.7625,2.4201
						c0,2.3119-1.9385,3.1912-3.8599,3.3027c-0.8212,0.0462-2.0833,0.0925-2.8407,0.0396c0,0-0.6388,0.9842-1.3193,2.7363
						c3.5581-0.5053,5.0688,0.3088,4.4684,2.3887C25.3723,9.4706,22.9602,9.6563,20.0099,9.1238 M8.674,12.3695
						c3.4795-0.6118,4.3572,0.6597,4.2468,1.8371c-0.3272,3.5207-3.5302,4.3092-6.308,4.2423
						c-2.0162-0.0471-3.828-0.9793-3.8787-3.3432C2.6457,10.9733,6.8213,1.4128,8.786-1.757
						c0.9087-1.5044,2.0146-2.2458,3.7781-2.2458c1.6719,0,2.0858,0.8645,2.0612,1.9015
						C14.5599,0.6672,10.1291,9.0817,8.674,12.3695 M53.4393-6.195c-3.5949,0-6.0773,1.4383-7.7598,3.448
						c-0.2846-0.6011-0.4998-0.8653-0.8032-1.2129c-1.3758-1.5704-3.59-2.3045-6.5599-2.3045c-2.9012,0-5.3199,0.9148-6.9992,2.3565
						c-0.8719-1.4317-2.9503-2.3804-5.4573-2.3804c-3.2759,0-6.8446,0.4682-8.9614,3.9121
						c-0.0507-1.241-0.1628-1.8958-0.8515-2.6339c-0.84-0.8975-2.1978-1.1304-3.5213-1.1304c-2.4113,0-4.2247,1.0618-5.5293,3.2259
						C5.102,0.1388,0.5117,10.1848,0.6148,15.0505c0.0679,3.1425,2.1561,5.409,5.8949,5.4973
						c2.9201,0.0694,5.2111-0.7175,6.6695-2.2037c1.3079,1.4342,3.3029,2.2764,5.6904,2.2764c2.6583,0,5.3346-0.8067,6.9141-2.567
						c1.3308,1.6514,3.4256,2.61,6.119,2.5976c3.5204-0.0173,6.6131-1.7025,8.6326-4.2861
						c1.1091,3.0451,3.9204,4.2555,6.9902,4.2555c6.7284,0,9.6836-4.67,12.1457-12.0549c0.5537-1.6637,1.294-4.4413,1.4167-6.7738
						C61.2924-2.0897,59.6663-6.195,53.4393-6.195"/>
				</g>
				<g id="Xiaomi" transform="translate(337.402191, 38.736486)">
					<path id="Xaomi" class="st0" d="M28.8526,20.348h4.6372V1.1353h-4.6372V20.348z M20.8126,20.3148L20.7288,8.0054
						c-0.0117-1.718-1.1622-2.8321-2.8373-2.8555c-2.1587-0.0313-7.6304,0.0332-9.093,0.0528V20.348H4.1633V1.1353l4.6352,0.0528
						h11.5402c2.9328,0,4.9199,2.621,4.9199,5.367c0.0039,4.382,0.0527,13.7401,0.0527,13.7401L20.8126,20.3148z M12.3398,20.1916
						h4.7405V8.5487h-4.7405V20.1916z M36.8282-8H0.7722C0.3471-8,0-7.6541,0-7.226v35.9588c0,0.4261,0.3471,0.774,0.7722,0.774
						h36.056c0.4251,0,0.7722-0.3479,0.7722-0.774V-7.226C37.6004-7.6541,37.2533-8,36.8282-8L36.8282-8z"/>
				</g>
				<g id="Huel" transform="translate(418.992175, 38.736486)">
					<polygon id="Fill-10" class="st0" points="84.9017,-7.7368 86.3134,-3.5814 86.329,-3.5814 87.6626,-7.7368 89.5274,-7.7368 
						89.5274,-1.6943 88.2872,-1.6943 88.2872,-5.9762 88.2704,-5.9762 86.7936,-1.6943 85.7724,-1.6943 84.295,-5.933 
						84.2789,-5.933 84.2789,-1.6943 83.0379,-1.6943 83.0379,-7.7368 					"/>
					<polygon id="Fill-9_1_" class="st0" points="77.7982,-6.6187 77.7982,-7.7368 82.7346,-7.7368 82.7346,-6.6187 
						80.9297,-6.6187 80.9297,-1.6943 79.6042,-1.6943 79.6042,-6.6187 					"/>
					<polygon id="Fill-7_1_" class="st0" points="68.4893,20.2436 74.0412,20.2436 74.0412,-7.7594 68.4893,-7.7594 					"/>
					<path id="Fill-4_1_" class="st0" d="M59.906,4.714c-0.6637-0.7333-1.6751-1.0991-3.0306-1.0991
						c-0.8865,0-1.622,0.15-2.2096,0.4506c-0.5864,0.302-1.0556,0.6741-1.4076,1.1184c-0.3506,0.4441-0.6008,0.9154-0.7422,1.4122
						c-0.1436,0.4971-0.2293,0.9411-0.2543,1.3327h9.0326C61.0321,6.5163,60.5704,5.4458,59.906,4.714 M53.6292,15.3802
						c0.8349,0.8101,2.0336,1.2159,3.5972,1.2159c1.1216,0,2.0862-0.2813,2.8939-0.8436c0.8075-0.5623,1.3036-1.1569,1.4863-1.7845
						h4.8879c-0.7811,2.4316-1.98,4.1698-3.5977,5.2148c-1.6153,1.0466-3.5716,1.569-5.864,1.569
						c-1.5915,0-3.0246-0.2538-4.302-0.7636c-1.2777-0.5096-2.3601-1.2366-3.2457-2.1775
						c-0.8875-0.9411-1.5716-2.0643-2.0528-3.3713c-0.4826-1.3069-0.7232-2.7466-0.7232-4.3155
						c0-1.5145,0.2485-2.9267,0.7425-4.2339c0.4944-1.3069,1.1987-2.4381,2.1114-3.392c0.9129-0.9553,2.0002-1.7065,3.2666-2.2558
						c1.2626-0.5481,2.6644-0.8229,4.2033-0.8229c1.7195,0,3.2181,0.3323,4.4955,0.9984c1.2767,0.6664,2.3268,1.5641,3.148,2.6873
						c0.8203,1.1249,1.4148,2.4063,1.7793,3.844c0.365,1.4382,0.4946,2.94,0.3912,4.5089H52.2617
						C52.3398,13.2617,52.7955,14.5687,53.6292,15.3802"/>
					<path id="Fill-2_2_" class="st0" d="M39.9833,20.2437v-2.8246H39.867c-0.704,1.1774-1.6153,2.0272-2.7376,2.5496
						c-1.1206,0.5226-2.2687,0.7829-3.4409,0.7829c-1.4856,0-2.7052-0.1946-3.6578-0.5876
						c-0.9502-0.3916-1.6991-0.9462-2.2478-1.6665c-0.5472-0.7174-0.9305-1.5945-1.1526-2.6266
						c-0.2214-1.0338-0.333-2.1778-0.333-3.432V-0.0328h5.5533v11.4508c0,1.6744,0.2605,2.9221,0.7816,3.7465
						c0.5218,0.8229,1.4472,1.2352,2.7775,1.2352c1.5108,0,2.6053-0.4506,3.2841-1.3534c0.6786-0.9009,1.0162-2.3853,1.0162-4.4511
						v-10.628h5.5535v20.2765H39.9833z"/>
					<polygon id="Fill-1_3_" class="st0" points="17.4408,-7.7593 17.4408,2.9869 6.1388,2.9869 6.1388,-7.7593 0,-7.7593 
						0,20.2437 6.1388,20.2437 6.1388,8.1634 17.4408,8.1634 17.4408,20.2437 23.5795,20.2437 23.5795,-7.7593 					"/>
				</g>
				<g id="Castrol" transform="translate(549.658842, 36.891892)">
					<path id="Fill-4_2_" class="st0" d="M14.4573,8.3991h0.8267c0.2772,0,0.521-0.2026,0.546-0.4523l0.0046-0.0516
						c0.0203-0.2542-0.1812-0.4523-0.4622-0.4523h-0.626l0.2604-0.8104h0.8607c0.2772,0,0.5248-0.2019,0.546-0.4514l0.0038-0.0523
						c0.0249-0.2451-0.1676-0.4605-0.4492-0.4605l12.2362-0.0046c0.567,2.6231,0.1094,4.5746,0.1094,4.5746H14.7554
						c0.2763,0,0.5248-0.2026,0.5497-0.4567l0.0046-0.0516c0.0249-0.2542-0.1812-0.4523-0.4622-0.4523h-0.6803l0.2816-0.874
						L14.4573,8.3991z M16.1153,8.5842c-0.1555,0-0.2937,0.1033-0.3065,0.2367L15.805,8.8466
						c-0.0128,0.1336,0.105,0.2375,0.2598,0.2375H16.85c0.1555,0,0.2937-0.1039,0.3065-0.2375l0.0038-0.0257
						c0.0128-0.1336-0.105-0.2367-0.2604-0.2367H16.1153z M16.665,6.7579c-0.1548,0-0.2937,0.1033-0.3065,0.2329l-0.0038,0.0304
						c-0.0128,0.1328,0.105,0.2367,0.2598,0.2367h0.7815c0.1548,0,0.2937-0.1039,0.3065-0.2367l0.0038-0.0304
						c0.0128-0.1298-0.105-0.2329-0.2604-0.2329H16.665z M17.9621,7.7185c-0.105,0-0.1971,0.082-0.2053,0.1806l-0.0046,0.022
						c-0.0084,0.0995,0.0672,0.1806,0.1722,0.1806h0.521c0.1043,0,0.1971-0.0811,0.2053-0.1806l0.0046-0.022
						c0.0084-0.0986-0.0672-0.1806-0.1729-0.1806H17.9621z M17.4713,9.5273c-0.105,0-0.1934,0.0782-0.2062,0.1813l-0.0038,0.0213
						c-0.0084,0.0995,0.0664,0.1768,0.1722,0.1768h0.5158c0.105,0,0.1934-0.0774,0.2062-0.1768l0.0038-0.0213
						c0.0084-0.1033-0.0672-0.1813-0.1676-0.1813H17.4713z M18.4823,5.9656c-0.105,0-0.1925,0.0774-0.2053,0.176v0.022
						c-0.0084,0.1033,0.0672,0.1806,0.1722,0.1806h0.5164c0.105,0,0.1971-0.0774,0.2053-0.1806v-0.022
						c0.0084-0.0986-0.0672-0.176-0.1722-0.176H18.4823z M19.1377,8.6836c-0.105,0-0.1971,0.082-0.2062,0.1806v0.022
						c-0.0084,0.0986,0.0672,0.1806,0.1684,0.1806h0.5202c0.105,0,0.1971-0.082,0.2062-0.1806l0.0038-0.022
						c0.0084-0.0986-0.0672-0.1806-0.1722-0.1806H19.1377z M19.6413,6.8352c-0.105,0-0.1934,0.082-0.2062,0.1768v0.0257
						c-0.0084,0.0995,0.0672,0.1813,0.1684,0.1813H20.12c0.105,0,0.1971-0.0782,0.2053-0.1813l0.0046-0.0257
						c0.0084-0.0948-0.0672-0.1768-0.1722-0.1768H19.6413z M20.7791,7.7405c-0.1056,0-0.1934,0.0811-0.2016,0.1806L20.573,7.9423
						c-0.0084,0.0995,0.0672,0.1813,0.1722,0.1813h0.521c0.1043,0,0.1925-0.082,0.2053-0.1813l0.0046-0.0213
						c0.0084-0.0995-0.0672-0.1806-0.1722-0.1806H20.7791z M20.2876,9.5494c-0.105,0-0.1971,0.082-0.2053,0.1806v0.022
						c-0.0084,0.0986,0.0672,0.1806,0.1676,0.1806h0.5202c0.105,0,0.1934-0.082,0.2062-0.1806l0.0046-0.022
						c0.0075-0.0986-0.0679-0.1806-0.1722-0.1806H20.2876z M21.3039,5.9869c-0.1056,0-0.1978,0.0774-0.2062,0.1806v0.0266
						c-0.0084,0.0986,0.0672,0.176,0.1722,0.176h0.5164c0.105,0,0.1934-0.0774,0.2053-0.176l0.0046-0.0266
						c0.0084-0.0986-0.0672-0.1806-0.1722-0.1806H21.3039z M15.3386,5.6423h-0.7641c-0.2772,0-0.5202,0.2026-0.5497,0.4523
						l-0.0038,0.0516c-0.0256,0.2542,0.1797,0.4567,0.4613,0.4567h0.5286l0.3323-0.9607H15.3386z M14.176,9.2735h-0.7098
						c-0.2763,0-0.5202,0.2026-0.5451,0.4523l-0.0046,0.0516c-0.0249,0.2542,0.1804,0.4567,0.462,0.4567h0.5286l0.2726-0.9607
						H14.176z M14.7512,7.4341h-0.7687c-0.2763,0-0.5202,0.2026-0.5497,0.4523L13.429,7.9381
						c-0.0256,0.2502,0.1804,0.4523,0.4613,0.4523h0.5625l0.2982-0.9607L14.7512,7.4341z M8.6561,10.0187
						c0.1094,0,0.2053-0.1077,0.2144-0.2458l0.0038-0.0297c0.0084-0.1336-0.0754-0.2413-0.1804-0.2413H8.1441
						c-0.1094,0-0.2062,0.1077-0.2183,0.2413L7.9212,9.7729c-0.0084,0.1381,0.071,0.2458,0.1804,0.2458H8.6561z M9.697,6.3574
						c0.1094,0,0.2062-0.1077,0.2183-0.2458l0.0046-0.0257c0.0084-0.1374-0.0717-0.2451-0.1804-0.2451H9.1891
						c-0.1087,0-0.2053,0.1077-0.2183,0.2451v0.0257C8.9587,6.2497,9.0381,6.3574,9.1512,6.3574h0.5504H9.697z M9.1722,8.1708
						c0.1094,0,0.2062-0.1077,0.2183-0.2413V7.8991C9.3989,7.7655,9.3195,7.654,9.2101,7.654H8.6604
						c-0.1094,0-0.2053,0.1115-0.2183,0.2451v0.0304c-0.0084,0.1336,0.071,0.2413,0.1804,0.2413H9.1722z M10.1336,9.1098
						c0.1094,0,0.2053-0.1077,0.2183-0.2413l0.0046-0.0257c0.0084-0.1336-0.0717-0.2451-0.1804-0.2451H9.6257
						c-0.1087,0-0.2053,0.1115-0.2183,0.2451v0.0257C9.399,9.0021,9.4791,9.1098,9.5878,9.1098h0.5504H10.1336z M10.6502,7.2619
						c0.1087,0,0.2053-0.1077,0.2183-0.2413l0.0038-0.0304c0.009-0.1336-0.071-0.2413-0.1804-0.2413h-0.5497
						c-0.1087,0-0.2053,0.1077-0.2183,0.2413v0.0304c-0.0084,0.1336,0.0717,0.2413,0.1804,0.2413h0.5497H10.6502z M11.1284,10.023
						c0.1094,0,0.2062-0.1077,0.2183-0.2413l0.0046-0.0304C11.3597,9.6177,11.2796,9.51,11.1709,9.51h-0.5504
						c-0.1087,0-0.2053,0.1075-0.2183,0.2413v0.0304c-0.0084,0.1336,0.0717,0.2413,0.1804,0.2413h0.5504H11.1284z M12.1697,6.3617
						c0.1087,0,0.2053-0.1123,0.2183-0.246l0.0046-0.0295c0.0084-0.1336-0.0717-0.2413-0.1812-0.2413h-0.5497
						c-0.1087,0-0.2053,0.1077-0.2183,0.2413l-0.0038,0.0295c-0.009,0.1338,0.0754,0.246,0.1797,0.246H12.1697z M11.6491,8.1794
						c0.1094,0,0.2062-0.1077,0.2183-0.2458V7.9079c0.0084-0.1374-0.0717-0.2451-0.1804-0.2451h-0.5497
						c-0.1094,0-0.2062,0.1077-0.2183,0.2451v0.0257c-0.009,0.1381,0.071,0.2458,0.1804,0.2458H11.6491z M12.795,9.1615
						c0.1638,0,0.3103-0.1381,0.3277-0.3142l0.0038-0.0394c0.0128-0.1715-0.1087-0.3187-0.2772-0.3187h-0.8313
						c-0.1632,0-0.3103,0.1472-0.327,0.3187l-0.0046,0.0394c-0.0128,0.1722,0.1094,0.3142,0.2772,0.3142H12.795z M13.3198,7.3221
						c0.1638,0,0.3103-0.1418,0.3277-0.3142l0.0038-0.0388c0.0128-0.1722-0.1087-0.3149-0.2772-0.3149h-0.8313
						c-0.1632,0-0.3103,0.1427-0.327,0.3149l-0.0046,0.0388c-0.0128,0.1722,0.1094,0.3142,0.2772,0.3142H13.3198z M59.2882,2.5798
						c1.1167,1.4174,0.7467,3.7522,0.3065,5.3888L56.7104,18.565c-1.2042,0.538-2.6691,0.6283-4.0499,0.874
						c-2.6706,0.2717-5.6462,0.1593-7.132-2.3736c-0.7687-1.7747-0.462-4.1565,0.6796-5.6598
						c2.2794-2.783,5.5789-3.2307,8.8158-3.7696c0.2642-0.8567,0.5912-1.8863,0.2642-2.8082
						c-0.9824-1.3006-2.9304-0.6715-4.2863-0.538c-0.7678,0.1336-1.4399,0.4044-2.1654,0.607
						c0.0333,0.0213,0.6796-2.9547,0.6796-2.9676c2.8631-1.0812,7.3088-1.8438,9.7762,0.6458L59.2882,2.5798z M54.1924,10.6737
						c-1.402,0.2237-3.1273,0.6843-3.9375,2.1921c-0.4198,0.9174-0.613,2.3136,0.151,3.1187
						c0.5663,0.5645,1.5319,0.267,2.2545,0.267l1.5275-5.5778H54.1924z M103.8166,3.2775c1.3515,2.8514,0.1934,6.2243-0.6378,8.9378
						c-0.9658,2.74-2.8926,5.8799-5.8223,6.8496c-2.0521,0.5813-4.6381,0.6715-6.3679-0.6936
						c-2.3375-2.1968-1.4693-6.1773-0.6335-8.7359c1.1793-3.6353,4.0001-8.1494,8.1393-8.619
						c2.0982-0.0479,4.2433,0.2238,5.3185,2.2657L103.8166,3.2775z M98.8296,4.1303c-0.419,0.1123-0.789,0.3794-1.1204,0.7672
						c-1.9646,3.1869-3.3456,7.5072-3.4543,10.6176c0.0415,0.4955,0.3058,0.8013,0.789,0.8058
						c0.7052,0.0082,1.0073-0.3362,1.4225-0.7626c1.8219-3.0109,3.2202-6.9179,3.35-10.7346
						c0.0212-0.6199-0.5248-0.7368-0.9822-0.6936h-0.0046V4.1303z M93.4233,1.4339l-1.7509,2.7612
						c-1.0783-0.1123-2.2327-0.0645-3.1983,0.267l-3.9412,14.5937h-4.5082l4.4621-16.7517c2.2584-1.0768,4.8398-1.551,7.6182-1.2581
						l1.3182,0.3832V1.4339z"/>
					<path id="Fill-1_4_" class="st0" d="M72.242,1.5501c0.0295,0.0213-0.7806,2.7355-0.789,2.7355
						c-1.7253-0.1381-4.244-0.6078-5.2936,1.2574c-0.6968,2.8257,3.283,3.7908,3.7194,6.285c0.5248,2.1793,0,4.4707-1.7714,5.8881
						c-2.4931,2.2832-6.6323,1.8134-9.6712,1.0296c0.0203,0.0084,0.7513-2.8736,0.7429-2.8736
						c1.8135,0.3619,4.9447,1.1678,6.2374-0.8953c0.8774-2.5199-2.2333-3.4593-3.3033-5.3456c-1.1802-1.5683-0.9445-3.9936,0-5.6127
						C64.3633,0.7831,68.7833,0.3998,72.242,1.5501L72.242,1.5501z M8.5008-1.9992C7.4724,1.4556,6.5528,4.9619,5.5667,8.4425
						c-0.185,0.9387-0.2816,2.0676,0.4152,2.7605c0.5248,0.5434,1.1378,0.8574,1.8808,0.8794h20.0099
						c-0.9694,3.8593-4.1972,6.9861-7.7113,8.3216c-3.9579,1.5032-8.6679,0.7109-11.8163-1.8735
						c-3.8953-3.2097-5.7291-7.9559-4.6382-13.026c0.5919-2.8514,2.2501-5.656,4.7899-7.4991L8.5008-1.9992z M109.114,14.2098
						c0.0212,0.5168-0.2854,1.1245,0.0626,1.5767c0.6968,0.7147,1.8384,0.4007,2.8254,0.4651c0,0.0432-0.5753,2.8082-0.5753,2.8082
						s-1.6618-0.0388-2.5271-0.0046c-1.8384,0.0607-3.631-0.0038-4.4025-1.9251c-0.5036-3.0329,0.9612-5.7464,1.578-8.5766
						c0.8986-3.6133,2.9341-10.9409,2.9341-10.9409l4.7899-0.9644l-4.6812,17.5568L109.114,14.2098z M80.9102-3.3475l-1.2051,4.8973
						h3.2195L82.224,4.346h-3.236c0,0-1.2556,4.4412-1.8384,6.5817c-0.4492,1.6412-0.9824,3.6179-1.0035,4.8933
						c0.7217,0.7885,1.9683,0.2929,2.9341,0.4264c-0.0672,0.9219-0.441,1.8393-0.6803,2.7612
						c-2.3421-0.2026-5.5571,0.8999-6.8709-1.5683c-0.3949-0.7885-0.1517-1.8218,0-2.6444
						c0.8516-3.4161,2.7785-10.4501,2.7785-10.4501h-1.5788l0.6758-2.7962h1.6415C75.462,0.1763,76.251-2.607,76.251-2.607
						l4.6631-0.7406h-0.0039V-3.3475z M46.7918-1.4608c0.94,2.0676,0.0295,4.5959-0.5164,6.5514l-4.7975,0.8188
						c0.2386-1.8438,1.2677-3.6353,0.94-5.6598c-0.1094-0.2458-0.3526-0.4742-0.613-0.5387
						c-1.3138-0.1549-2.1663,1.2102-2.737,2.1542c-1.6203,3.5231-2.8457,7.4088-3.4128,11.3886
						c-0.0203,1.1025-0.348,2.6451,0.8313,3.114c0.5919,0.0911,1.0284-0.1115,1.4232-0.4909
						c1.0494-1.3485,2.1451-4.7424,2.1451-4.7424c1.6618-0.2458,3.2572-0.5813,4.9024-0.9174
						c-0.965,3.6612-2.3421,8.7526-6.8248,9.4976c-2.2757,0.267-4.7265,0.2026-6.2592-1.5723
						c-1.9473-2.472-1.2254-6.3792-0.6335-9.2738c1.335-4.9146,3.9412-11.815,9.9777-12.4403
						c2.1405-0.1806,4.4623,0.022,5.5783,2.111H46.7918z M27.6379,3.7255H9.5963l1.9895-7.4779
						c4.3611-1.6496,9.1466-0.6852,12.434,2.2225C26.6474,0.7965,27.5541,3.4584,27.6379,3.7255L27.6379,3.7255z M124.2844,24.5436
						H15.7964C9.9449,24.281,4.19,21.1708,1.5661,15.4465C-0.9942,10.2336-0.428,2.7346,3.3586-1.8007
						C7.0568-6.3109,12.1314-7.8619,17.6937-8h115.4269l-8.8324,32.539l-0.0036,0.0046H124.2844z M132.0582-7.2328H18.3695
						C12.2243-7.1683,6.1629-5.4839,2.8338,0.2451c-2.9092,4.6263-2.737,11.9402,0.265,16.4412
						c2.9967,4.9369,8.0714,6.9316,13.3233,7.0903h107.2281l8.4043-31.0092h0.0036V-7.2328z"/>
				</g>
				<g id="EE" transform="translate(731.856025, 0.000000)">
					<path id="Fill-1_5_" class="st0" d="M25.942,0C11.3294,0,0.0002,11.8712,0.0002,25.753
						c0,12.2988,8.0293,18.9225,8.0293,18.9225c0.795,0.6992,0.5939,1.0623,0.0285,1.6351c0,0-8.058,7.3284-8.058,18.6625
						c0,15.536,12.4316,26.0268,25.9418,26.0268c15.1068,0,25.8509-12.2818,25.8509-25.8443
						c0-11.6736-7.7371-18.5637-7.7371-18.5637c-1.0904-1.0505-1.0872-1.2245,0-2.1837c0,0,7.7371-6.5016,7.7371-18.655
						C51.7929,12.0206,40.758,0,25.942,0 M20.1678,13.36c0.7378,0,1.3869,0.381,1.7638,0.9549
						c0.3758-0.5751,1.0269-0.9549,1.7659-0.9549c0.849,0,1.5797,0.5008,1.9141,1.2225c0.3356-0.7216,1.0639-1.2225,1.9121-1.2225
						c0.847,0,1.5785,0.4999,1.9141,1.2204c0.3356-0.7205,1.0671-1.2204,1.9141-1.2204c1.1645,0,2.108,0.9423,2.108,2.1074
						c0,1.164-0.9433,2.1097-2.108,2.1097c-0.847,0-1.5785-0.4999-1.9141-1.2193c-0.3356,0.7194-1.0671,1.2193-1.9141,1.2193
						c-0.8481,0-1.5765-0.5008-1.9121-1.2225c-0.3345,0.7216-1.0651,1.2225-1.9141,1.2225c-0.739,0-1.39-0.3799-1.7659-0.9549
						c-0.1503,0.2292-0.341,0.4276-0.5663,0.5826c0.5505,0.381,0.9125,1.0145,0.9125,1.735c0,0.7153-0.3568,1.3477-0.901,1.7287
						c0.5442,0.381,0.901,1.0134,0.901,1.7296c0,0.7153-0.3568,1.3477-0.901,1.7287c0.1663,0.1167,0.3134,0.2589,0.4405,0.4181
						c0.3864-0.4849,0.9815-0.7968,1.6495-0.7968c0.774,0,1.4484,0.4181,1.8158,1.0388c0.3663-0.6218,1.0429-1.0388,1.8178-1.0388
						c0.7634,0,1.4334,0.4075,1.8029,1.0154c0.3695-0.6079,1.0386-1.0154,1.8029-1.0154c1.1656,0,2.1112,0.9434,2.1112,2.1074
						c0,1.1651-0.9455,2.1106-2.1112,2.1106c-0.7643,0-1.4334-0.4064-1.8029-1.0154c-0.3695,0.6091-1.0398,1.0154-1.8029,1.0154
						c-0.7749,0-1.4515-0.417-1.8178-1.0378c-0.3675,0.6197-1.0418,1.0378-1.8158,1.0378c-0.668,0-1.263-0.3119-1.6495-0.7968
						c-0.1293,0.1624-0.2816,0.3035-0.452,0.4213c0.5516,0.3799,0.9125,1.0145,0.9125,1.735s-0.3611,1.3572-0.9125,1.7371
						c0.5505,0.381,0.9125,1.0145,0.9125,1.735c0,0.7205-0.3611,1.354-0.9125,1.735c0.2233,0.1538,0.414,0.3481,0.5632,0.5742
						c0.3758-0.5783,1.028-0.9615,1.769-0.9615c0.849,0,1.5797,0.5008,1.9141,1.2225c0.3356-0.7216,1.0639-1.2225,1.9121-1.2225
						c0.847,0,1.5785,0.4999,1.9141,1.2204c0.3356-0.7205,1.0671-1.2204,1.9141-1.2204c1.1645,0,2.108,0.9454,2.108,2.1106
						c0,1.164-0.9433,2.1063-2.108,2.1063c-0.847,0-1.5785-0.4988-1.9141-1.2193c-0.3356,0.7205-1.0671,1.2193-1.9141,1.2193
						c-0.8481,0-1.5765-0.5008-1.9121-1.2225c-0.3345,0.7226-1.0651,1.2225-1.9141,1.2225c-0.7358,0-1.3837-0.3778-1.7607-0.9497
						c-0.3758,0.5783-1.028,0.9613-1.769,0.9613c-1.1645,0-2.108-0.9423-2.108-2.1074c0-0.7194,0.362-1.354,0.9125-1.7339
						c-0.5505-0.381-0.9125-1.0145-0.9125-1.735c0-0.7205,0.362-1.354,0.9125-1.735c-0.5505-0.3798-0.9125-1.0166-0.9125-1.7371
						s0.362-1.3552,0.9125-1.735c-0.5505-0.381-0.9125-1.0145-0.9125-1.735c0-0.7153,0.3568-1.3477,0.9021-1.7287
						c-0.5453-0.381-0.9021-1.0134-0.9021-1.7287c0-0.7162,0.3568-1.3486,0.9021-1.7296c-0.5453-0.381-0.9021-1.0134-0.9021-1.7287
						c0-0.7205,0.362-1.3541,0.9125-1.735c-0.5505-0.3799-0.9125-1.0166-0.9125-1.7371C18.06,14.3022,19.0033,13.36,20.1678,13.36
						 M20.1678,52.6351c0.7378,0,1.3869,0.3798,1.7638,0.9549c0.3758-0.5751,1.0269-0.9549,1.7659-0.9549
						c0.849,0,1.5797,0.4999,1.9141,1.2224c0.3356-0.7216,1.0639-1.2224,1.9121-1.2224c0.847,0,1.5785,0.4988,1.9141,1.2193
						c0.3356-0.7205,1.0671-1.2193,1.9141-1.2193c1.1645,0,2.108,0.9454,2.108,2.1097c0,1.164-0.9433,2.1074-2.108,2.1074
						c-0.847,0-1.5785-0.4999-1.9141-1.2204c-0.3356,0.7205-1.0671,1.2204-1.9141,1.2204c-0.8481,0-1.5765-0.5019-1.9121-1.2236
						c-0.3345,0.7225-1.0651,1.2236-1.9141,1.2236c-0.739,0-1.39-0.3799-1.7659-0.9561c-0.1503,0.2281-0.3399,0.4288-0.5632,0.5837
						c0.5494,0.3798,0.9094,1.0154,0.9094,1.7339c0,0.7162-0.3577,1.3486-0.9042,1.7296c0.5462,0.381,0.9042,1.0123,0.9042,1.7287
						c0,0.716-0.3577,1.3477-0.9042,1.7296c0.1684,0.1166,0.3166,0.2578,0.4436,0.417c0.3864-0.4838,0.9815-0.7959,1.6495-0.7959
						c0.774,0,1.4484,0.417,1.8158,1.0378c0.3663-0.6209,1.0429-1.0378,1.8178-1.0378c0.7634,0,1.4334,0.4064,1.8029,1.0154
						c0.3695-0.6091,1.0386-1.0154,1.8029-1.0154c1.1656,0,2.1112,0.9454,2.1112,2.1106c0,1.164-0.9455,2.106-2.1112,2.106
						c-0.7643,0-1.4334-0.4061-1.8029-1.0143c-0.3695,0.6079-1.0398,1.0143-1.8029,1.0143c-0.7749,0-1.4515-0.4156-1.8178-1.0378
						c-0.3675,0.6211-1.0418,1.0378-1.8158,1.0378c-0.668,0-1.263-0.311-1.6495-0.7957c-0.1293,0.1624-0.2805,0.3053-0.452,0.4233
						c0.5505,0.381,0.9125,1.0154,0.9125,1.735c0,0.7194-0.36,1.354-0.9094,1.735c0.5494,0.3799,0.9094,1.0154,0.9094,1.7339
						c0,0.7205-0.362,1.3552-0.9125,1.735c0.2233,0.1536,0.414,0.3502,0.5632,0.5774c0.3758-0.5783,1.028-0.9613,1.769-0.9613
						c0.849,0,1.5797,0.5008,1.9141,1.2236c0.3356-0.7216,1.0639-1.2236,1.9121-1.2236c0.847,0,1.5785,0.4997,1.9141,1.2204
						c0.3356-0.7207,1.0671-1.2204,1.9141-1.2204c1.1645,0,2.108,0.9432,2.108,2.1074c0,1.1651-0.9433,2.1104-2.108,2.1104
						c-0.847,0-1.5785-0.4999-1.9141-1.2202c-0.3356,0.7203-1.0671,1.2202-1.9141,1.2202c-0.8481,0-1.5765-0.5017-1.9121-1.2234
						c-0.3345,0.7226-1.0651,1.2234-1.9141,1.2234c-0.7358,0-1.3837-0.3785-1.7607-0.9495c-0.3758,0.5774-1.028,0.9604-1.769,0.9604
						c-1.1645,0-2.108-0.9454-2.108-2.1097c0-0.7205,0.362-1.354,0.9125-1.735c-0.5505-0.3799-0.9125-1.0145-0.9125-1.735
						c0-0.7185,0.3611-1.354,0.9105-1.7339c-0.5494-0.381-0.9105-1.0154-0.9105-1.735c0-0.7194,0.362-1.354,0.9125-1.735
						c-0.5505-0.3799-0.9125-1.0147-0.9125-1.7339c0-0.7173,0.3577-1.3509,0.9042-1.7319
						c-0.5453-0.3821-0.9042-1.0134-0.9042-1.7298c0-0.716,0.3577-1.3475,0.9042-1.7285c-0.5453-0.381-0.9042-1.0134-0.9042-1.7296
						c0-0.7185,0.3611-1.354,0.9105-1.7339c-0.5494-0.381-0.9105-1.0154-0.9105-1.7353
						C18.06,53.5806,19.0033,52.6351,20.1678,52.6351"/>
				</g>
			</g>
		</g>
	</g>
</g>
</svg>
