<svg style="position: absolute; width: 0; height: 0; overflow: hidden;" version="1.1" xmlns="http://www.w3.org/2000/svg">
<defs>
<symbol id="icon-city" viewBox="0 0 20 20">
<title>city</title>
<path d="M9 10h1v1h-1v-1z"></path>
<path d="M11 10h1v1h-1v-1z"></path>
<path d="M13 10h1v1h-1v-1z"></path>
<path d="M15 10h1v1h-1v-1z"></path>
<path d="M9 13h1v1h-1v-1z"></path>
<path d="M11 13h1v1h-1v-1z"></path>
<path d="M13 13h1v1h-1v-1z"></path>
<path d="M15 13h1v1h-1v-1z"></path>
<path d="M9 16h1v1h-1v-1z"></path>
<path d="M11 16h1v1h-1v-1z"></path>
<path d="M13 16h1v1h-1v-1z"></path>
<path d="M15 16h1v1h-1v-1z"></path>
<path d="M17.5 7h-0.5v-2.5c0-0.133-0.053-0.26-0.146-0.354l-1.854-1.854v-1.793c0-0.276-0.224-0.5-0.5-0.5s-0.5 0.224-0.5 0.5v1.793l-1.854 1.854c-0.094 0.094-0.146 0.221-0.146 0.354v0.5h-2v-2.5c0-0.276-0.224-0.5-0.5-0.5h-8c-0.276 0-0.5 0.224-0.5 0.5v17c0 0.276 0.224 0.5 0.5 0.5h16c0.276 0 0.5-0.224 0.5-0.5v-12c0-0.276-0.224-0.5-0.5-0.5zM13 4.707l1.5-1.5 1.5 1.5v2.293h-1v-1.5c0-0.276-0.224-0.5-0.5-0.5h-1.5v-0.293zM14 6v1h-4v-1h4zM7 7.5v11.5h-5v-16h7v4h-1.5c-0.276 0-0.5 0.224-0.5 0.5zM17 19h-9v-11h9v11z"></path>
<path d="M7 4h1v2h-1v-2z"></path>
<path d="M5 4h1v2h-1v-2z"></path>
<path d="M3 4h1v2h-1v-2z"></path>
<path d="M3 7h1v2h-1v-2z"></path>
<path d="M5 7h1v2h-1v-2z"></path>
<path d="M3 10h1v2h-1v-2z"></path>
<path d="M5 10h1v2h-1v-2z"></path>
<path d="M3 13h1v2h-1v-2z"></path>
<path d="M5 13h1v2h-1v-2z"></path>
<path d="M3 16h1v2h-1v-2z"></path>
<path d="M5 16h1v2h-1v-2z"></path>
</symbol>
<symbol id="icon-pencil3" viewBox="0 0 20 20">
<title>pencil3</title>
<path d="M19.5 6c0-2.757-2.243-5-5-5-0.753 0-1.478 0.164-2.153 0.486-0.053 0.025-0.099 0.059-0.138 0.098l-0-0-10.563 10.563c-0.077 0.077-0.126 0.176-0.141 0.283l-1 7c-0.022 0.156 0.030 0.313 0.141 0.424 0.094 0.094 0.222 0.146 0.353 0.146 0.023 0 0.047-0.002 0.071-0.005l7-1c0.107-0.015 0.206-0.065 0.283-0.141l10.555-10.555c0-0 0.001-0.001 0.001-0.001l0.007-0.007-0-0c0.039-0.039 0.072-0.085 0.098-0.138 0.323-0.675 0.486-1.4 0.486-2.153zM18.5 6c0 0.575-0.119 1.129-0.354 1.647l-1.15 1.15c-0.105-2.872-2.421-5.188-5.293-5.293l1.15-1.15c0.518-0.235 1.072-0.354 1.647-0.354 2.206 0 4 1.794 4 4zM2.005 16l0.423-2.964c0.189-0.024 0.38-0.036 0.572-0.036 2.481 0 4.5 2.019 4.5 4.5 0 0.191-0.012 0.383-0.036 0.572l-2.964 0.423c-0.003-1.374-1.12-2.492-2.495-2.495zM10.621 4.586c0.288-0.057 0.583-0.086 0.879-0.086 1.061 0 2.037 0.369 2.807 0.986l-7.79 7.79c-0.906-0.755-2.057-1.225-3.315-1.271l7.418-7.418zM7.225 13.982l7.79-7.79c0.616 0.77 0.986 1.746 0.986 2.807 0 0.296-0.029 0.591-0.086 0.879l-7.418 7.418c-0.046-1.258-0.516-2.409-1.271-3.315zM1.861 17.007c0.046-0.004 0.092-0.007 0.139-0.007 0.827 0 1.5 0.673 1.5 1.5 0 0.047-0.002 0.093-0.007 0.139l-1.904 0.272 0.272-1.904z"></path>
</symbol>
<symbol id="icon-presentation" viewBox="0 0 20 20">
<title>presentation</title>
<path d="M18.5 0h-18c-0.276 0-0.5 0.224-0.5 0.5v15c0 0.276 0.224 0.5 0.5 0.5h7.793l-3.146 3.146c-0.195 0.195-0.195 0.512 0 0.707 0.098 0.098 0.226 0.146 0.354 0.146s0.256-0.049 0.354-0.146l3.146-3.146v2.793c0 0.276 0.224 0.5 0.5 0.5s0.5-0.224 0.5-0.5v-2.793l3.146 3.146c0.098 0.098 0.226 0.146 0.354 0.146s0.256-0.049 0.354-0.146c0.195-0.195 0.195-0.512 0-0.707l-3.146-3.146h7.793c0.276 0 0.5-0.224 0.5-0.5v-15c0-0.276-0.224-0.5-0.5-0.5zM1 1h17v12h-17v-12zM18 15h-17v-1h17v1z"></path>
<path d="M12.787 6.59l-5-3.5c-0.153-0.107-0.352-0.12-0.518-0.034s-0.269 0.257-0.269 0.443v7c0 0.186 0.104 0.357 0.269 0.443 0.073 0.038 0.152 0.057 0.231 0.057 0.101 0 0.201-0.030 0.287-0.090l5-3.5c0.134-0.094 0.213-0.246 0.213-0.41s-0.080-0.316-0.213-0.41zM8 9.54v-5.079l3.628 2.54-3.628 2.54z"></path>
</symbol>
<symbol id="icon-users" viewBox="0 0 20 20">
<title>users</title>
<path d="M18.927 16.158c-0.357-0.381-0.791-0.713-1.296-0.997-0.303-0.604-0.898-1.399-2.058-2.033-0.475-0.26-1.012-0.475-1.607-0.646 1.213-0.688 2.034-1.991 2.034-3.482 0-1.619-0.967-3.017-2.354-3.645-0.297-0.658-0.763-1.221-1.36-1.637-0.203-0.142-0.418-0.263-0.64-0.364-0.297-0.657-0.763-1.22-1.36-1.636-0.673-0.469-1.463-0.717-2.286-0.717-2.206 0-4 1.794-4 4 0 0.823 0.248 1.613 0.717 2.286 0.416 0.597 0.979 1.063 1.636 1.36 0.101 0.223 0.222 0.437 0.364 0.64 0.188 0.269 0.406 0.511 0.648 0.724-1.498 0.047-2.797 0.263-3.869 0.644-1.009 0.359-1.824 0.865-2.424 1.504-1.061 1.131-1.073 2.293-1.073 2.342 0 0.827 0.673 1.5 1.5 1.5h0.568c-0.066 0.291-0.068 0.481-0.068 0.5 0 0.827 0.673 1.5 1.5 1.5h0.568c-0.066 0.291-0.068 0.481-0.068 0.5 0 0.827 0.673 1.5 1.5 1.5h13c0.827 0 1.5-0.673 1.5-1.5 0-0.049-0.012-1.211-1.073-2.342zM15 9c0 1.654-1.346 3-3 3s-3-1.346-3-3 1.346-3 3-3 3 1.346 3 3zM5 5c0-1.654 1.346-3 3-3 0.866 0 1.679 0.382 2.24 1.008-0.080-0.005-0.159-0.008-0.24-0.008-2.206 0-4 1.794-4 4 0 0.080 0.003 0.16 0.008 0.24-0.626-0.561-1.008-1.374-1.008-2.24zM7 7c0-1.654 1.346-3 3-3 0.865 0 1.678 0.382 2.239 1.007-0.079-0.005-0.159-0.007-0.239-0.007-2.206 0-4 1.794-4 4 0 0.080 0.003 0.16 0.007 0.239-0.626-0.561-1.007-1.374-1.007-2.239zM1.5 15c-0.275 0-0.498-0.223-0.5-0.497 0.001-0.055 0.037-0.879 0.855-1.716 0.797-0.815 2.51-1.787 6.145-1.787 0.183 0 0.364 0.003 0.542 0.008 0.22 0.378 0.5 0.716 0.827 1.002-1.499 0.047-2.799 0.263-3.872 0.644-1.009 0.359-1.824 0.865-2.424 1.504-0.267 0.285-0.467 0.572-0.618 0.842h-0.955zM3.5 17c-0.275 0-0.498-0.223-0.5-0.497 0.002-0.056 0.038-0.88 0.855-1.716 0.797-0.815 2.51-1.787 6.145-1.787 3.035 0 4.753 0.668 5.725 1.417-1.067-0.277-2.315-0.417-3.725-0.417-1.768 0-3.283 0.22-4.503 0.654-1.009 0.359-1.824 0.865-2.424 1.504-0.267 0.285-0.467 0.572-0.618 0.842h-0.955zM18.5 19h-13c-0.275 0-0.498-0.223-0.5-0.497 0.001-0.055 0.037-0.879 0.855-1.716 0.797-0.815 2.51-1.787 6.145-1.787s5.348 0.972 6.145 1.787c0.818 0.837 0.853 1.661 0.855 1.716-0.002 0.274-0.225 0.497-0.5 0.497z"></path>
</symbol>
<symbol id="icon-quote-open" viewBox="0 0 20 20">
<title>quote-open</title>
<path d="M4.5 8c-0.924 0-1.783 0.28-2.499 0.759 1.297-2.245 3.725-3.759 6.499-3.759 0.276 0 0.5-0.224 0.5-0.5s-0.224-0.5-0.5-0.5c-2.27 0-4.405 0.884-6.010 2.49s-2.49 3.74-2.49 6.010c0 2.481 2.019 4.5 4.5 4.5s4.5-2.019 4.5-4.5-2.019-4.5-4.5-4.5zM4.5 16c-1.93 0-3.5-1.57-3.5-3.5 0-0.030 0.001-0.060 0.001-0.090 0.048-1.888 1.599-3.41 3.499-3.41 1.93 0 3.5 1.57 3.5 3.5s-1.57 3.5-3.5 3.5z"></path>
<path d="M15.5 8c-0.924 0-1.783 0.28-2.499 0.759 1.297-2.245 3.725-3.759 6.499-3.759 0.276 0 0.5-0.224 0.5-0.5s-0.224-0.5-0.5-0.5c-2.27 0-4.405 0.884-6.010 2.49s-2.49 3.74-2.49 6.010c0 2.481 2.019 4.5 4.5 4.5s4.5-2.019 4.5-4.5-2.019-4.5-4.5-4.5zM15.5 16c-1.93 0-3.5-1.57-3.5-3.5 0-0.030 0.001-0.060 0.001-0.090 0.048-1.888 1.599-3.41 3.499-3.41 1.93 0 3.5 1.57 3.5 3.5s-1.57 3.5-3.5 3.5z"></path>
</symbol>
<symbol id="icon-quote-close" viewBox="0 0 20 20">
<title>quote-close</title>
<path d="M4.5 13c0.924 0 1.783-0.28 2.499-0.759-1.297 2.245-3.725 3.759-6.499 3.759-0.276 0-0.5 0.224-0.5 0.5s0.224 0.5 0.5 0.5c2.27 0 4.405-0.884 6.010-2.49s2.49-3.74 2.49-6.010c0-2.481-2.019-4.5-4.5-4.5s-4.5 2.019-4.5 4.5 2.019 4.5 4.5 4.5zM4.5 5c1.93 0 3.5 1.57 3.5 3.5 0 0.030-0.001 0.060-0.001 0.090-0.048 1.888-1.599 3.41-3.499 3.41-1.93 0-3.5-1.57-3.5-3.5s1.57-3.5 3.5-3.5z"></path>
<path d="M11.5 16c-0.276 0-0.5 0.224-0.5 0.5s0.224 0.5 0.5 0.5c2.27 0 4.405-0.884 6.010-2.49s2.49-3.74 2.49-6.010c0-2.481-2.019-4.5-4.5-4.5s-4.5 2.019-4.5 4.5 2.019 4.5 4.5 4.5c0.924 0 1.783-0.28 2.499-0.759-1.297 2.245-3.725 3.759-6.499 3.759zM15.5 12c-1.93 0-3.5-1.57-3.5-3.5s1.57-3.5 3.5-3.5 3.5 1.57 3.5 3.5c0 0.030-0.001 0.060-0.001 0.090-0.048 1.888-1.599 3.41-3.499 3.41z"></path>
</symbol>
<symbol id="icon-wall" viewBox="0 0 20 20">
<title>wall</title>
<path d="M18.5 7c0.276 0 0.5-0.224 0.5-0.5s-0.224-0.5-0.5-0.5h-2.5v-3h2.5c0.276 0 0.5-0.224 0.5-0.5s-0.224-0.5-0.5-0.5h-18c-0.276 0-0.5 0.224-0.5 0.5s0.224 0.5 0.5 0.5h5.5v3h-5.5c-0.276 0-0.5 0.224-0.5 0.5s0.224 0.5 0.5 0.5h2.5v3h-2.5c-0.276 0-0.5 0.224-0.5 0.5s0.224 0.5 0.5 0.5h5.5v3h-5.5c-0.276 0-0.5 0.224-0.5 0.5s0.224 0.5 0.5 0.5h2.5v3h-2.5c-0.276 0-0.5 0.224-0.5 0.5s0.224 0.5 0.5 0.5h18c0.276 0 0.5-0.224 0.5-0.5s-0.224-0.5-0.5-0.5h-5.5v-3h5.5c0.276 0 0.5-0.224 0.5-0.5s-0.224-0.5-0.5-0.5h-2.5v-3h2.5c0.276 0 0.5-0.224 0.5-0.5s-0.224-0.5-0.5-0.5h-5.5v-3h5.5zM7 3h8v3h-8v-3zM12 18h-8v-3h8v3zM15 14h-8v-3h8v3zM12 10h-8v-3h8v3z"></path>
</symbol>
<symbol id="icon-mic" viewBox="0 0 20 20">
<title>mic</title>
<path d="M9.5 14c-1.93 0-3.5-1.57-3.5-3.5v-6c0-1.93 1.57-3.5 3.5-3.5s3.5 1.57 3.5 3.5v6c0 1.93-1.57 3.5-3.5 3.5zM9.5 2c-1.378 0-2.5 1.122-2.5 2.5v6c0 1.378 1.122 2.5 2.5 2.5s2.5-1.122 2.5-2.5v-6c0-1.378-1.122-2.5-2.5-2.5z"></path>
<path d="M16 10.5c0-0.276-0.224-0.5-0.5-0.5s-0.5 0.224-0.5 0.5c0 3.033-2.467 5.5-5.5 5.5s-5.5-2.467-5.5-5.5c0-0.276-0.224-0.5-0.5-0.5s-0.5 0.224-0.5 0.5c0 3.416 2.649 6.225 6 6.481v2.019h-1.5c-0.276 0-0.5 0.224-0.5 0.5s0.224 0.5 0.5 0.5h4c0.276 0 0.5-0.224 0.5-0.5s-0.224-0.5-0.5-0.5h-1.5v-2.019c3.351-0.256 6-3.065 6-6.481z"></path>
</symbol>
<symbol id="icon-play-circle" viewBox="0 0 20 20">
<title>play-circle</title>
<path d="M9.5 20c-2.538 0-4.923-0.988-6.718-2.782s-2.782-4.18-2.782-6.717c0-2.538 0.988-4.923 2.782-6.718s4.18-2.783 6.718-2.783c2.538 0 4.923 0.988 6.718 2.783s2.782 4.18 2.782 6.718-0.988 4.923-2.782 6.717c-1.794 1.794-4.18 2.782-6.718 2.782zM9.5 2c-4.687 0-8.5 3.813-8.5 8.5s3.813 8.5 8.5 8.5c4.687 0 8.5-3.813 8.5-8.5s-3.813-8.5-8.5-8.5z"></path>
<path d="M6.5 16c-0.083 0-0.167-0.021-0.242-0.063-0.159-0.088-0.258-0.256-0.258-0.437v-10c0-0.182 0.099-0.349 0.258-0.437s0.353-0.083 0.507 0.013l8 5c0.146 0.091 0.235 0.252 0.235 0.424s-0.089 0.333-0.235 0.424l-8 5c-0.081 0.051-0.173 0.076-0.265 0.076zM7 6.402v8.196l6.557-4.098-6.557-4.098z"></path>
</symbol>
</defs>
</svg>
