<svg style="position: absolute; width: 0; height: 0; overflow: hidden;" version="1.1" xmlns="http://www.w3.org/2000/svg">
<defs>
<symbol id="icon-city" viewBox="0 0 20 20">
<title>city</title>
<path d="M9 10h1v1h-1v-1z"></path>
<path d="M11 10h1v1h-1v-1z"></path>
<path d="M13 10h1v1h-1v-1z"></path>
<path d="M15 10h1v1h-1v-1z"></path>
<path d="M9 13h1v1h-1v-1z"></path>
<path d="M11 13h1v1h-1v-1z"></path>
<path d="M13 13h1v1h-1v-1z"></path>
<path d="M15 13h1v1h-1v-1z"></path>
<path d="M9 16h1v1h-1v-1z"></path>
<path d="M11 16h1v1h-1v-1z"></path>
<path d="M13 16h1v1h-1v-1z"></path>
<path d="M15 16h1v1h-1v-1z"></path>
<path d="M17.5 7h-0.5v-2.5c0-0.133-0.053-0.26-0.146-0.354l-1.854-1.854v-1.793c0-0.276-0.224-0.5-0.5-0.5s-0.5 0.224-0.5 0.5v1.793l-1.854 1.854c-0.094 0.094-0.146 0.221-0.146 0.354v0.5h-2v-2.5c0-0.276-0.224-0.5-0.5-0.5h-8c-0.276 0-0.5 0.224-0.5 0.5v17c0 0.276 0.224 0.5 0.5 0.5h16c0.276 0 0.5-0.224 0.5-0.5v-12c0-0.276-0.224-0.5-0.5-0.5zM13 4.707l1.5-1.5 1.5 1.5v2.293h-1v-1.5c0-0.276-0.224-0.5-0.5-0.5h-1.5v-0.293zM14 6v1h-4v-1h4zM7 7.5v11.5h-5v-16h7v4h-1.5c-0.276 0-0.5 0.224-0.5 0.5zM17 19h-9v-11h9v11z"></path>
<path d="M7 4h1v2h-1v-2z"></path>
<path d="M5 4h1v2h-1v-2z"></path>
<path d="M3 4h1v2h-1v-2z"></path>
<path d="M3 7h1v2h-1v-2z"></path>
<path d="M5 7h1v2h-1v-2z"></path>
<path d="M3 10h1v2h-1v-2z"></path>
<path d="M5 10h1v2h-1v-2z"></path>
<path d="M3 13h1v2h-1v-2z"></path>
<path d="M5 13h1v2h-1v-2z"></path>
<path d="M3 16h1v2h-1v-2z"></path>
<path d="M5 16h1v2h-1v-2z"></path>
</symbol>
<symbol id="icon-pencil3" viewBox="0 0 20 20">
<title>pencil3</title>
<path d="M19.5 6c0-2.757-2.243-5-5-5-0.753 0-1.478 0.164-2.153 0.486-0.053 0.025-0.099 0.059-0.138 0.098l-0-0-10.563 10.563c-0.077 0.077-0.126 0.176-0.141 0.283l-1 7c-0.022 0.156 0.030 0.313 0.141 0.424 0.094 0.094 0.222 0.146 0.353 0.146 0.023 0 0.047-0.002 0.071-0.005l7-1c0.107-0.015 0.206-0.065 0.283-0.141l10.555-10.555c0-0 0.001-0.001 0.001-0.001l0.007-0.007-0-0c0.039-0.039 0.072-0.085 0.098-0.138 0.323-0.675 0.486-1.4 0.486-2.153zM18.5 6c0 0.575-0.119 1.129-0.354 1.647l-1.15 1.15c-0.105-2.872-2.421-5.188-5.293-5.293l1.15-1.15c0.518-0.235 1.072-0.354 1.647-0.354 2.206 0 4 1.794 4 4zM2.005 16l0.423-2.964c0.189-0.024 0.38-0.036 0.572-0.036 2.481 0 4.5 2.019 4.5 4.5 0 0.191-0.012 0.383-0.036 0.572l-2.964 0.423c-0.003-1.374-1.12-2.492-2.495-2.495zM10.621 4.586c0.288-0.057 0.583-0.086 0.879-0.086 1.061 0 2.037 0.369 2.807 0.986l-7.79 7.79c-0.906-0.755-2.057-1.225-3.315-1.271l7.418-7.418zM7.225 13.982l7.79-7.79c0.616 0.77 0.986 1.746 0.986 2.807 0 0.296-0.029 0.591-0.086 0.879l-7.418 7.418c-0.046-1.258-0.516-2.409-1.271-3.315zM1.861 17.007c0.046-0.004 0.092-0.007 0.139-0.007 0.827 0 1.5 0.673 1.5 1.5 0 0.047-0.002 0.093-0.007 0.139l-1.904 0.272 0.272-1.904z"></path>
</symbol>
<symbol id="icon-presentation" viewBox="0 0 20 20">
<title>presentation</title>
<path d="M18.5 0h-18c-0.276 0-0.5 0.224-0.5 0.5v15c0 0.276 0.224 0.5 0.5 0.5h7.793l-3.146 3.146c-0.195 0.195-0.195 0.512 0 0.707 0.098 0.098 0.226 0.146 0.354 0.146s0.256-0.049 0.354-0.146l3.146-3.146v2.793c0 0.276 0.224 0.5 0.5 0.5s0.5-0.224 0.5-0.5v-2.793l3.146 3.146c0.098 0.098 0.226 0.146 0.354 0.146s0.256-0.049 0.354-0.146c0.195-0.195 0.195-0.512 0-0.707l-3.146-3.146h7.793c0.276 0 0.5-0.224 0.5-0.5v-15c0-0.276-0.224-0.5-0.5-0.5zM1 1h17v12h-17v-12zM18 15h-17v-1h17v1z"></path>
<path d="M12.787 6.59l-5-3.5c-0.153-0.107-0.352-0.12-0.518-0.034s-0.269 0.257-0.269 0.443v7c0 0.186 0.104 0.357 0.269 0.443 0.073 0.038 0.152 0.057 0.231 0.057 0.101 0 0.201-0.030 0.287-0.090l5-3.5c0.134-0.094 0.213-0.246 0.213-0.41s-0.080-0.316-0.213-0.41zM8 9.54v-5.079l3.628 2.54-3.628 2.54z"></path>
</symbol>
<symbol id="icon-library" viewBox="0 0 20 20">
<title>library</title>
<path d="M10.5 0h-2c-0.827 0-1.5 0.673-1.5 1.5v0.586c-0.157-0.056-0.325-0.086-0.5-0.086h-5c-0.827 0-1.5 0.673-1.5 1.5v15c0 0.827 0.673 1.5 1.5 1.5h5c0.384 0 0.734-0.145 1-0.383 0.266 0.238 0.616 0.383 1 0.383h2c0.827 0 1.5-0.673 1.5-1.5v-17c0-0.827-0.673-1.5-1.5-1.5zM6.5 19h-5c-0.276 0-0.5-0.224-0.5-0.5v-15c0-0.276 0.224-0.5 0.5-0.5h5c0.276 0 0.5 0.224 0.5 0.5v15c0 0.276-0.224 0.5-0.5 0.5zM11 18.5c0 0.276-0.224 0.5-0.5 0.5h-2c-0.276 0-0.5-0.224-0.5-0.5v-17c0-0.276 0.224-0.5 0.5-0.5h2c0.276 0 0.5 0.224 0.5 0.5v17z"></path>
<path d="M5.5 6h-2.859c-0.276 0-0.5-0.224-0.5-0.5s0.224-0.5 0.5-0.5h2.859c0.276 0 0.5 0.224 0.5 0.5s-0.224 0.5-0.5 0.5z"></path>
<path d="M18.61 19.623l-2.978 0.366c-0.821 0.101-1.571-0.485-1.672-1.306l-1.95-15.881c-0.101-0.821 0.485-1.571 1.306-1.672l2.978-0.366c0.821-0.101 1.571 0.485 1.672 1.306l1.95 15.881c0.101 0.821-0.485 1.571-1.306 1.672zM13.439 2.123c-0.274 0.034-0.469 0.284-0.435 0.557l1.95 15.881c0.034 0.274 0.284 0.469 0.557 0.435l2.978-0.366c0.274-0.034 0.469-0.284 0.435-0.557l-1.95-15.881c-0.034-0.274-0.284-0.469-0.557-0.435l-2.978 0.366z"></path>
<path d="M15.79 4.857l-0.993 0.122c-0.274 0.034-0.524-0.161-0.557-0.435s0.161-0.524 0.435-0.557l0.993-0.122c0.274-0.034 0.524 0.161 0.557 0.435s-0.161 0.524-0.435 0.557z"></path>
</symbol>
<symbol id="icon-users" viewBox="0 0 20 20">
<title>users</title>
<path d="M18.927 16.158c-0.357-0.381-0.791-0.713-1.296-0.997-0.303-0.604-0.898-1.399-2.058-2.033-0.475-0.26-1.012-0.475-1.607-0.646 1.213-0.688 2.034-1.991 2.034-3.482 0-1.619-0.967-3.017-2.354-3.645-0.297-0.658-0.763-1.221-1.36-1.637-0.203-0.142-0.418-0.263-0.64-0.364-0.297-0.657-0.763-1.22-1.36-1.636-0.673-0.469-1.463-0.717-2.286-0.717-2.206 0-4 1.794-4 4 0 0.823 0.248 1.613 0.717 2.286 0.416 0.597 0.979 1.063 1.636 1.36 0.101 0.223 0.222 0.437 0.364 0.64 0.188 0.269 0.406 0.511 0.648 0.724-1.498 0.047-2.797 0.263-3.869 0.644-1.009 0.359-1.824 0.865-2.424 1.504-1.061 1.131-1.073 2.293-1.073 2.342 0 0.827 0.673 1.5 1.5 1.5h0.568c-0.066 0.291-0.068 0.481-0.068 0.5 0 0.827 0.673 1.5 1.5 1.5h0.568c-0.066 0.291-0.068 0.481-0.068 0.5 0 0.827 0.673 1.5 1.5 1.5h13c0.827 0 1.5-0.673 1.5-1.5 0-0.049-0.012-1.211-1.073-2.342zM15 9c0 1.654-1.346 3-3 3s-3-1.346-3-3 1.346-3 3-3 3 1.346 3 3zM5 5c0-1.654 1.346-3 3-3 0.866 0 1.679 0.382 2.24 1.008-0.080-0.005-0.159-0.008-0.24-0.008-2.206 0-4 1.794-4 4 0 0.080 0.003 0.16 0.008 0.24-0.626-0.561-1.008-1.374-1.008-2.24zM7 7c0-1.654 1.346-3 3-3 0.865 0 1.678 0.382 2.239 1.007-0.079-0.005-0.159-0.007-0.239-0.007-2.206 0-4 1.794-4 4 0 0.080 0.003 0.16 0.007 0.239-0.626-0.561-1.007-1.374-1.007-2.239zM1.5 15c-0.275 0-0.498-0.223-0.5-0.497 0.001-0.055 0.037-0.879 0.855-1.716 0.797-0.815 2.51-1.787 6.145-1.787 0.183 0 0.364 0.003 0.542 0.008 0.22 0.378 0.5 0.716 0.827 1.002-1.499 0.047-2.799 0.263-3.872 0.644-1.009 0.359-1.824 0.865-2.424 1.504-0.267 0.285-0.467 0.572-0.618 0.842h-0.955zM3.5 17c-0.275 0-0.498-0.223-0.5-0.497 0.002-0.056 0.038-0.88 0.855-1.716 0.797-0.815 2.51-1.787 6.145-1.787 3.035 0 4.753 0.668 5.725 1.417-1.067-0.277-2.315-0.417-3.725-0.417-1.768 0-3.283 0.22-4.503 0.654-1.009 0.359-1.824 0.865-2.424 1.504-0.267 0.285-0.467 0.572-0.618 0.842h-0.955zM18.5 19h-13c-0.275 0-0.498-0.223-0.5-0.497 0.001-0.055 0.037-0.879 0.855-1.716 0.797-0.815 2.51-1.787 6.145-1.787s5.348 0.972 6.145 1.787c0.818 0.837 0.853 1.661 0.855 1.716-0.002 0.274-0.225 0.497-0.5 0.497z"></path>
</symbol>
<symbol id="icon-group-work" viewBox="0 0 20 20">
<title>group-work</title>
<path d="M13 6.467c-0.004-0.166-0.038-0.909-0.351-1.659-0.214-0.514-0.514-0.928-0.891-1.229-0.096-0.077-0.198-0.146-0.303-0.208 0.338-0.358 0.545-0.84 0.545-1.37 0-1.103-0.897-2-2-2s-2 0.897-2 2c0 0.53 0.208 1.012 0.545 1.37-0.105 0.062-0.206 0.131-0.303 0.208-0.377 0.302-0.677 0.716-0.891 1.229-0.347 0.833-0.351 1.658-0.351 1.692 0 0.276 0.224 0.5 0.5 0.5h5c0 0 0 0 0.001 0 0.276 0 0.5-0.224 0.5-0.5 0-0.011-0-0.022-0.001-0.033zM9 2c0-0.551 0.449-1 1-1s1 0.449 1 1-0.449 1-1 1c-0.551 0-1-0.449-1-1zM8.050 6c0.038-0.234 0.106-0.523 0.224-0.808 0.334-0.802 0.899-1.192 1.726-1.192 1.429 0 1.837 1.268 1.953 2h-3.904z"></path>
<path d="M6 17.467c-0.004-0.166-0.038-0.909-0.351-1.659-0.214-0.514-0.514-0.927-0.891-1.229-0.096-0.077-0.198-0.146-0.303-0.208 0.338-0.358 0.545-0.84 0.545-1.37 0-1.103-0.897-2-2-2s-2 0.897-2 2c0 0.53 0.208 1.012 0.545 1.37-0.105 0.062-0.206 0.131-0.303 0.208-0.377 0.302-0.677 0.716-0.891 1.229-0.347 0.833-0.351 1.658-0.351 1.692 0 0.276 0.224 0.5 0.5 0.5h5c0-0 0-0 0.001 0 0.276 0 0.5-0.224 0.5-0.5 0-0.011-0-0.022-0.001-0.033zM2 13c0-0.551 0.449-1 1-1s1 0.449 1 1-0.449 1-1 1-1-0.449-1-1zM1.050 17c0.038-0.234 0.106-0.523 0.224-0.808 0.334-0.802 0.899-1.192 1.726-1.192 1.429 0 1.837 1.268 1.953 2h-3.904z"></path>
<path d="M20 17.467c-0.004-0.166-0.038-0.909-0.351-1.659-0.214-0.514-0.514-0.927-0.891-1.229-0.096-0.077-0.198-0.146-0.303-0.208 0.338-0.358 0.545-0.84 0.545-1.37 0-1.103-0.897-2-2-2s-2 0.897-2 2c0 0.53 0.208 1.012 0.545 1.37-0.105 0.062-0.206 0.131-0.303 0.208-0.377 0.302-0.677 0.716-0.891 1.229-0.347 0.833-0.351 1.658-0.351 1.692 0 0.276 0.224 0.5 0.5 0.5h5c0 0 0 0 0.001 0 0.276 0 0.5-0.224 0.5-0.5 0-0.011-0-0.022-0.001-0.033zM16 13c0-0.551 0.449-1 1-1s1 0.449 1 1-0.449 1-1 1-1-0.449-1-1zM15.050 17c0.038-0.234 0.106-0.523 0.224-0.808 0.334-0.802 0.899-1.192 1.726-1.192 1.429 0 1.837 1.268 1.953 2h-3.904z"></path>
<path d="M10 20c-1.3 0-2.591-0.319-3.734-0.923-0.244-0.129-0.337-0.432-0.208-0.676s0.432-0.337 0.676-0.208c0.999 0.528 2.128 0.807 3.266 0.807s2.267-0.279 3.266-0.807c0.244-0.129 0.547-0.036 0.676 0.208s0.036 0.547-0.208 0.676c-1.142 0.604-2.433 0.923-3.734 0.923z"></path>
<path d="M17.23 10.5c-0.219 0-0.421-0.145-0.482-0.367-0.464-1.68-1.535-3.12-3.015-4.056-0.233-0.148-0.303-0.456-0.156-0.69s0.456-0.303 0.69-0.156c1.692 1.069 2.915 2.715 3.445 4.635 0.073 0.266-0.083 0.542-0.349 0.615-0.044 0.012-0.089 0.018-0.133 0.018z"></path>
<path d="M2.77 10.5c-0.044 0-0.089-0.006-0.133-0.018-0.266-0.073-0.422-0.349-0.349-0.615 0.53-1.92 1.754-3.566 3.445-4.635 0.233-0.147 0.542-0.078 0.69 0.156s0.078 0.542-0.156 0.69c-1.481 0.935-2.552 2.376-3.015 4.056-0.061 0.222-0.262 0.367-0.482 0.367z"></path>
</symbol>
<symbol id="icon-quote-open" viewBox="0 0 20 20">
<title>quote-open</title>
<path d="M4.5 8c-0.924 0-1.783 0.28-2.499 0.759 1.297-2.245 3.725-3.759 6.499-3.759 0.276 0 0.5-0.224 0.5-0.5s-0.224-0.5-0.5-0.5c-2.27 0-4.405 0.884-6.010 2.49s-2.49 3.74-2.49 6.010c0 2.481 2.019 4.5 4.5 4.5s4.5-2.019 4.5-4.5-2.019-4.5-4.5-4.5zM4.5 16c-1.93 0-3.5-1.57-3.5-3.5 0-0.030 0.001-0.060 0.001-0.090 0.048-1.888 1.599-3.41 3.499-3.41 1.93 0 3.5 1.57 3.5 3.5s-1.57 3.5-3.5 3.5z"></path>
<path d="M15.5 8c-0.924 0-1.783 0.28-2.499 0.759 1.297-2.245 3.725-3.759 6.499-3.759 0.276 0 0.5-0.224 0.5-0.5s-0.224-0.5-0.5-0.5c-2.27 0-4.405 0.884-6.010 2.49s-2.49 3.74-2.49 6.010c0 2.481 2.019 4.5 4.5 4.5s4.5-2.019 4.5-4.5-2.019-4.5-4.5-4.5zM15.5 16c-1.93 0-3.5-1.57-3.5-3.5 0-0.030 0.001-0.060 0.001-0.090 0.048-1.888 1.599-3.41 3.499-3.41 1.93 0 3.5 1.57 3.5 3.5s-1.57 3.5-3.5 3.5z"></path>
</symbol>
<symbol id="icon-quote-close" viewBox="0 0 20 20">
<title>quote-close</title>
<path d="M4.5 13c0.924 0 1.783-0.28 2.499-0.759-1.297 2.245-3.725 3.759-6.499 3.759-0.276 0-0.5 0.224-0.5 0.5s0.224 0.5 0.5 0.5c2.27 0 4.405-0.884 6.010-2.49s2.49-3.74 2.49-6.010c0-2.481-2.019-4.5-4.5-4.5s-4.5 2.019-4.5 4.5 2.019 4.5 4.5 4.5zM4.5 5c1.93 0 3.5 1.57 3.5 3.5 0 0.030-0.001 0.060-0.001 0.090-0.048 1.888-1.599 3.41-3.499 3.41-1.93 0-3.5-1.57-3.5-3.5s1.57-3.5 3.5-3.5z"></path>
<path d="M11.5 16c-0.276 0-0.5 0.224-0.5 0.5s0.224 0.5 0.5 0.5c2.27 0 4.405-0.884 6.010-2.49s2.49-3.74 2.49-6.010c0-2.481-2.019-4.5-4.5-4.5s-4.5 2.019-4.5 4.5 2.019 4.5 4.5 4.5c0.924 0 1.783-0.28 2.499-0.759-1.297 2.245-3.725 3.759-6.499 3.759zM15.5 12c-1.93 0-3.5-1.57-3.5-3.5s1.57-3.5 3.5-3.5 3.5 1.57 3.5 3.5c0 0.030-0.001 0.060-0.001 0.090-0.048 1.888-1.599 3.41-3.499 3.41z"></path>
</symbol>
<symbol id="icon-puzzle" viewBox="0 0 20 20">
<title>puzzle</title>
<path d="M18.763 5.075c-0.147-0.091-0.331-0.099-0.486-0.022-0.008 0.004-0.822 0.409-1.765 0.716-1.576 0.514-2.14 0.326-2.309 0.221-0.061-0.038-0.203-0.125-0.203-0.49 0-0.315 0.158-0.587 0.357-0.931 0.286-0.494 0.643-1.109 0.643-2.069 0-0.669-0.463-1.327-1.27-1.805-0.757-0.448-1.726-0.695-2.73-0.695s-1.973 0.247-2.73 0.695c-0.807 0.478-1.27 1.136-1.27 1.805 0 0.96 0.357 1.575 0.643 2.069 0.199 0.344 0.357 0.616 0.357 0.931 0 0.268-0.099 0.37-0.195 0.435-0.199 0.133-0.878 0.383-2.886-0.15-1.18-0.313-2.216-0.743-2.227-0.747-0.134-0.056-0.287-0.051-0.417 0.015s-0.225 0.184-0.261 0.326c-0.012 0.050-0.306 1.232-0.505 2.563-0.383 2.56-0.064 3.321 0.209 3.671 0.195 0.25 0.473 0.388 0.781 0.388 0.679 0 1.127-0.52 1.56-1.022s0.843-0.978 1.44-0.978c0.597 0 1.5 1.197 1.5 3s-0.903 3-1.5 3c-0.597 0-1.006-0.475-1.44-0.978s-0.882-1.022-1.56-1.022c-0.337 0-0.633 0.149-0.833 0.418-0.247 0.333-0.532 1.020-0.143 3.14 0.2 1.090 0.485 2.045 0.497 2.085 0.063 0.211 0.258 0.356 0.479 0.356h14c1.378 0 2.5-1.122 2.5-2.5v-12c0-0.173-0.090-0.334-0.237-0.425zM18 17.5c0 0.827-0.673 1.5-1.5 1.5h-13.621c-0.107-0.396-0.277-1.073-0.399-1.779-0.32-1.856-0.022-2.197 0.002-2.219 0.003-0.001 0.009-0.001 0.019-0.001 0.22 0 0.517 0.343 0.803 0.676 0.509 0.59 1.142 1.324 2.197 1.324 0.669 0 1.327-0.463 1.805-1.27 0.448-0.757 0.695-1.726 0.695-2.73s-0.247-1.973-0.695-2.73c-0.478-0.807-1.136-1.27-1.805-1.27-1.055 0-1.688 0.734-2.197 1.324-0.282 0.327-0.574 0.666-0.794 0.675-0.054-0.065-0.35-0.538-0.031-2.772 0.113-0.792 0.269-1.559 0.378-2.053 0.434 0.161 1.084 0.385 1.795 0.574 1.796 0.478 3.009 0.484 3.708 0.018 0.292-0.195 0.641-0.573 0.641-1.267 0-0.584-0.25-1.015-0.492-1.432-0.261-0.451-0.508-0.876-0.508-1.568 0-0.597 1.197-1.5 3-1.5s3 0.903 3 1.5c0 0.691-0.247 1.117-0.508 1.568-0.242 0.417-0.492 0.848-0.492 1.432 0 0.762 0.368 1.15 0.677 1.341 0.646 0.399 1.679 0.359 3.156-0.125 0.438-0.143 0.844-0.303 1.167-0.44v11.224z"></path>
</symbol>
<symbol id="icon-wall" viewBox="0 0 20 20">
<title>wall</title>
<path d="M18.5 7c0.276 0 0.5-0.224 0.5-0.5s-0.224-0.5-0.5-0.5h-2.5v-3h2.5c0.276 0 0.5-0.224 0.5-0.5s-0.224-0.5-0.5-0.5h-18c-0.276 0-0.5 0.224-0.5 0.5s0.224 0.5 0.5 0.5h5.5v3h-5.5c-0.276 0-0.5 0.224-0.5 0.5s0.224 0.5 0.5 0.5h2.5v3h-2.5c-0.276 0-0.5 0.224-0.5 0.5s0.224 0.5 0.5 0.5h5.5v3h-5.5c-0.276 0-0.5 0.224-0.5 0.5s0.224 0.5 0.5 0.5h2.5v3h-2.5c-0.276 0-0.5 0.224-0.5 0.5s0.224 0.5 0.5 0.5h18c0.276 0 0.5-0.224 0.5-0.5s-0.224-0.5-0.5-0.5h-5.5v-3h5.5c0.276 0 0.5-0.224 0.5-0.5s-0.224-0.5-0.5-0.5h-2.5v-3h2.5c0.276 0 0.5-0.224 0.5-0.5s-0.224-0.5-0.5-0.5h-5.5v-3h5.5zM7 3h8v3h-8v-3zM12 18h-8v-3h8v3zM15 14h-8v-3h8v3zM12 10h-8v-3h8v3z"></path>
</symbol>
<symbol id="icon-mic" viewBox="0 0 20 20">
<title>mic</title>
<path d="M9.5 14c-1.93 0-3.5-1.57-3.5-3.5v-6c0-1.93 1.57-3.5 3.5-3.5s3.5 1.57 3.5 3.5v6c0 1.93-1.57 3.5-3.5 3.5zM9.5 2c-1.378 0-2.5 1.122-2.5 2.5v6c0 1.378 1.122 2.5 2.5 2.5s2.5-1.122 2.5-2.5v-6c0-1.378-1.122-2.5-2.5-2.5z"></path>
<path d="M16 10.5c0-0.276-0.224-0.5-0.5-0.5s-0.5 0.224-0.5 0.5c0 3.033-2.467 5.5-5.5 5.5s-5.5-2.467-5.5-5.5c0-0.276-0.224-0.5-0.5-0.5s-0.5 0.224-0.5 0.5c0 3.416 2.649 6.225 6 6.481v2.019h-1.5c-0.276 0-0.5 0.224-0.5 0.5s0.224 0.5 0.5 0.5h4c0.276 0 0.5-0.224 0.5-0.5s-0.224-0.5-0.5-0.5h-1.5v-2.019c3.351-0.256 6-3.065 6-6.481z"></path>
</symbol>
<symbol id="icon-mic2" viewBox="0 0 20 20">
<title>mic2</title>
<path d="M2.5 5c-0.132 0-0.261-0.053-0.353-0.147s-0.147-0.222-0.147-0.353 0.053-0.261 0.147-0.353c0.093-0.093 0.222-0.147 0.353-0.147s0.26 0.053 0.353 0.147c0.093 0.093 0.147 0.222 0.147 0.353s-0.053 0.261-0.147 0.353c-0.093 0.093-0.222 0.147-0.353 0.147z"></path>
<path d="M4.5 3c-0.132 0-0.261-0.053-0.353-0.147s-0.147-0.222-0.147-0.353 0.053-0.261 0.147-0.353c0.093-0.093 0.222-0.147 0.353-0.147s0.261 0.053 0.353 0.147c0.093 0.093 0.147 0.222 0.147 0.353s-0.053 0.261-0.147 0.353c-0.093 0.093-0.222 0.147-0.353 0.147z"></path>
<path d="M2.5 7c-0.132 0-0.26-0.053-0.353-0.147s-0.147-0.222-0.147-0.353 0.053-0.26 0.147-0.353 0.222-0.147 0.353-0.147 0.26 0.053 0.353 0.147c0.093 0.093 0.147 0.222 0.147 0.353s-0.053 0.26-0.147 0.353c-0.093 0.093-0.222 0.147-0.353 0.147z"></path>
<path d="M4.5 5c-0.132 0-0.261-0.053-0.353-0.147s-0.147-0.222-0.147-0.353 0.053-0.26 0.147-0.353 0.222-0.147 0.353-0.147 0.261 0.053 0.353 0.147c0.093 0.093 0.147 0.222 0.147 0.353s-0.053 0.261-0.147 0.353c-0.093 0.093-0.222 0.147-0.353 0.147z"></path>
<path d="M6.5 3c-0.132 0-0.26-0.053-0.353-0.147s-0.147-0.222-0.147-0.353 0.053-0.26 0.147-0.353 0.222-0.147 0.353-0.147 0.26 0.053 0.353 0.147c0.093 0.093 0.147 0.222 0.147 0.353s-0.053 0.26-0.147 0.353c-0.093 0.093-0.222 0.147-0.353 0.147z"></path>
<path d="M4.5 9c-0.132 0-0.261-0.053-0.353-0.147s-0.147-0.222-0.147-0.353 0.053-0.261 0.147-0.353c0.093-0.093 0.222-0.147 0.353-0.147s0.26 0.053 0.353 0.147c0.093 0.093 0.147 0.222 0.147 0.353s-0.053 0.261-0.147 0.353c-0.093 0.093-0.222 0.147-0.353 0.147z"></path>
<path d="M6.5 7c-0.132 0-0.26-0.053-0.353-0.147s-0.147-0.222-0.147-0.353 0.053-0.26 0.147-0.353 0.222-0.147 0.353-0.147 0.26 0.053 0.353 0.147c0.093 0.093 0.147 0.222 0.147 0.353s-0.053 0.26-0.147 0.353c-0.093 0.093-0.222 0.147-0.353 0.147z"></path>
<path d="M8.5 5c-0.132 0-0.261-0.053-0.353-0.147s-0.147-0.222-0.147-0.353 0.053-0.26 0.147-0.353c0.093-0.093 0.222-0.147 0.353-0.147s0.26 0.053 0.353 0.147c0.093 0.093 0.147 0.222 0.147 0.353s-0.053 0.261-0.147 0.353c-0.093 0.093-0.222 0.147-0.353 0.147z"></path>
<path d="M4.5 7c-0.132 0-0.26-0.053-0.353-0.147s-0.147-0.222-0.147-0.353 0.053-0.261 0.147-0.353c0.093-0.093 0.222-0.147 0.353-0.147s0.261 0.053 0.353 0.147c0.093 0.093 0.147 0.222 0.147 0.353s-0.053 0.261-0.147 0.353c-0.093 0.093-0.222 0.147-0.353 0.147z"></path>
<path d="M6.5 5c-0.132 0-0.261-0.053-0.353-0.147s-0.147-0.222-0.147-0.353 0.053-0.261 0.147-0.353c0.093-0.093 0.222-0.147 0.353-0.147s0.261 0.053 0.353 0.147c0.093 0.093 0.147 0.222 0.147 0.353s-0.053 0.26-0.147 0.353c-0.093 0.093-0.222 0.147-0.353 0.147z"></path>
<path d="M8.5 3c-0.132 0-0.26-0.053-0.353-0.147s-0.147-0.222-0.147-0.353 0.053-0.26 0.147-0.353c0.093-0.093 0.222-0.147 0.353-0.147s0.261 0.053 0.353 0.147c0.093 0.093 0.147 0.222 0.147 0.353s-0.053 0.261-0.147 0.353c-0.093 0.093-0.222 0.147-0.353 0.147z"></path>
<path d="M2.5 9c-0.132 0-0.261-0.053-0.353-0.147s-0.147-0.222-0.147-0.353 0.053-0.261 0.147-0.353c0.093-0.093 0.222-0.147 0.353-0.147s0.26 0.053 0.353 0.147c0.093 0.093 0.147 0.222 0.147 0.353s-0.053 0.26-0.147 0.353c-0.093 0.093-0.222 0.147-0.353 0.147z"></path>
<path d="M19.89 16.188l-7.899-9.873c0.005-0.104 0.008-0.209 0.008-0.314 0-3.308-2.692-6-6-6s-6 2.692-6 6c0 1.982 0.966 3.742 2.452 4.836 0.025 0.023 0.052 0.042 0.081 0.059 0.98 0.696 2.176 1.105 3.466 1.105 0.105 0 0.21-0.003 0.314-0.008l9.873 7.899c0.090 0.072 0.2 0.11 0.312 0.11 0.042 0 0.083-0.005 0.125-0.016 0.776-0.2 1.509-0.628 2.12-1.239s1.039-1.344 1.239-2.12c0.039-0.152 0.004-0.314-0.094-0.437zM1 6c0-2.757 2.243-5 5-5 1.602 0 3.030 0.757 3.946 1.933-0.427 3.677-3.339 6.587-7.013 7.013-1.176-0.916-1.933-2.344-1.933-3.946zM4.301 10.703c3.122-0.823 5.578-3.277 6.402-6.401 0.192 0.531 0.297 1.102 0.297 1.699 0 2.757-2.243 5-5 5-0.596 0-1.168-0.105-1.699-0.297zM16.608 18.946l-8.968-7.174c1.992-0.567 3.565-2.14 4.132-4.132l7.174 8.968c-0.361 1.061-1.277 1.977-2.338 2.338z"></path>
</symbol>
</defs>
</svg>
